<svg xmlns="http://www.w3.org/2000/svg" width="828.64" height="35" viewBox="0 0 828.64 35"><rect class="svg__rect" x="0" y="0" width="460.48" height="35" fill="#A7BFC1"/><rect class="svg__rect" x="458.48" y="0" width="370.15999999999997" height="35" fill="#EA4560"/><path class="svg__text" d="M16.84 18.95L13.77 18.95L13.77 17.80L16.84 17.80L16.84 18.95ZM23.77 18.95L20.69 18.95L20.69 17.80L23.77 17.80L23.77 18.95ZM30.69 18.95L27.62 18.95L27.62 17.80L30.69 17.80L30.69 18.95ZM37.62 18.95L34.54 18.95L34.54 17.80L37.62 17.80L37.62 18.95ZM44.55 18.95L41.47 18.95L41.47 17.80L44.55 17.80L44.55 18.95ZM51.47 18.95L48.39 18.95L48.39 17.80L51.47 17.80L51.47 18.95ZM58.40 18.95L55.32 18.95L55.32 17.80L58.40 17.80L58.40 18.95ZM65.32 18.95L62.25 18.95L62.25 17.80L65.32 17.80L65.32 18.95ZM72.25 18.95L69.17 18.95L69.17 17.80L72.25 17.80L72.25 18.95ZM79.17 18.95L76.10 18.95L76.10 17.80L79.17 17.80L79.17 18.95ZM86.10 18.95L83.02 18.95L83.02 17.80L86.10 17.80L86.10 18.95ZM93.03 18.95L89.95 18.95L89.95 17.80L93.03 17.80L93.03 18.95ZM99.95 18.95L96.88 18.95L96.88 17.80L99.95 17.80L99.95 18.95ZM106.88 18.95L103.80 18.95L103.80 17.80L106.88 17.80L106.88 18.95ZM113.80 18.95L110.73 18.95L110.73 17.80L113.80 17.80L113.80 18.95ZM120.73 18.95L117.65 18.95L117.65 17.80L120.73 17.80L120.73 18.95ZM127.65 18.95L124.58 18.95L124.58 17.80L127.65 17.80L127.65 18.95ZM215.01 22L209.65 22L209.65 13.47L211.13 13.47L211.13 20.82L215.01 20.82L215.01 22ZM219.68 16.02L218.74 16.02L218.74 13L219.83 13L219.83 13.73L219.68 16.02ZM223.88 18.00L223.88 18.00L223.88 17.52Q223.88 16.28 224.32 15.32Q224.76 14.37 225.57 13.86Q226.37 13.35 227.42 13.35Q228.46 13.35 229.27 13.85Q230.07 14.35 230.51 15.29Q230.95 16.23 230.96 17.48L230.96 17.48L230.96 17.96Q230.96 19.21 230.52 20.16Q230.09 21.10 229.28 21.61Q228.48 22.12 227.43 22.12L227.43 22.12Q226.39 22.12 225.58 21.61Q224.77 21.10 224.33 20.17Q223.88 19.23 223.88 18.00ZM225.36 17.46L225.36 17.96Q225.36 19.36 225.91 20.13Q226.46 20.90 227.43 20.90L227.43 20.90Q228.41 20.90 228.94 20.15Q229.47 19.40 229.47 17.96L229.47 17.96L229.47 17.51Q229.47 16.09 228.94 15.34Q228.40 14.58 227.42 14.58L227.42 14.58Q226.46 14.58 225.91 15.33Q225.37 16.09 225.36 17.46L225.36 17.46ZM236.90 22L235.42 22L235.42 13.47L238.68 13.47Q240.11 13.47 240.95 14.21Q241.80 14.96 241.80 16.18L241.80 16.18Q241.80 17.44 240.97 18.13Q240.15 18.83 238.67 18.83L238.67 18.83L236.90 18.83L236.90 22ZM236.90 14.66L236.90 17.64L238.68 17.64Q239.47 17.64 239.89 17.27Q240.31 16.90 240.31 16.19L240.31 16.19Q240.31 15.50 239.89 15.09Q239.46 14.68 238.72 14.66L238.72 14.66L236.90 14.66ZM251.66 22L246.08 22L246.08 13.47L251.62 13.47L251.62 14.66L247.56 14.66L247.56 17.02L251.06 17.02L251.06 18.19L247.56 18.19L247.56 20.82L251.66 20.82L251.66 22ZM249.30 12.92L248.16 12.92L249.30 11.14L250.92 11.14L249.30 12.92ZM257.33 22L255.85 22L255.85 13.47L258.85 13.47Q260.33 13.47 261.13 14.13Q261.93 14.79 261.93 16.05L261.93 16.05Q261.93 16.90 261.52 17.48Q261.11 18.06 260.37 18.37L260.37 18.37L262.29 21.92L262.29 22L260.70 22L258.99 18.71L257.33 18.71L257.33 22ZM257.33 14.66L257.33 17.52L258.86 17.52Q259.61 17.52 260.03 17.15Q260.45 16.77 260.45 16.11L260.45 16.11Q260.45 15.43 260.06 15.05Q259.67 14.68 258.90 14.66L258.90 14.66L257.33 14.66ZM267.11 22L265.57 22L268.79 13.47L270.12 13.47L273.35 22L271.80 22L271.10 20.01L267.80 20.01L267.11 22ZM269.45 15.28L268.22 18.82L270.69 18.82L269.45 15.28ZM278.98 14.66L276.35 14.66L276.35 13.47L283.12 13.47L283.12 14.66L280.46 14.66L280.46 22L278.98 22L278.98 14.66ZM288.44 22L286.96 22L286.96 13.47L288.44 13.47L288.44 22ZM292.98 18.00L292.98 18.00L292.98 17.52Q292.98 16.28 293.42 15.32Q293.86 14.37 294.67 13.86Q295.47 13.35 296.52 13.35Q297.56 13.35 298.36 13.85Q299.17 14.35 299.61 15.29Q300.05 16.23 300.06 17.48L300.06 17.48L300.06 17.96Q300.06 19.21 299.62 20.16Q299.19 21.10 298.38 21.61Q297.58 22.12 296.53 22.12L296.53 22.12Q295.49 22.12 294.68 21.61Q293.87 21.10 293.43 20.17Q292.98 19.23 292.98 18.00ZM294.46 17.46L294.46 17.96Q294.46 19.36 295.01 20.13Q295.56 20.90 296.53 20.90L296.53 20.90Q297.51 20.90 298.04 20.15Q298.57 19.40 298.57 17.96L298.57 17.96L298.57 17.51Q298.57 16.09 298.04 15.34Q297.50 14.58 296.52 14.58L296.52 14.58Q295.56 14.58 295.01 15.33Q294.47 16.09 294.46 17.46L294.46 17.46ZM306.00 22L304.52 22L304.52 13.47L306.00 13.47L309.82 19.54L309.82 13.47L311.29 13.47L311.29 22L309.81 22L306.00 15.95L306.00 22ZM324.30 22L321.24 13.47L322.87 13.47L325.01 20.14L327.18 13.47L328.81 13.47L325.74 22L324.30 22ZM333.54 22L331.99 22L335.22 13.47L336.55 13.47L339.78 22L338.23 22L337.53 20.01L334.23 20.01L333.54 22ZM335.88 15.28L334.64 18.82L337.12 18.82L335.88 15.28ZM351.19 22L349.71 22L349.71 13.47L352.97 13.47Q354.40 13.47 355.24 14.21Q356.08 14.96 356.08 16.18L356.08 16.18Q356.08 17.44 355.26 18.13Q354.44 18.83 352.95 18.83L352.95 18.83L351.19 18.83L351.19 22ZM351.19 14.66L351.19 17.64L352.97 17.64Q353.76 17.64 354.18 17.27Q354.59 16.90 354.59 16.19L354.59 16.19Q354.59 15.50 354.17 15.09Q353.75 14.68 353.01 14.66L353.01 14.66L351.19 14.66ZM361.85 22L360.37 22L360.37 13.47L363.37 13.47Q364.84 13.47 365.64 14.13Q366.45 14.79 366.45 16.05L366.45 16.05Q366.45 16.90 366.03 17.48Q365.62 18.06 364.88 18.37L364.88 18.37L366.80 21.92L366.80 22L365.21 22L363.50 18.71L361.85 18.71L361.85 22ZM361.85 14.66L361.85 17.52L363.37 17.52Q364.12 17.52 364.54 17.15Q364.97 16.77 364.97 16.11L364.97 16.11Q364.97 15.43 364.58 15.05Q364.19 14.68 363.41 14.66L363.41 14.66L361.85 14.66ZM376.42 22L370.84 22L370.84 13.47L376.38 13.47L376.38 14.66L372.32 14.66L372.32 17.02L375.83 17.02L375.83 18.19L372.32 18.19L372.32 20.82L376.42 20.82L376.42 22ZM382.10 22L380.62 22L380.62 13.47L382.10 13.47L385.91 19.54L385.91 13.47L387.38 13.47L387.38 22L385.90 22L382.10 15.95L382.10 22ZM394.58 22L392.12 22L392.12 13.47L394.64 13.47Q395.77 13.47 396.65 13.97Q397.53 14.48 398.01 15.40Q398.49 16.33 398.49 17.52L398.49 17.52L398.49 17.95Q398.49 19.16 398.00 20.08Q397.52 21.00 396.63 21.50Q395.73 22 394.58 22L394.58 22ZM393.61 14.66L393.61 20.82L394.57 20.82Q395.74 20.82 396.36 20.09Q396.99 19.36 397.00 17.99L397.00 17.99L397.00 17.52Q397.00 16.13 396.39 15.40Q395.79 14.66 394.64 14.66L394.64 14.66L393.61 14.66ZM404.43 22L402.95 22L402.95 13.47L405.95 13.47Q407.43 13.47 408.23 14.13Q409.03 14.79 409.03 16.05L409.03 16.05Q409.03 16.90 408.62 17.48Q408.21 18.06 407.47 18.37L407.47 18.37L409.39 21.92L409.39 22L407.80 22L406.09 18.71L404.43 18.71L404.43 22ZM404.43 14.66L404.43 17.52L405.96 17.52Q406.71 17.52 407.13 17.15Q407.55 16.77 407.55 16.11L407.55 16.11Q407.55 15.43 407.16 15.05Q406.77 14.68 406.00 14.66L406.00 14.66L404.43 14.66ZM419.01 22L413.43 22L413.43 13.47L418.97 13.47L418.97 14.66L414.91 14.66L414.91 17.02L418.41 17.02L418.41 18.19L414.91 18.19L414.91 20.82L419.01 20.82L419.01 22ZM431.63 22L429.18 22L429.18 13.47L431.70 13.47Q432.83 13.47 433.70 13.97Q434.58 14.48 435.06 15.40Q435.54 16.33 435.54 17.52L435.54 17.52L435.54 17.95Q435.54 19.16 435.06 20.08Q434.57 21.00 433.68 21.50Q432.79 22 431.63 22L431.63 22ZM430.66 14.66L430.66 20.82L431.63 20.82Q432.79 20.82 433.42 20.09Q434.04 19.36 434.05 17.99L434.05 17.99L434.05 17.52Q434.05 16.13 433.45 15.40Q432.85 14.66 431.70 14.66L431.70 14.66L430.66 14.66ZM439.87 19.16L439.87 19.16L439.87 13.47L441.35 13.47L441.35 19.18Q441.35 20.03 441.78 20.48Q442.22 20.93 443.06 20.93L443.06 20.93Q444.77 20.93 444.77 19.13L444.77 19.13L444.77 13.47L446.25 13.47L446.25 19.17Q446.25 20.53 445.38 21.32Q444.51 22.12 443.06 22.12L443.06 22.12Q441.59 22.12 440.73 21.33Q439.87 20.55 439.87 19.16Z" fill="#FFFFFF"/><path class="svg__text" d="M474.46 15.48L471.88 15.48L471.88 13.60L479.40 13.60L479.40 15.48L476.83 15.48L476.83 22L474.46 22L474.46 15.48ZM490.52 22L483.77 22L483.77 13.60L490.36 13.60L490.36 15.44L486.13 15.44L486.13 16.85L489.86 16.85L489.86 18.63L486.13 18.63L486.13 20.17L490.52 20.17L490.52 22ZM497.52 22L495.32 22L495.32 13.60L497.28 13.60L500.23 18.45L503.11 13.60L505.06 13.60L505.09 22L502.91 22L502.88 17.55L500.72 21.17L499.67 21.17L497.52 17.67L497.52 22ZM512.63 22L510.25 22L510.25 13.60L514.09 13.60Q515.23 13.60 516.07 13.98Q516.91 14.35 517.37 15.06Q517.83 15.76 517.83 16.71L517.83 16.71Q517.83 17.66 517.37 18.35Q516.91 19.05 516.07 19.42Q515.23 19.80 514.09 19.80L514.09 19.80L512.63 19.80L512.63 22ZM512.63 15.47L512.63 17.93L513.95 17.93Q514.68 17.93 515.05 17.61Q515.42 17.29 515.42 16.71L515.42 16.71Q515.42 16.12 515.05 15.80Q514.68 15.47 513.95 15.47L513.95 15.47L512.63 15.47ZM521.99 21.24L521.99 21.24L522.77 19.49Q523.33 19.86 524.08 20.09Q524.82 20.32 525.54 20.32L525.54 20.32Q526.91 20.32 526.91 19.64L526.91 19.64Q526.91 19.28 526.52 19.11Q526.13 18.93 525.27 18.74L525.27 18.74Q524.32 18.53 523.68 18.30Q523.05 18.06 522.59 17.55Q522.14 17.03 522.14 16.16L522.14 16.16Q522.14 15.39 522.56 14.77Q522.98 14.15 523.81 13.79Q524.65 13.43 525.85 13.43L525.85 13.43Q526.68 13.43 527.49 13.62Q528.29 13.80 528.91 14.17L528.91 14.17L528.17 15.93Q526.97 15.28 525.84 15.28L525.84 15.28Q525.13 15.28 524.81 15.49Q524.49 15.70 524.49 16.04L524.49 16.04Q524.49 16.37 524.87 16.54Q525.26 16.71 526.11 16.89L526.11 16.89Q527.07 17.10 527.70 17.33Q528.33 17.56 528.79 18.07Q529.25 18.58 529.25 19.46L529.25 19.46Q529.25 20.21 528.83 20.83Q528.41 21.44 527.57 21.80Q526.73 22.17 525.53 22.17L525.53 22.17Q524.51 22.17 523.55 21.92Q522.59 21.67 521.99 21.24ZM669.55 19.46L666.04 19.46L666.04 17.71L669.55 17.71L669.55 19.46ZM677.69 19.46L674.18 19.46L674.18 17.71L677.69 17.71L677.69 19.46ZM685.83 19.46L682.32 19.46L682.32 17.71L685.83 17.71L685.83 19.46ZM693.96 19.46L690.46 19.46L690.46 17.71L693.96 17.71L693.96 19.46ZM702.10 19.46L698.60 19.46L698.60 17.71L702.10 17.71L702.10 19.46ZM710.24 19.46L706.74 19.46L706.74 17.71L710.24 17.71L710.24 19.46ZM718.38 19.46L714.88 19.46L714.88 17.71L718.38 17.71L718.38 19.46ZM726.52 19.46L723.02 19.46L723.02 17.71L726.52 17.71L726.52 19.46ZM734.66 19.46L731.15 19.46L731.15 17.71L734.66 17.71L734.66 19.46ZM742.80 19.46L739.29 19.46L739.29 17.71L742.80 17.71L742.80 19.46ZM750.94 19.46L747.43 19.46L747.43 17.71L750.94 17.71L750.94 19.46ZM759.07 19.46L755.57 19.46L755.57 17.71L759.07 17.71L759.07 19.46ZM767.21 19.46L763.71 19.46L763.71 17.71L767.21 17.71L767.21 19.46ZM775.35 19.46L771.85 19.46L771.85 17.71L775.35 17.71L775.35 19.46ZM783.49 19.46L779.99 19.46L779.99 17.71L783.49 17.71L783.49 19.46ZM791.63 19.46L788.12 19.46L788.12 17.71L791.63 17.71L791.63 19.46ZM799.77 19.46L796.26 19.46L796.26 17.71L799.77 17.71L799.77 19.46ZM807.91 19.46L804.40 19.46L804.40 17.71L807.91 17.71L807.91 19.46ZM816.04 19.46L812.54 19.46L812.54 17.71L816.04 17.71L816.04 19.46Z" fill="#FFFFFF" x="471.48"/></svg>