<svg xmlns="http://www.w3.org/2000/svg" width="841.99" height="35" viewBox="0 0 841.99 35"><rect class="svg__rect" x="0" y="0" width="404.71000000000004" height="35" fill="#EA4560"/><rect class="svg__rect" x="402.71000000000004" y="0" width="439.28" height="35" fill="#A7BFC1"/><path class="svg__text" d="M16.84 18.95L13.77 18.95L13.77 17.80L16.84 17.80L16.84 18.95ZM23.77 18.95L20.69 18.95L20.69 17.80L23.77 17.80L23.77 18.95ZM30.69 18.95L27.62 18.95L27.62 17.80L30.69 17.80L30.69 18.95ZM37.62 18.95L34.54 18.95L34.54 17.80L37.62 17.80L37.62 18.95ZM44.55 18.95L41.47 18.95L41.47 17.80L44.55 17.80L44.55 18.95ZM51.47 18.95L48.39 18.95L48.39 17.80L51.47 17.80L51.47 18.95ZM58.40 18.95L55.32 18.95L55.32 17.80L58.40 17.80L58.40 18.95ZM65.32 18.95L62.25 18.95L62.25 17.80L65.32 17.80L65.32 18.95ZM72.25 18.95L69.17 18.95L69.17 17.80L72.25 17.80L72.25 18.95ZM79.17 18.95L76.10 18.95L76.10 17.80L79.17 17.80L79.17 18.95ZM86.10 18.95L83.02 18.95L83.02 17.80L86.10 17.80L86.10 18.95ZM93.03 18.95L89.95 18.95L89.95 17.80L93.03 17.80L93.03 18.95ZM99.95 18.95L96.88 18.95L96.88 17.80L99.95 17.80L99.95 18.95ZM106.88 18.95L103.80 18.95L103.80 17.80L106.88 17.80L106.88 18.95ZM113.80 18.95L110.73 18.95L110.73 17.80L113.80 17.80L113.80 18.95ZM120.73 18.95L117.65 18.95L117.65 17.80L120.73 17.80L120.73 18.95ZM127.65 18.95L124.58 18.95L124.58 17.80L127.65 17.80L127.65 18.95ZM134.58 18.95L131.50 18.95L131.50 17.80L134.58 17.80L134.58 18.95ZM141.51 18.95L138.43 18.95L138.43 17.80L141.51 17.80L141.51 18.95ZM148.43 18.95L145.36 18.95L145.36 17.80L148.43 17.80L148.43 18.95ZM155.36 18.95L152.28 18.95L152.28 17.80L155.36 17.80L155.36 18.95ZM162.28 18.95L159.21 18.95L159.21 17.80L162.28 17.80L162.28 18.95ZM169.21 18.95L166.13 18.95L166.13 17.80L169.21 17.80L169.21 18.95ZM176.14 18.95L173.06 18.95L173.06 17.80L176.14 17.80L176.14 18.95ZM183.06 18.95L179.98 18.95L179.98 17.80L183.06 17.80L183.06 18.95ZM189.99 18.95L186.91 18.95L186.91 17.80L189.99 17.80L189.99 18.95ZM196.91 18.95L193.84 18.95L193.84 17.80L196.91 17.80L196.91 18.95ZM203.84 18.95L200.76 18.95L200.76 17.80L203.84 17.80L203.84 18.95ZM210.76 18.95L207.69 18.95L207.69 17.80L210.76 17.80L210.76 18.95ZM217.69 18.95L214.61 18.95L214.61 17.80L217.69 17.80L217.69 18.95ZM224.62 18.95L221.54 18.95L221.54 17.80L224.62 17.80L224.62 18.95ZM231.54 18.95L228.47 18.95L228.47 17.80L231.54 17.80L231.54 18.95ZM238.47 18.95L235.39 18.95L235.39 17.80L238.47 17.80L238.47 18.95ZM245.39 18.95L242.32 18.95L242.32 17.80L245.39 17.80L245.39 18.95ZM252.32 18.95L249.24 18.95L249.24 17.80L252.32 17.80L252.32 18.95ZM259.24 18.95L256.17 18.95L256.17 17.80L259.24 17.80L259.24 18.95ZM266.17 18.95L263.09 18.95L263.09 17.80L266.17 17.80L266.17 18.95ZM273.10 18.95L270.02 18.95L270.02 17.80L273.10 17.80L273.10 18.95ZM280.02 18.95L276.95 18.95L276.95 17.80L280.02 17.80L280.02 18.95ZM286.95 18.95L283.87 18.95L283.87 17.80L286.95 17.80L286.95 18.95ZM293.87 18.95L290.80 18.95L290.80 17.80L293.87 17.80L293.87 18.95ZM300.80 18.95L297.72 18.95L297.72 17.80L300.80 17.80L300.80 18.95ZM305.88 22L304.34 22L307.56 13.47L308.89 13.47L312.12 22L310.57 22L309.88 20.01L306.57 20.01L305.88 22ZM308.22 15.28L306.99 18.82L309.46 18.82L308.22 15.28ZM317.76 14.66L315.12 14.66L315.12 13.47L321.89 13.47L321.89 14.66L319.23 14.66L319.23 22L317.76 22L317.76 14.66ZM327.32 14.66L324.69 14.66L324.69 13.47L331.46 13.47L331.46 14.66L328.80 14.66L328.80 22L327.32 22L327.32 14.66ZM340.79 22L335.21 22L335.21 13.47L340.75 13.47L340.75 14.66L336.69 14.66L336.69 17.02L340.20 17.02L340.20 18.19L336.69 18.19L336.69 20.82L340.79 20.82L340.79 22ZM346.47 22L344.98 22L344.98 13.47L346.47 13.47L350.28 19.54L350.28 13.47L351.75 13.47L351.75 22L350.27 22L346.47 15.95L346.47 22ZM358.17 14.66L355.54 14.66L355.54 13.47L362.31 13.47L362.31 14.66L359.64 14.66L359.64 22L358.17 22L358.17 14.66ZM367.63 22L366.15 22L366.15 13.47L367.63 13.47L367.63 22ZM372.17 18.00L372.17 18.00L372.17 17.52Q372.17 16.28 372.61 15.32Q373.05 14.37 373.86 13.86Q374.66 13.35 375.71 13.35Q376.75 13.35 377.55 13.85Q378.36 14.35 378.80 15.29Q379.24 16.23 379.24 17.48L379.24 17.48L379.24 17.96Q379.24 19.21 378.81 20.16Q378.38 21.10 377.57 21.61Q376.77 22.12 375.72 22.12L375.72 22.12Q374.68 22.12 373.87 21.61Q373.06 21.10 372.61 20.17Q372.17 19.23 372.17 18.00ZM373.65 17.46L373.65 17.96Q373.65 19.36 374.20 20.13Q374.74 20.90 375.72 20.90L375.72 20.90Q376.70 20.90 377.23 20.15Q377.76 19.40 377.76 17.96L377.76 17.96L377.76 17.51Q377.76 16.09 377.23 15.34Q376.69 14.58 375.71 14.58L375.71 14.58Q374.74 14.58 374.20 15.33Q373.66 16.09 373.65 17.46L373.65 17.46ZM385.19 22L383.71 22L383.71 13.47L385.19 13.47L389.01 19.54L389.01 13.47L390.48 13.47L390.48 22L388.99 22L385.19 15.95L385.19 22Z" fill="#FFFFFF"/><path class="svg__text" d="M416.51 20.85L416.51 20.85Q416.51 20.31 416.89 19.96Q417.27 19.61 417.87 19.61L417.87 19.61Q418.47 19.61 418.85 19.96Q419.23 20.31 419.23 20.85L419.23 20.85Q419.23 21.37 418.85 21.74Q418.46 22.11 417.87 22.11L417.87 22.11Q417.27 22.11 416.89 21.74Q416.51 21.38 416.51 20.85ZM416.96 18.94L416.52 13.60L419.23 13.60L418.77 18.94L416.96 18.94ZM423.60 20.85L423.60 20.85Q423.60 20.31 423.98 19.96Q424.37 19.61 424.97 19.61L424.97 19.61Q425.56 19.61 425.94 19.96Q426.33 20.31 426.33 20.85L426.33 20.85Q426.33 21.37 425.94 21.74Q425.56 22.11 424.97 22.11L424.97 22.11Q424.37 22.11 423.98 21.74Q423.60 21.38 423.60 20.85ZM424.06 18.94L423.61 13.60L426.33 13.60L425.87 18.94L424.06 18.94ZM430.70 20.85L430.70 20.85Q430.70 20.31 431.08 19.96Q431.46 19.61 432.06 19.61L432.06 19.61Q432.66 19.61 433.04 19.96Q433.42 20.31 433.42 20.85L433.42 20.85Q433.42 21.37 433.04 21.74Q432.65 22.11 432.06 22.11L432.06 22.11Q431.46 22.11 431.08 21.74Q430.70 21.38 430.70 20.85ZM431.15 18.94L430.71 13.60L433.42 13.60L432.96 18.94L431.15 18.94ZM437.79 20.85L437.79 20.85Q437.79 20.31 438.18 19.96Q438.56 19.61 439.16 19.61L439.16 19.61Q439.76 19.61 440.14 19.96Q440.52 20.31 440.52 20.85L440.52 20.85Q440.52 21.37 440.13 21.74Q439.75 22.11 439.16 22.11L439.16 22.11Q438.56 22.11 438.18 21.74Q437.79 21.38 437.79 20.85ZM438.25 18.94L437.80 13.60L440.52 13.60L440.06 18.94L438.25 18.94ZM444.89 20.85L444.89 20.85Q444.89 20.31 445.27 19.96Q445.66 19.61 446.25 19.61L446.25 19.61Q446.85 19.61 447.23 19.96Q447.61 20.31 447.61 20.85L447.61 20.85Q447.61 21.37 447.23 21.74Q446.85 22.11 446.25 22.11L446.25 22.11Q445.66 22.11 445.27 21.74Q444.89 21.38 444.89 20.85ZM445.35 18.94L444.90 13.60L447.61 13.60L447.16 18.94L445.35 18.94ZM451.98 20.85L451.98 20.85Q451.98 20.31 452.37 19.96Q452.75 19.61 453.35 19.61L453.35 19.61Q453.95 19.61 454.33 19.96Q454.71 20.31 454.71 20.85L454.71 20.85Q454.71 21.37 454.32 21.74Q453.94 22.11 453.35 22.11L453.35 22.11Q452.75 22.11 452.37 21.74Q451.98 21.38 451.98 20.85ZM452.44 18.94L452.00 13.60L454.71 13.60L454.25 18.94L452.44 18.94ZM459.08 20.85L459.08 20.85Q459.08 20.31 459.46 19.96Q459.85 19.61 460.44 19.61L460.44 19.61Q461.04 19.61 461.42 19.96Q461.80 20.31 461.80 20.85L461.80 20.85Q461.80 21.37 461.42 21.74Q461.04 22.11 460.44 22.11L460.44 22.11Q459.85 22.11 459.46 21.74Q459.08 21.38 459.08 20.85ZM459.54 18.94L459.09 13.60L461.80 13.60L461.35 18.94L459.54 18.94ZM466.18 20.85L466.18 20.85Q466.18 20.31 466.56 19.96Q466.94 19.61 467.54 19.61L467.54 19.61Q468.14 19.61 468.52 19.96Q468.90 20.31 468.90 20.85L468.90 20.85Q468.90 21.37 468.52 21.74Q468.13 22.11 467.54 22.11L467.54 22.11Q466.94 22.11 466.56 21.74Q466.18 21.38 466.18 20.85ZM466.63 18.94L466.19 13.60L468.90 13.60L468.44 18.94L466.63 18.94ZM473.27 20.85L473.27 20.85Q473.27 20.31 473.65 19.96Q474.04 19.61 474.64 19.61L474.64 19.61Q475.23 19.61 475.61 19.96Q476.00 20.31 476.00 20.85L476.00 20.85Q476.00 21.37 475.61 21.74Q475.23 22.11 474.64 22.11L474.64 22.11Q474.04 22.11 473.65 21.74Q473.27 21.38 473.27 20.85ZM473.73 18.94L473.28 13.60L476.00 13.60L475.54 18.94L473.73 18.94ZM480.37 20.85L480.37 20.85Q480.37 20.31 480.75 19.96Q481.13 19.61 481.73 19.61L481.73 19.61Q482.33 19.61 482.71 19.96Q483.09 20.31 483.09 20.85L483.09 20.85Q483.09 21.37 482.71 21.74Q482.32 22.11 481.73 22.11L481.73 22.11Q481.13 22.11 480.75 21.74Q480.37 21.38 480.37 20.85ZM480.82 18.94L480.38 13.60L483.09 13.60L482.63 18.94L480.82 18.94ZM487.46 20.85L487.46 20.85Q487.46 20.31 487.85 19.96Q488.23 19.61 488.83 19.61L488.83 19.61Q489.43 19.61 489.81 19.96Q490.19 20.31 490.19 20.85L490.19 20.85Q490.19 21.37 489.80 21.74Q489.42 22.11 488.83 22.11L488.83 22.11Q488.23 22.11 487.85 21.74Q487.46 21.38 487.46 20.85ZM487.92 18.94L487.47 13.60L490.19 13.60L489.73 18.94L487.92 18.94ZM494.56 20.85L494.56 20.85Q494.56 20.31 494.94 19.96Q495.33 19.61 495.92 19.61L495.92 19.61Q496.52 19.61 496.90 19.96Q497.28 20.31 497.28 20.85L497.28 20.85Q497.28 21.37 496.90 21.74Q496.52 22.11 495.92 22.11L495.92 22.11Q495.33 22.11 494.94 21.74Q494.56 21.38 494.56 20.85ZM495.02 18.94L494.57 13.60L497.28 13.60L496.83 18.94L495.02 18.94ZM501.65 20.85L501.65 20.85Q501.65 20.31 502.04 19.96Q502.42 19.61 503.02 19.61L503.02 19.61Q503.62 19.61 504.00 19.96Q504.38 20.31 504.38 20.85L504.38 20.85Q504.38 21.37 503.99 21.74Q503.61 22.11 503.02 22.11L503.02 22.11Q502.42 22.11 502.04 21.74Q501.65 21.38 501.65 20.85ZM502.11 18.94L501.67 13.60L504.38 13.60L503.92 18.94L502.11 18.94ZM512.38 19.46L508.88 19.46L508.88 17.71L512.38 17.71L512.38 19.46ZM520.52 19.46L517.02 19.46L517.02 17.71L520.52 17.71L520.52 19.46ZM528.66 19.46L525.16 19.46L525.16 17.71L528.66 17.71L528.66 19.46ZM536.80 19.46L533.29 19.46L533.29 17.71L536.80 17.71L536.80 19.46ZM544.94 19.46L541.43 19.46L541.43 17.71L544.94 17.71L544.94 19.46ZM553.08 19.46L549.57 19.46L549.57 17.71L553.08 17.71L553.08 19.46ZM561.21 19.46L557.71 19.46L557.71 17.71L561.21 17.71L561.21 19.46ZM569.35 19.46L565.85 19.46L565.85 17.71L569.35 17.71L569.35 19.46ZM577.49 19.46L573.99 19.46L573.99 17.71L577.49 17.71L577.49 19.46ZM585.63 19.46L582.13 19.46L582.13 17.71L585.63 17.71L585.63 19.46ZM593.77 19.46L590.27 19.46L590.27 17.71L593.77 17.71L593.77 19.46ZM601.91 19.46L598.40 19.46L598.40 17.71L601.91 17.71L601.91 19.46ZM610.05 19.46L606.54 19.46L606.54 17.71L610.05 17.71L610.05 19.46ZM618.19 19.46L614.68 19.46L614.68 17.71L618.19 17.71L618.19 19.46ZM626.32 19.46L622.82 19.46L622.82 17.71L626.32 17.71L626.32 19.46ZM634.46 19.46L630.96 19.46L630.96 17.71L634.46 17.71L634.46 19.46ZM642.60 19.46L639.10 19.46L639.10 17.71L642.60 17.71L642.60 19.46ZM650.74 19.46L647.24 19.46L647.24 17.71L650.74 17.71L650.74 19.46ZM658.88 19.46L655.37 19.46L655.37 17.71L658.88 17.71L658.88 19.46ZM667.02 19.46L663.51 19.46L663.51 17.71L667.02 17.71L667.02 19.46ZM675.16 19.46L671.65 19.46L671.65 17.71L675.16 17.71L675.16 19.46ZM683.29 19.46L679.79 19.46L679.79 17.71L683.29 17.71L683.29 19.46ZM691.43 19.46L687.93 19.46L687.93 17.71L691.43 17.71L691.43 19.46ZM699.57 19.46L696.07 19.46L696.07 17.71L699.57 17.71L699.57 19.46ZM707.71 19.46L704.21 19.46L704.21 17.71L707.71 17.71L707.71 19.46ZM715.85 19.46L712.35 19.46L712.35 17.71L715.85 17.71L715.85 19.46ZM723.99 19.46L720.48 19.46L720.48 17.71L723.99 17.71L723.99 19.46ZM732.13 19.46L728.62 19.46L728.62 17.71L732.13 17.71L732.13 19.46ZM740.27 19.46L736.76 19.46L736.76 17.71L740.27 17.71L740.27 19.46ZM748.40 19.46L744.90 19.46L744.90 17.71L748.40 17.71L748.40 19.46ZM756.54 19.46L753.04 19.46L753.04 17.71L756.54 17.71L756.54 19.46ZM764.68 19.46L761.18 19.46L761.18 17.71L764.68 17.71L764.68 19.46ZM772.82 19.46L769.32 19.46L769.32 17.71L772.82 17.71L772.82 19.46ZM780.96 19.46L777.45 19.46L777.45 17.71L780.96 17.71L780.96 19.46ZM789.10 19.46L785.59 19.46L785.59 17.71L789.10 17.71L789.10 19.46ZM797.24 19.46L793.73 19.46L793.73 17.71L797.24 17.71L797.24 19.46ZM805.37 19.46L801.87 19.46L801.87 17.71L805.37 17.71L805.37 19.46ZM813.51 19.46L810.01 19.46L810.01 17.71L813.51 17.71L813.51 19.46ZM821.65 19.46L818.15 19.46L818.15 17.71L821.65 17.71L821.65 19.46ZM829.79 19.46L826.29 19.46L826.29 17.71L829.79 17.71L829.79 19.46Z" fill="#FFFFFF" x="415.71000000000004"/></svg>