<?xml version="1.0" standalone="no"?>
<!DOCTYPE svg PUBLIC "-//W3C//DTD SVG 20010904//EN"
 "http://www.w3.org/TR/2001/REC-SVG-20010904/DTD/svg10.dtd">
<svg version="1.0" xmlns="http://www.w3.org/2000/svg"
 width="406.000000pt" height="306.000000pt" viewBox="0 0 406.000000 306.000000"
 preserveAspectRatio="xMidYMid meet">

<g transform="translate(0.000000,306.000000) scale(0.100000,-0.100000)"
fill="#000000" stroke="none">
<path d="M0 1530 l0 -1530 2030 0 2030 0 0 1530 0 1530 -2030 0 -2030 0 0
-1530z m437 -167 c-2 -27 -3 -5 -3 47 0 52 1 74 3 48 2 -27 2 -69 0 -95z m104
97 c9 -31 9 -49 0 -80 -6 -22 -16 -40 -22 -40 -6 0 -6 7 1 19 5 11 10 38 10
61 0 23 -5 50 -10 61 -7 12 -7 19 -1 19 6 0 16 -18 22 -40z m402 -137 c-13 -2
-33 -2 -45 0 -13 2 -3 4 22 4 25 0 35 -2 23 -4z m1900 0 c-13 -2 -33 -2 -45 0
-13 2 -3 4 22 4 25 0 35 -2 23 -4z m-1973 -331 l0 -69 -31 -1 c-23 0 -33 5
-41 24 -16 34 5 78 32 71 16 -4 20 0 20 19 0 13 5 24 10 24 6 0 10 -29 10 -68z
m1500 0 l0 -69 -31 -1 c-23 0 -33 5 -41 24 -16 34 5 78 32 71 16 -4 20 0 20
19 0 13 5 24 10 24 6 0 10 -29 10 -68z m-1704 46 c5 -8 2 -9 -11 -5 -25 10
-45 -10 -45 -48 0 -38 20 -58 45 -48 13 4 16 3 11 -5 -10 -17 -41 -15 -57 4
-17 20 -17 78 0 98 16 19 47 21 57 4z m954 -30 c0 -18 21 -6 32 17 6 14 15 25
20 25 5 0 0 -15 -11 -34 -12 -18 -22 -49 -22 -67 l-1 -34 -7 36 c-4 19 -15 46
-24 59 -21 30 -22 53 -2 26 8 -11 15 -23 15 -28z m235 9 c18 -4 18 -5 -2 -6
-19 -1 -23 -7 -23 -36 0 -27 5 -38 23 -45 22 -10 22 -10 -3 -7 -22 2 -25 7
-28 45 -2 31 -8 42 -20 43 -15 1 -15 2 1 6 9 2 17 10 17 16 0 9 2 9 8 1 4 -7
16 -14 27 -17z m-1481 -37 c5 -5 -8 -16 -29 -24 -52 -22 -68 -19 -25 4 l35 19
-32 11 c-18 7 -33 16 -33 20 0 9 69 -16 84 -30z m100 0 c5 -5 -8 -16 -29 -24
-52 -22 -68 -19 -25 4 l35 19 -32 11 c-18 7 -33 16 -33 20 0 9 69 -16 84 -30z
m284 28 c7 -7 12 -24 12 -38 0 -51 -52 -69 -72 -25 -22 49 25 98 60 63z m196
6 c9 -3 16 -15 16 -25 0 -14 -7 -19 -30 -19 -19 0 -30 -5 -30 -14 0 -17 25
-27 47 -19 11 4 14 3 9 -5 -18 -29 -76 0 -76 38 0 19 25 50 40 50 5 0 15 -3
24 -6z m103 -6 c15 -12 18 -88 3 -88 -5 0 -10 20 -10 45 0 33 -4 45 -15 45
-14 0 -19 -14 -28 -70 -3 -14 -5 -2 -6 25 -1 46 1 51 21 52 12 1 28 -3 35 -9z
m101 0 c7 -7 12 -28 12 -47 0 -33 -3 -36 -29 -38 -37 -3 -59 20 -41 42 7 8 21
15 32 15 11 0 18 5 15 13 -2 6 -14 11 -26 10 -13 -2 -20 1 -16 7 8 14 38 13
53 -2z m116 -11 c9 -35 7 -77 -4 -77 -5 0 -10 21 -10 46 0 57 -19 49 -22 -9
l-1 -42 -6 45 c-3 25 -10 45 -16 45 -5 0 -13 -20 -16 -45 l-6 -45 -1 50 -2 50
39 2 c32 1 40 -2 45 -20z m80 17 c9 -3 16 -15 16 -25 0 -14 -7 -19 -30 -19
-19 0 -30 -5 -30 -14 0 -17 25 -27 47 -19 11 4 14 3 9 -5 -18 -29 -76 0 -76
38 0 19 25 50 40 50 5 0 15 -3 24 -6z m367 -78 c14 -15 31 7 39 51 8 38 8 38
9 -12 l1 -51 -32 1 c-33 0 -33 1 -34 50 -1 41 0 43 3 10 2 -22 9 -44 14 -49z
m219 40 c0 -34 4 -46 18 -49 9 -3 -1 -5 -23 -5 -22 0 -32 2 -22 5 12 3 17 15
17 43 0 28 -5 40 -17 43 -14 4 -12 5 5 6 20 1 22 -4 22 -43z m112 30 l22 19
-18 -28 c-16 -26 -16 -30 -2 -46 9 -10 16 -22 16 -27 -1 -5 -9 1 -20 14 l-19
23 -13 -20 c-7 -12 -16 -21 -21 -21 -4 0 0 12 10 26 13 21 14 30 5 45 -17 27
-14 38 3 15 14 -19 15 -19 37 0z m112 6 c3 -5 -4 -8 -16 -8 -11 1 -25 -7 -32
-16 -15 -24 4 -53 33 -52 15 0 18 -3 12 -9 -7 -7 -19 -7 -36 1 -44 20 -28 90
22 92 6 0 14 -4 17 -8z m94 -4 c26 -26 8 -88 -24 -88 -19 0 -44 29 -44 50 0
21 25 50 44 50 6 0 17 -5 24 -12z m200 0 c22 -22 13 -38 -19 -38 -24 0 -30 -4
-27 -17 2 -12 13 -18 30 -18 15 1 24 -3 22 -7 -16 -26 -74 7 -74 42 0 21 25
50 44 50 6 0 17 -5 24 -12z m-1018 -14 c0 -8 -4 -12 -10 -9 -5 3 -10 10 -10
16 0 5 5 9 10 9 6 0 10 -7 10 -16z m-4 -71 c-10 -10 -19 5 -10 18 6 11 8 11
12 0 2 -7 1 -15 -2 -18z m-178 -20 c-126 -2 -330 -2 -455 0 -126 1 -23 2 227
2 250 0 353 -1 228 -2z m1000 0 c-126 -2 -330 -2 -455 0 -126 1 -23 2 227 2
250 0 353 -1 228 -2z m-1718 -349 c0 -8 -4 -12 -10 -9 -5 3 -10 10 -10 16 0 5
5 9 10 9 6 0 10 -7 10 -16z m-4 -71 c-10 -10 -19 5 -10 18 6 11 8 11 12 0 2
-7 1 -15 -2 -18z m244 -163 l0 -110 -50 0 -50 0 0 110 0 110 50 0 50 0 0 -110z
m-240 14 c0 -8 -4 -12 -10 -9 -5 3 -10 10 -10 16 0 5 5 9 10 9 6 0 10 -7 10
-16z m-4 -71 c-10 -10 -19 5 -10 18 6 11 8 11 12 0 2 -7 1 -15 -2 -18z"/>
<path d="M814 997 c-9 -25 0 -62 16 -62 10 0 15 10 15 34 0 36 -21 54 -31 28z"/>
<path d="M2314 997 c-9 -25 0 -62 16 -62 10 0 15 10 15 34 0 36 -21 54 -31 28z"/>
<path d="M723 1003 c-16 -6 -17 -59 -3 -68 15 -9 40 13 40 35 0 21 -20 39 -37
33z"/>
<path d="M923 1003 c-22 -8 -14 -23 12 -23 14 0 25 4 25 9 0 11 -21 19 -37 14z"/>
<path d="M1114 959 c-3 -6 -2 -15 4 -21 13 -13 32 -2 32 18 0 16 -26 19 -36 3z"/>
<path d="M1317 1004 c-14 -14 -6 -24 19 -24 16 0 24 5 22 13 -5 14 -31 21 -41
11z"/>
<path d="M2214 997 c-9 -25 0 -62 15 -62 22 0 38 32 25 52 -14 23 -33 28 -40
10z"/>
<path d="M2417 1004 c-14 -14 -6 -24 19 -24 16 0 24 5 22 13 -5 14 -31 21 -41
11z"/>
</g>
</svg>
