<?xml version="1.0" standalone="no"?>
<!DOCTYPE svg PUBLIC "-//W3C//DTD SVG 20010904//EN"
 "http://www.w3.org/TR/2001/REC-SVG-20010904/DTD/svg10.dtd">
<svg version="1.0" xmlns="http://www.w3.org/2000/svg"
 width="458.000000pt" height="49.000000pt" viewBox="0 0 458.000000 49.000000"
 preserveAspectRatio="xMidYMid meet">

<g transform="translate(0.000000,49.000000) scale(0.100000,-0.100000)"
fill="#000000" stroke="none">
<path d="M0 245 l0 -245 2290 0 2290 0 0 245 0 245 -1363 0 c-1351 0 -1362 0
-1375 -20 -7 -11 -20 -20 -30 -19 -13 0 -12 2 6 9 12 5 22 14 22 20 0 7 -294
10 -920 10 l-920 0 0 -245z m750 65 c0 -54 3 -62 23 -70 13 -5 16 -9 7 -9 -28
-1 -40 22 -40 75 0 33 -5 54 -12 57 -8 3 -6 6 5 6 14 1 17 -8 17 -59z m800 0
c0 -54 3 -62 23 -70 13 -5 16 -9 7 -9 -28 -1 -40 22 -40 75 0 33 -5 54 -12 57
-8 3 -6 6 5 6 14 1 17 -8 17 -59z m740 -8 l0 -69 -31 -1 c-23 0 -33 5 -41 24
-16 34 5 78 32 71 16 -4 20 0 20 19 0 13 5 24 10 24 6 0 10 -29 10 -68z m141
-3 c0 -34 -3 -64 -6 -67 -3 -3 -5 28 -5 68 0 40 3 71 6 67 3 -3 6 -34 5 -68z
m133 63 c2 -4 -4 -8 -14 -8 -10 0 -16 4 -14 8 3 4 9 8 14 8 5 0 11 -4 14 -8z
m426 -60 l0 -69 -31 -1 c-23 0 -33 5 -41 24 -16 34 5 78 32 71 16 -4 20 0 20
19 0 13 5 24 10 24 6 0 10 -29 10 -68z m260 8 c0 -54 3 -62 23 -70 13 -5 16
-9 7 -9 -28 -1 -40 22 -40 75 0 33 -5 54 -12 57 -8 3 -6 6 5 6 14 1 17 -8 17
-59z m496 17 c21 8 44 -16 44 -47 0 -33 -17 -50 -48 -47 -21 1 -22 6 -21 72 1
38 4 58 6 43 3 -19 9 -25 19 -21z m104 -17 c0 -54 3 -62 23 -70 13 -5 16 -9 7
-9 -28 -1 -40 22 -40 75 0 33 -5 54 -12 57 -8 3 -6 6 5 6 14 1 17 -8 17 -59z
m-3787 43 c-25 -3 -33 -9 -33 -24 0 -14 8 -19 33 -21 l32 -1 -32 -4 c-29 -4
-33 -8 -33 -33 0 -25 4 -29 33 -33 31 -4 31 -4 -5 -5 l-38 -2 0 65 0 65 38 -2
c36 -1 36 -1 5 -5z m794 -30 c-3 -10 -5 -4 -5 12 0 17 2 24 5 18 2 -7 2 -21 0
-30z m121 30 c-14 -4 -18 -15 -18 -58 0 -43 4 -54 18 -58 9 -3 -1 -5 -23 -6
-32 0 -36 2 -22 10 12 7 17 23 17 54 0 31 -5 47 -17 54 -14 8 -10 10 22 10 22
-1 32 -3 23 -6z m100 -2 c8 -4 12 -19 10 -32 -2 -18 -10 -25 -30 -27 -22 -3
-28 -9 -31 -35 -2 -18 -5 -2 -5 36 -2 63 -1 67 21 67 12 0 28 -4 35 -9z m1279
-28 c-3 -10 -5 -4 -5 12 0 17 2 24 5 18 2 -7 2 -21 0 -30z m-2082 4 c18 -4 18
-5 -2 -6 -19 -1 -23 -7 -23 -36 0 -27 5 -38 23 -45 22 -10 22 -10 -3 -7 -22 2
-25 7 -28 45 -2 31 -8 42 -20 43 -15 1 -15 2 1 6 9 2 17 10 17 16 0 9 2 9 8 1
4 -7 16 -14 27 -17z m2400 0 c18 -4 18 -5 -2 -6 -19 -1 -23 -7 -23 -36 0 -27
5 -38 23 -45 22 -10 22 -10 -3 -7 -22 2 -25 7 -28 45 -2 31 -8 42 -20 43 -15
1 -15 2 1 6 9 2 17 10 17 16 0 9 2 9 8 1 4 -7 16 -14 27 -17z m-2544 -50 c-4
-61 -11 -59 -11 3 0 29 3 50 7 46 4 -4 6 -26 4 -49z m47 41 c7 -7 11 -30 11
-52 l-2 -41 -7 43 c-3 24 -13 48 -21 53 -8 5 -9 9 -3 9 5 0 15 -5 22 -12z
m195 2 c-15 -6 -25 -22 -31 -52 l-10 -43 -1 50 c-1 50 -1 50 32 52 27 1 29 0
10 -7z m105 -2 c22 -22 13 -38 -19 -38 -24 0 -30 -4 -27 -17 2 -12 13 -18 30
-18 15 1 24 -3 22 -7 -16 -26 -74 7 -74 42 0 21 25 50 44 50 6 0 17 -5 24 -12z
m112 6 c0 -3 -11 -20 -25 -38 -31 -41 -31 -44 3 -49 22 -3 20 -4 -10 -6 -21 0
-38 3 -38 7 0 4 11 24 25 43 l26 34 -28 6 c-26 6 -25 7 10 8 20 0 37 -2 37 -5z
m688 -6 c26 -26 8 -88 -24 -88 -19 0 -44 29 -44 50 0 21 25 50 44 50 6 0 17
-5 24 -12z m63 -73 c14 -14 31 8 39 52 8 38 8 38 9 -12 l1 -51 -32 1 c-33 0
-33 1 -34 50 -1 41 0 43 3 10 2 -22 9 -44 14 -50z m337 73 c22 -22 13 -38 -19
-38 -24 0 -30 -4 -27 -17 2 -12 13 -18 30 -18 15 1 24 -3 22 -7 -16 -26 -74 7
-74 42 0 21 25 50 44 50 6 0 17 -5 24 -12z m153 -41 c-4 -61 -11 -59 -11 3 0
29 3 50 7 46 4 -4 6 -26 4 -49z m47 41 c7 -7 11 -30 11 -52 l-2 -41 -7 43 c-3
24 -13 48 -21 53 -8 5 -9 9 -3 9 5 0 15 -5 22 -12z m100 0 c26 -26 8 -88 -24
-88 -19 0 -44 29 -44 50 0 21 25 50 44 50 6 0 17 -5 24 -12z m78 -43 l2 -50
-7 45 c-3 25 -10 45 -16 45 -5 0 -13 -20 -16 -45 l-6 -45 -1 51 c-2 47 0 51
21 50 19 -1 22 -7 23 -51z m32 -6 l-3 -44 -5 52 c-3 29 -1 48 3 44 5 -5 7 -28
5 -52z m390 49 c7 -7 11 -30 11 -52 l-1 -41 -7 37 c-4 20 -13 44 -21 52 -15
19 0 22 18 4z m100 0 c26 -26 8 -88 -24 -88 -19 0 -44 29 -44 50 0 21 25 50
44 50 6 0 17 -5 24 -12z m200 0 c22 -22 13 -38 -19 -38 -24 0 -30 -4 -27 -17
2 -12 13 -18 30 -18 15 1 24 -3 22 -7 -16 -26 -74 7 -74 42 0 21 25 50 44 50
6 0 17 -5 24 -12z m300 0 c22 -22 13 -38 -19 -38 -24 0 -30 -4 -27 -17 2 -12
13 -18 30 -18 15 1 24 -3 22 -7 -16 -26 -74 7 -74 42 0 21 25 50 44 50 6 0 17
-5 24 -12z m300 0 c7 -7 12 -28 12 -47 0 -33 -3 -36 -29 -38 -37 -3 -59 20
-41 42 7 8 24 15 37 15 22 0 24 2 12 16 -7 8 -21 13 -31 11 -10 -3 -16 -1 -12
4 8 13 38 11 52 -3z m206 4 c3 -5 -4 -8 -16 -8 -11 1 -25 -7 -32 -16 -15 -24
4 -53 33 -52 15 0 18 -3 12 -9 -7 -7 -19 -7 -36 1 -44 20 -28 90 22 92 6 0 14
-4 17 -8z m76 -36 c0 -34 4 -46 18 -49 9 -3 -1 -5 -23 -5 -22 0 -32 2 -22 5
12 3 17 15 17 43 0 28 -5 40 -17 43 -14 4 -12 5 5 6 20 1 22 -4 22 -43z m318
32 c22 -22 13 -38 -19 -38 -24 0 -30 -4 -27 -17 2 -12 13 -18 30 -18 15 1 24
-3 22 -7 -16 -26 -74 7 -74 42 0 21 25 50 44 50 6 0 17 -5 24 -12z m282 -8 c0
-5 -4 -10 -10 -10 -5 0 -10 5 -10 10 0 6 5 10 10 10 6 0 10 -4 10 -10z m0 -70
c0 -5 -4 -10 -10 -10 -5 0 -10 5 -10 10 0 6 5 10 10 10 6 0 10 -4 10 -10z"/>
<path d="M2234 307 c-9 -25 0 -62 16 -62 10 0 15 10 15 34 0 36 -21 54 -31 28z"/>
<path d="M2934 307 c-9 -25 0 -62 16 -62 10 0 15 10 15 34 0 36 -21 54 -31 28z"/>
<path d="M3735 300 c-8 -26 3 -60 20 -60 8 0 17 9 20 20 8 26 -3 60 -20 60 -8
0 -17 -9 -20 -20z"/>
<path d="M1030 325 c0 -22 4 -26 23 -23 14 2 22 10 22 23 0 13 -8 21 -22 23
-19 3 -23 -1 -23 -23z"/>
<path d="M437 314 c-14 -14 -6 -24 19 -24 16 0 24 5 22 13 -5 14 -31 21 -41
11z"/>
<path d="M1234 307 c-9 -25 0 -62 15 -62 22 0 38 32 25 52 -14 23 -33 28 -40
10z"/>
<path d="M1637 314 c-14 -14 -6 -24 19 -24 16 0 24 5 22 13 -5 14 -31 21 -41
11z"/>
<path d="M1934 307 c-9 -25 0 -62 15 -62 22 0 38 32 25 52 -14 23 -33 28 -40
10z"/>
<path d="M2534 307 c-9 -25 0 -62 15 -62 22 0 38 32 25 52 -14 23 -33 28 -40
10z"/>
<path d="M2737 314 c-14 -14 -6 -24 19 -24 16 0 24 5 22 13 -5 14 -31 21 -41
11z"/>
<path d="M3037 314 c-14 -14 -6 -24 19 -24 16 0 24 5 22 13 -5 14 -31 21 -41
11z"/>
<path d="M3330 259 c0 -14 5 -19 17 -17 26 5 29 38 4 38 -15 0 -21 -6 -21 -21z"/>
<path d="M3937 314 c-14 -14 -6 -24 19 -24 16 0 24 5 22 13 -5 14 -31 21 -41
11z"/>
</g>
</svg>
