<svg xmlns="http://www.w3.org/2000/svg" width="176.43" height="35" viewBox="0 0 176.43 35"><rect class="svg__rect" x="0" y="0" width="65.05000000000001" height="35" fill="#3BC4F3"/><rect class="svg__rect" x="63.050000000000004" y="0" width="113.38" height="35" fill="#A7BFC1"/><path class="svg__text" d="M19.57 22L14.22 22L14.22 13.47L15.70 13.47L15.70 20.82L19.57 20.82L19.57 22ZM24.48 22L22.94 22L26.16 13.47L27.49 13.47L30.72 22L29.17 22L28.47 20.01L25.17 20.01L24.48 22ZM26.82 15.28L25.58 18.82L28.06 18.82L26.82 15.28ZM40.63 22L34.27 22L34.27 21.04L38.69 14.66L34.30 14.66L34.30 13.47L40.48 13.47L40.48 14.41L36.07 20.82L40.63 20.82L40.63 22ZM46.92 18.86L44.06 13.47L45.71 13.47L47.67 17.51L49.63 13.47L51.27 13.47L48.41 18.86L48.41 22L46.92 22L46.92 18.86Z" fill="#FFFFFF"/><path class="svg__text" d="M76.65 21.24L76.65 21.24L77.43 19.49Q77.99 19.86 78.74 20.09Q79.48 20.32 80.20 20.32L80.20 20.32Q81.57 20.32 81.57 19.64L81.57 19.64Q81.57 19.28 81.18 19.11Q80.79 18.93 79.93 18.74L79.93 18.74Q78.98 18.53 78.34 18.30Q77.71 18.06 77.25 17.55Q76.80 17.03 76.80 16.16L76.80 16.16Q76.80 15.39 77.22 14.77Q77.64 14.15 78.47 13.79Q79.31 13.43 80.51 13.43L80.51 13.43Q81.34 13.43 82.15 13.62Q82.95 13.80 83.57 14.17L83.57 14.17L82.83 15.93Q81.63 15.28 80.50 15.28L80.50 15.28Q79.79 15.28 79.47 15.49Q79.15 15.70 79.15 16.04L79.15 16.04Q79.15 16.37 79.53 16.54Q79.92 16.71 80.77 16.89L80.77 16.89Q81.73 17.10 82.36 17.33Q82.99 17.56 83.45 18.07Q83.91 18.58 83.91 19.46L83.91 19.46Q83.91 20.21 83.49 20.83Q83.07 21.44 82.23 21.80Q81.39 22.17 80.19 22.17L80.19 22.17Q79.17 22.17 78.21 21.92Q77.25 21.67 76.65 21.24ZM95.23 22L88.49 22L88.49 13.60L95.08 13.60L95.08 15.44L90.84 15.44L90.84 16.85L94.58 16.85L94.58 18.63L90.84 18.63L90.84 20.17L95.23 20.17L95.23 22ZM99.61 17.80L99.61 17.80Q99.61 16.54 100.21 15.54Q100.80 14.55 101.86 13.99Q102.91 13.43 104.23 13.43L104.23 13.43Q105.38 13.43 106.30 13.84Q107.23 14.25 107.84 15.02L107.84 15.02L106.33 16.39Q105.52 15.40 104.35 15.40L104.35 15.40Q103.66 15.40 103.13 15.70Q102.60 16 102.30 16.54Q102.01 17.09 102.01 17.80L102.01 17.80Q102.01 18.51 102.30 19.05Q102.60 19.60 103.13 19.90Q103.66 20.20 104.35 20.20L104.35 20.20Q105.52 20.20 106.33 19.22L106.33 19.22L107.84 20.58Q107.23 21.35 106.31 21.76Q105.38 22.17 104.23 22.17L104.23 22.17Q102.91 22.17 101.86 21.61Q100.80 21.05 100.21 20.05Q99.61 19.06 99.61 17.80ZM112.31 18.26L112.31 18.26L112.31 13.60L114.69 13.60L114.69 18.19Q114.69 20.20 116.28 20.20L116.28 20.20Q117.86 20.20 117.86 18.19L117.86 18.19L117.86 13.60L120.20 13.60L120.20 18.26Q120.20 20.13 119.16 21.15Q118.12 22.17 116.26 22.17L116.26 22.17Q114.38 22.17 113.34 21.15Q112.31 20.13 112.31 18.26ZM127.67 22L125.29 22L125.29 13.60L129.13 13.60Q130.28 13.60 131.11 13.98Q131.95 14.35 132.41 15.06Q132.87 15.76 132.87 16.71L132.87 16.71Q132.87 17.62 132.44 18.30Q132.01 18.98 131.22 19.36L131.22 19.36L133.03 22L130.49 22L128.96 19.77L127.67 19.77L127.67 22ZM127.67 15.47L127.67 17.93L128.99 17.93Q129.72 17.93 130.09 17.61Q130.46 17.29 130.46 16.71L130.46 16.71Q130.46 16.12 130.09 15.79Q129.72 15.47 128.99 15.47L128.99 15.47L127.67 15.47ZM140.03 22L137.65 22L137.65 13.60L140.03 13.60L140.03 22ZM147.00 15.48L144.42 15.48L144.42 13.60L151.94 13.60L151.94 15.48L149.37 15.48L149.37 22L147.00 22L147.00 15.48ZM158.44 18.95L155.23 13.60L157.74 13.60L159.73 16.94L161.72 13.60L164.03 13.60L160.81 18.99L160.81 22L158.44 22L158.44 18.95Z" fill="#FFFFFF" x="76.05000000000001"/></svg>