<svg xmlns="http://www.w3.org/2000/svg" width="141.79000000000002" height="35" viewBox="0 0 141.79000000000002 35"><rect class="svg__rect" x="0" y="0" width="65.05000000000001" height="35" fill="#EA4560"/><rect class="svg__rect" x="63.050000000000004" y="0" width="78.74000000000001" height="35" fill="#000000"/><path class="svg__text" d="M19.57 22L14.22 22L14.22 13.47L15.70 13.47L15.70 20.82L19.57 20.82L19.57 22ZM24.48 22L22.94 22L26.16 13.47L27.49 13.47L30.72 22L29.17 22L28.47 20.01L25.17 20.01L24.48 22ZM26.82 15.28L25.58 18.82L28.06 18.82L26.82 15.28ZM40.63 22L34.27 22L34.27 21.04L38.69 14.66L34.30 14.66L34.30 13.47L40.48 13.47L40.48 14.41L36.07 20.82L40.63 20.82L40.63 22ZM46.92 18.86L44.06 13.47L45.71 13.47L47.67 17.51L49.63 13.47L51.27 13.47L48.41 18.86L48.41 22L46.92 22L46.92 18.86Z" fill="#FFFFFF"/><path class="svg__text" d="M79.32 22L76.59 13.60L79.04 13.60L80.73 18.96L82.51 13.60L84.69 13.60L86.38 19.01L88.15 13.60L90.42 13.60L87.69 22L85.15 22L83.54 16.89L81.86 22L79.32 22ZM94.50 17.80L94.50 17.80Q94.50 16.55 95.10 15.55Q95.71 14.56 96.77 14.00Q97.83 13.43 99.16 13.43L99.16 13.43Q100.49 13.43 101.56 14.00Q102.62 14.56 103.23 15.55Q103.83 16.55 103.83 17.80L103.83 17.80Q103.83 19.05 103.23 20.04Q102.62 21.04 101.56 21.60Q100.50 22.17 99.16 22.17L99.16 22.17Q97.83 22.17 96.77 21.60Q95.71 21.04 95.10 20.04Q94.50 19.05 94.50 17.80ZM96.90 17.80L96.90 17.80Q96.90 18.51 97.20 19.05Q97.50 19.60 98.02 19.90Q98.53 20.20 99.16 20.20L99.16 20.20Q99.80 20.20 100.32 19.90Q100.83 19.60 101.13 19.05Q101.43 18.51 101.43 17.80L101.43 17.80Q101.43 17.09 101.13 16.54Q100.83 16 100.32 15.70Q99.80 15.40 99.16 15.40L99.16 15.40Q98.53 15.40 98.01 15.70Q97.50 16 97.20 16.54Q96.90 17.09 96.90 17.80ZM110.94 22L108.56 22L108.56 13.60L112.41 13.60Q113.55 13.60 114.39 13.98Q115.22 14.35 115.68 15.06Q116.14 15.76 116.14 16.71L116.14 16.71Q116.14 17.62 115.71 18.30Q115.28 18.98 114.49 19.36L114.49 19.36L116.30 22L113.76 22L112.24 19.77L110.94 19.77L110.94 22ZM110.94 15.47L110.94 17.93L112.26 17.93Q112.99 17.93 113.36 17.61Q113.74 17.29 113.74 16.71L113.74 16.71Q113.74 16.12 113.36 15.79Q112.99 15.47 112.26 15.47L112.26 15.47L110.94 15.47ZM123.28 22L120.93 22L120.93 13.60L123.28 13.60L123.28 17.09L126.53 13.60L129.15 13.60L125.72 17.32L129.33 22L126.57 22L124.17 18.95L123.28 19.90L123.28 22Z" fill="#FFFFFF" x="76.05000000000001"/></svg>