<?xml version="1.0" standalone="no"?>
<!DOCTYPE svg PUBLIC "-//W3C//DTD SVG 20010904//EN"
 "http://www.w3.org/TR/2001/REC-SVG-20010904/DTD/svg10.dtd">
<svg version="1.0" xmlns="http://www.w3.org/2000/svg"
 width="467.000000pt" height="231.000000pt" viewBox="0 0 467.000000 231.000000"
 preserveAspectRatio="xMidYMid meet">

<g transform="translate(0.000000,231.000000) scale(0.100000,-0.100000)"
fill="#000000" stroke="none">
<path d="M0 1155 l0 -1155 2335 0 2335 0 0 1155 0 1155 -2335 0 -2335 0 0
-1155z m2560 1065 c0 -54 3 -62 23 -70 13 -5 16 -9 7 -9 -28 -1 -40 22 -40 75
0 33 -5 54 -12 57 -8 3 -6 6 5 6 14 1 17 -8 17 -59z m-1310 18 l13 -33 10 33
c16 53 32 39 31 -28 -2 -76 -14 -92 -15 -19 0 48 -2 51 -11 27 -5 -16 -13 -28
-18 -28 -4 0 -12 12 -16 28 -7 24 -9 21 -14 -28 l-7 -55 -1 68 c-2 73 9 86 28
35z m538 23 c8 -4 12 -19 10 -32 -2 -18 -10 -25 -30 -27 -22 -3 -28 -9 -31
-35 -2 -18 -5 -2 -5 36 -2 63 -1 67 21 67 12 0 28 -4 35 -9z m-400 -33 c22
-22 13 -38 -19 -38 -24 0 -30 -4 -27 -17 2 -12 13 -18 30 -18 15 1 24 -3 22
-7 -16 -26 -74 7 -74 42 0 21 25 50 44 50 6 0 17 -5 24 -12z m53 -41 c-4 -61
-11 -59 -11 3 0 29 3 50 7 46 4 -4 6 -26 4 -49z m47 41 c7 -7 12 -30 12 -52 0
-48 -11 -41 -15 9 -1 21 -8 41 -16 46 -8 5 -9 9 -3 9 5 0 15 -5 22 -12z m63
-72 c13 -15 29 6 36 45 8 51 13 48 13 -7 0 -49 0 -50 -32 -49 -33 0 -33 1 -34
50 -1 41 0 43 3 10 2 -22 9 -44 14 -49z m332 74 c-12 -5 -25 -19 -27 -32 -3
-13 -7 -32 -9 -43 -3 -11 -5 3 -6 30 -1 50 -1 50 32 52 28 1 29 0 10 -7z m87
-34 c0 -34 4 -46 18 -49 9 -3 -1 -5 -23 -5 -22 0 -32 2 -22 5 12 3 17 15 17
43 0 28 -5 40 -17 43 -14 4 -12 5 5 6 20 1 22 -4 22 -43z m71 -9 c-4 -61 -11
-59 -11 3 0 29 3 50 7 46 4 -4 6 -26 4 -49z m47 41 c13 -13 17 -88 4 -88 -5 0
-9 19 -9 41 0 23 -7 45 -14 50 -8 5 -9 9 -3 9 5 0 15 -5 22 -12z m106 4 c3 -5
-4 -8 -16 -8 -11 1 -25 -7 -32 -16 -15 -24 4 -53 33 -52 15 0 18 -3 12 -9 -7
-7 -19 -7 -36 1 -42 20 -30 92 16 92 10 0 20 -4 23 -8z m76 -36 c0 -34 4 -46
18 -49 9 -3 -1 -5 -23 -5 -22 0 -32 2 -22 5 12 3 17 15 17 43 0 28 -5 40 -17
43 -14 4 -12 5 5 6 20 1 22 -4 22 -43z m117 32 c31 -25 4 -98 -31 -85 -10 4
-16 -2 -19 -21 -2 -15 -5 5 -6 43 -1 66 0 71 21 72 12 1 28 -3 35 -9z m101 0
c7 -7 12 -28 12 -47 0 -33 -3 -36 -29 -38 -37 -3 -59 20 -41 42 7 8 21 15 32
15 11 0 18 5 15 13 -2 6 -13 12 -25 11 -12 0 -19 3 -16 8 8 12 38 10 52 -4z
m-2415 -45 c-7 -2 -19 -2 -25 0 -7 3 -2 5 12 5 14 0 19 -2 13 -5z m200 0 c-7
-2 -19 -2 -25 0 -7 3 -2 5 12 5 14 0 19 -2 13 -5z m200 0 c-7 -2 -19 -2 -25 0
-7 3 -2 5 12 5 14 0 19 -2 13 -5z m200 0 c-7 -2 -19 -2 -25 0 -7 3 -2 5 12 5
14 0 19 -2 13 -5z m200 0 c-7 -2 -19 -2 -25 0 -7 3 -2 5 12 5 14 0 19 -2 13
-5z m200 0 c-7 -2 -19 -2 -25 0 -7 3 -2 5 12 5 14 0 19 -2 13 -5z m1700 0 c-7
-2 -19 -2 -25 0 -7 3 -2 5 12 5 14 0 19 -2 13 -5z m200 0 c-7 -2 -19 -2 -25 0
-7 3 -2 5 12 5 14 0 19 -2 13 -5z m200 0 c-7 -2 -19 -2 -25 0 -7 3 -2 5 12 5
14 0 19 -2 13 -5z m200 0 c-7 -2 -19 -2 -25 0 -7 3 -2 5 12 5 14 0 19 -2 13
-5z m200 0 c-7 -2 -19 -2 -25 0 -7 3 -2 5 12 5 14 0 19 -2 13 -5z m200 0 c-7
-2 -19 -2 -25 0 -7 3 -2 5 12 5 14 0 19 -2 13 -5z m-2893 -632 c0 -38 4 -61
13 -64 6 -3 -6 -6 -28 -6 -32 0 -36 2 -22 10 23 14 25 99 1 99 -8 0 -12 5 -9
10 3 6 15 10 26 10 17 0 19 -7 19 -59z m308 47 c15 -15 15 -45 0 -50 -8 -3 -7
-11 5 -28 18 -26 22 -40 9 -40 -4 0 -13 14 -19 30 -6 17 -18 30 -27 30 -11 0
-16 -9 -16 -30 0 -16 -4 -30 -10 -30 -6 0 -10 28 -10 65 0 65 0 65 28 65 15 0
33 -5 40 -12z m87 3 c-17 -3 -31 -14 -33 -24 -3 -13 4 -17 30 -18 l33 -1 -30
-7 c-23 -5 -30 -12 -30 -30 0 -18 6 -25 24 -28 39 -6 38 -13 -2 -13 l-37 0 0
65 0 65 38 -1 c36 -1 36 -2 7 -8z m110 -32 c20 -58 26 -89 16 -89 -5 0 -11 9
-14 20 -7 27 -44 26 -52 -1 -4 -11 -9 -18 -13 -15 -9 9 30 127 41 123 6 -2 16
-19 22 -38z m96 31 c14 -8 19 -21 19 -55 0 -47 -16 -65 -59 -65 -19 0 -21 6
-21 65 0 59 2 65 21 65 11 0 29 -5 40 -10z m72 -22 l14 -33 7 33 c4 17 14 32
22 32 11 0 14 -16 14 -65 0 -37 -4 -65 -10 -65 -5 0 -10 21 -11 48 0 41 -2 44
-11 25 -15 -30 -24 -29 -34 5 -7 24 -9 21 -14 -28 l-7 -55 -1 68 c-2 73 10 87
31 35z m122 23 c-17 -3 -31 -14 -33 -24 -3 -13 4 -17 30 -18 l33 -1 -30 -7
c-24 -5 -30 -12 -30 -31 0 -19 6 -26 30 -31 29 -6 29 -7 -7 -8 l-38 -1 0 65 0
65 38 -1 c36 -1 36 -2 7 -8z m-705 -106 c0 -8 -4 -15 -10 -15 -5 0 -10 7 -10
15 0 8 5 15 10 15 6 0 10 -7 10 -15z m1230 -163 l0 -69 -31 -1 c-23 0 -33 5
-41 24 -16 34 5 78 32 71 16 -4 20 0 20 19 0 13 5 24 10 24 6 0 10 -29 10 -68z
m460 16 c0 -56 6 -71 30 -81 9 -4 4 -6 -10 -4 -23 2 -25 6 -28 64 -2 48 -7 63
-20 66 -12 3 -11 5 6 6 20 1 22 -3 22 -51z m510 7 c22 0 25 -5 28 -42 2 -24 0
-44 -5 -45 -4 0 -20 -2 -35 -3 l-28 -2 1 71 c1 42 4 61 8 46 4 -18 13 -25 31
-25z m190 -7 c0 -56 6 -71 30 -81 9 -4 4 -6 -10 -4 -23 2 -25 6 -28 64 -2 48
-7 63 -20 66 -12 3 -11 5 6 6 20 1 22 -3 22 -51z m-2472 30 c18 -18 15 -33
-13 -66 -31 -37 -31 -40 3 -45 19 -3 14 -4 -15 -6 -24 0 -43 3 -43 7 0 5 14
21 30 37 46 44 40 71 -14 65 -11 -1 -15 3 -12 9 9 15 49 14 64 -1z m293 2 c14
-8 19 -21 19 -55 0 -47 -16 -65 -59 -65 -19 0 -21 6 -21 65 0 59 2 65 21 65
11 0 29 -5 40 -10z m204 -23 c18 -4 18 -5 -2 -6 -19 -1 -23 -7 -23 -36 0 -27
5 -38 23 -45 22 -10 22 -10 -3 -7 -22 2 -25 7 -28 45 -2 31 -8 42 -20 43 -15
1 -15 2 1 6 9 2 17 10 17 16 0 9 2 9 8 1 4 -7 16 -14 27 -17z m300 0 c18 -4
18 -5 -2 -6 -19 -1 -23 -7 -23 -36 0 -27 5 -38 23 -45 22 -10 22 -10 -3 -7
-22 2 -25 7 -28 45 -2 31 -8 42 -20 43 -15 1 -15 2 1 6 9 2 17 10 17 16 0 9 2
9 8 1 4 -7 16 -14 27 -17z m1900 0 c18 -4 18 -5 -2 -6 -19 -1 -23 -7 -23 -36
0 -27 5 -38 23 -45 22 -10 22 -10 -3 -7 -22 2 -25 7 -28 45 -2 31 -8 42 -20
43 -15 1 -15 2 1 6 9 2 17 10 17 16 0 9 2 9 8 1 4 -7 16 -14 27 -17z m-2301
-3 c9 -3 16 -15 16 -25 0 -14 -7 -19 -30 -19 -19 0 -30 -5 -30 -14 0 -17 25
-27 47 -19 11 4 14 3 9 -5 -18 -29 -76 0 -76 38 0 19 25 50 40 50 5 0 15 -3
24 -6z m200 0 c9 -3 16 -15 16 -25 0 -14 -7 -19 -30 -19 -19 0 -30 -5 -30 -14
0 -17 25 -27 47 -19 11 4 14 3 9 -5 -18 -29 -76 0 -76 38 0 19 25 50 40 50 5
0 15 -3 24 -6z m112 -6 c5 -8 2 -9 -9 -5 -16 6 -47 -16 -47 -33 0 -17 31 -39
47 -33 11 4 14 3 9 -5 -9 -15 -39 -15 -54 0 -7 7 -12 24 -12 38 0 14 5 31 12
38 15 15 45 15 54 0z m188 6 c9 -3 16 -15 16 -25 0 -14 -7 -19 -30 -19 -19 0
-30 -5 -30 -14 0 -17 25 -27 47 -19 11 4 14 3 9 -5 -18 -29 -76 0 -76 38 0 19
25 50 40 50 5 0 15 -3 24 -6z m69 -76 c19 -11 27 1 27 43 0 21 5 39 10 39 6 0
10 -22 10 -49 0 -49 0 -49 -32 -48 -32 2 -33 3 -34 52 -1 41 0 43 3 10 3 -22
10 -43 16 -47z m157 71 c0 -6 -4 -8 -9 -5 -22 14 -41 -7 -41 -45 0 -21 -4 -39
-10 -39 -5 0 -10 22 -10 48 0 49 0 49 35 50 19 1 35 -3 35 -9z m274 5 c9 -3
16 -15 16 -25 0 -14 -7 -19 -30 -19 -19 0 -30 -5 -30 -14 0 -17 25 -27 47 -19
11 4 14 3 9 -5 -18 -29 -76 0 -76 38 0 19 25 50 40 50 5 0 15 -3 24 -6z m156
-3 c0 -5 5 -22 11 -38 l11 -28 19 40 c15 30 18 33 14 13 -8 -42 -24 -78 -34
-78 -5 0 -16 21 -25 47 -19 55 -19 53 -6 53 6 0 10 -4 10 -9z m112 -68 c17
-20 28 -5 28 38 0 21 5 39 10 39 6 0 10 -22 10 -49 0 -49 0 -49 -32 -48 -32 2
-33 3 -34 52 -1 33 0 38 3 15 3 -19 9 -41 15 -47z m240 65 c11 -19 10 -88 -2
-88 -5 0 -10 20 -10 45 0 33 -4 45 -15 45 -14 0 -19 -14 -28 -70 -3 -14 -5 -2
-6 25 -1 48 0 51 26 53 15 1 30 -4 35 -10z m92 6 c9 -3 16 -15 16 -25 0 -14
-7 -19 -30 -19 -19 0 -30 -5 -30 -14 0 -17 25 -27 47 -19 11 4 14 3 9 -5 -18
-29 -76 0 -76 38 0 19 25 50 40 50 5 0 15 -3 24 -6z m126 -5 c0 -6 -4 -8 -9
-5 -22 14 -41 -7 -41 -45 0 -21 -4 -39 -10 -39 -5 0 -10 22 -10 48 0 49 0 49
35 50 19 1 35 -3 35 -9z m78 -1 c7 -7 12 -28 12 -48 0 -34 -2 -37 -29 -38 -38
-1 -59 22 -41 43 7 8 21 15 32 15 11 0 18 5 15 13 -2 6 -14 11 -26 10 -13 -2
-20 1 -16 7 8 14 38 13 53 -2z m182 -32 c0 -34 4 -46 18 -49 9 -3 -1 -5 -23
-5 -22 0 -32 2 -22 5 12 3 17 15 17 43 0 28 -5 40 -17 43 -14 4 -12 5 5 6 20
1 22 -4 22 -43z m200 0 c0 -34 4 -46 18 -49 9 -3 -1 -5 -23 -5 -22 0 -32 2
-22 5 12 3 17 15 17 43 0 28 -5 40 -17 43 -14 4 -12 5 5 6 20 1 22 -4 22 -43z
m214 38 c9 -3 16 -15 16 -25 0 -14 -7 -19 -30 -19 -19 0 -30 -5 -30 -14 0 -17
25 -27 47 -19 11 4 14 3 9 -5 -18 -29 -76 0 -76 38 0 19 25 50 40 50 5 0 15
-3 24 -6z m-2714 -79 c0 -8 -4 -15 -10 -15 -5 0 -10 7 -10 15 0 8 5 15 10 15
6 0 10 -7 10 -15z m-83 -117 c13 -17 14 -90 1 -105 -12 -15 -54 -17 -63 -3 -4
6 7 10 24 10 24 0 31 4 31 20 0 12 -10 24 -22 30 -17 6 -18 9 -6 9 9 1 20 6
24 12 8 14 -14 29 -33 22 -7 -3 -13 0 -13 6 0 15 45 14 57 -1z m301 0 c7 -7
12 -30 12 -53 0 -44 -13 -65 -42 -65 -21 0 -38 29 -38 65 0 54 37 84 68 53z
m108 1 c3 -6 -1 -10 -12 -9 -53 6 -62 -22 -14 -39 22 -7 30 -16 30 -34 0 -34
-59 -53 -76 -25 -5 7 -1 9 13 6 21 -6 53 7 53 22 0 4 -14 13 -30 19 -35 12
-47 35 -30 56 14 17 56 20 66 4z m92 0 c-13 -7 -18 -23 -18 -54 0 -31 5 -47
18 -54 13 -8 9 -10 -23 -10 -22 0 -34 3 -27 6 7 3 12 25 12 58 0 33 -5 55 -12
58 -7 3 5 6 27 6 32 0 36 -2 23 -10z m62 2 c0 -5 8 -26 17 -47 l17 -39 7 50
c6 50 6 50 7 -17 1 -38 -2 -68 -7 -68 -5 0 -18 21 -29 48 l-20 47 -1 -47 c-1
-27 -5 -48 -11 -48 -6 0 -10 28 -10 65 0 51 3 65 15 65 8 0 15 -4 15 -9z m143
-1 c-20 -8 -23 -17 -23 -65 0 -30 -4 -55 -10 -55 -6 0 -10 26 -10 59 0 48 -3
60 -17 64 -10 3 5 5 32 5 39 1 45 -1 28 -8z m-623 -105 c0 -8 -4 -15 -10 -15
-5 0 -10 7 -10 15 0 8 5 15 10 15 6 0 10 -7 10 -15z m-80 -150 c0 -29 4 -45
13 -46 10 0 10 -2 0 -6 -7 -2 -13 -11 -13 -19 0 -8 -4 -14 -10 -14 -5 0 -10 7
-10 15 0 9 -9 15 -25 15 -14 0 -25 2 -25 5 0 13 32 66 37 62 2 -3 0 -14 -6
-25 -15 -28 -14 -32 5 -32 14 0 16 7 11 39 -3 22 -2 42 1 45 15 15 22 2 22
-39z m298 33 c14 -14 16 -94 2 -103 -5 -3 -7 -12 -4 -20 5 -13 3 -13 -21 -1
-35 18 -45 33 -45 69 0 56 37 86 68 55z m297 -21 c18 -4 18 -5 -2 -6 -19 -1
-23 -7 -23 -36 0 -27 5 -38 23 -45 22 -10 22 -10 -3 -7 -22 2 -25 7 -28 45 -2
31 -8 42 -20 43 -15 1 -15 2 1 6 9 2 17 10 17 16 0 9 2 9 8 1 4 -7 16 -14 27
-17z m100 0 c18 -4 18 -5 -2 -6 -19 -1 -23 -7 -23 -36 0 -27 5 -38 23 -45 22
-10 22 -10 -3 -7 -22 2 -25 7 -28 45 -2 31 -8 42 -20 43 -15 1 -15 2 1 6 9 2
17 10 17 16 0 9 2 9 8 1 4 -7 16 -14 27 -17z m-332 -79 c19 -11 27 1 27 43 0
21 5 39 10 39 6 0 10 -22 10 -49 0 -49 0 -49 -32 -48 -32 2 -33 3 -34 52 -1
41 0 43 3 10 3 -22 10 -43 16 -47z m117 38 c0 -34 4 -46 18 -49 9 -3 -1 -5
-23 -5 -22 0 -32 2 -22 5 12 3 17 15 17 43 0 28 -5 40 -17 43 -14 4 -12 5 5 6
20 1 22 -4 22 -43z m314 38 c9 -3 16 -15 16 -25 0 -14 -7 -19 -30 -19 -19 0
-30 -5 -30 -14 0 -17 25 -27 47 -19 11 4 14 3 9 -5 -18 -29 -76 0 -76 38 0 19
25 50 40 50 5 0 15 -3 24 -6z m126 -3 c0 -4 -10 -7 -22 -7 -20 1 -23 -5 -26
-41 -4 -59 -22 -54 -22 5 0 49 0 49 35 50 19 1 35 -2 35 -7z m-844 -88 c-10
-10 -19 5 -10 18 6 11 8 11 12 0 2 -7 1 -15 -2 -18z m944 -603 l0 -110 -50 0
-50 0 0 110 0 110 50 0 50 0 0 -110z m-469 9 c0 -34 -3 -64 -6 -67 -3 -3 -5
28 -5 68 0 40 3 71 6 67 3 -3 6 -34 5 -68z m-1366 52 c-17 -3 -30 -13 -30 -21
0 -8 13 -18 30 -21 29 -6 29 -7 4 -8 -20 -1 -29 -8 -33 -26 -4 -14 -4 -30 -1
-35 4 -6 1 -10 -4 -10 -7 0 -11 26 -11 65 l0 65 38 -1 c36 -1 36 -2 7 -8z
m310 -24 c18 -4 18 -5 -2 -6 -19 -1 -23 -7 -23 -36 0 -27 5 -38 23 -45 22 -10
22 -10 -3 -7 -22 2 -25 7 -28 45 -2 31 -8 42 -20 43 -15 1 -15 2 1 6 9 2 17
10 17 16 0 9 2 9 8 1 4 -7 16 -14 27 -17z m600 0 c18 -4 18 -5 -2 -6 -19 -1
-23 -7 -23 -36 0 -27 5 -38 23 -45 22 -10 22 -10 -3 -7 -22 2 -25 7 -28 45 -2
31 -8 42 -20 43 -15 1 -15 2 1 6 9 2 17 10 17 16 0 9 2 9 8 1 4 -7 16 -14 27
-17z m-797 -9 c7 -7 12 -28 12 -47 0 -33 -3 -36 -29 -38 -37 -3 -59 20 -41 42
7 8 21 15 32 15 11 0 18 5 15 13 -2 6 -13 12 -25 11 -12 0 -19 3 -16 8 8 12
38 10 52 -4z m82 -32 c0 -34 4 -46 18 -49 9 -3 -1 -5 -23 -5 -22 0 -32 2 -22
5 24 6 24 80 0 86 -14 4 -12 5 5 6 20 1 22 -4 22 -43z m218 32 c22 -22 13 -38
-19 -38 -24 0 -30 -4 -27 -17 3 -13 12 -17 31 -16 15 1 25 -2 22 -8 -17 -27
-75 5 -75 41 0 21 25 50 44 50 6 0 17 -5 24 -12z m96 3 c4 -5 -2 -7 -13 -4
-30 8 -35 -16 -6 -29 18 -8 25 -18 23 -32 -3 -22 -34 -34 -49 -19 -6 6 -1 9
12 9 32 -1 35 22 5 34 -39 15 -32 46 11 49 6 1 14 -3 17 -8z m161 -31 c10 -45
21 -44 35 3 7 23 15 37 17 31 5 -14 -22 -87 -34 -91 -5 -2 -15 13 -22 34 -7
21 -15 44 -18 52 -3 8 -1 11 5 7 6 -3 13 -20 17 -36z m143 28 c26 -26 8 -88
-24 -88 -19 0 -44 29 -44 50 0 21 25 50 44 50 6 0 17 -5 24 -12z m195 2 c-15
-6 -25 -22 -31 -52 l-10 -43 -1 50 c-1 50 -1 50 32 52 27 1 29 0 10 -7z m105
-2 c22 -22 13 -38 -19 -38 -24 0 -30 -4 -27 -17 3 -13 12 -17 31 -16 15 1 25
-2 22 -8 -17 -27 -75 5 -75 41 0 21 25 50 44 50 6 0 17 -5 24 -12z m206 4 c3
-5 -4 -8 -16 -8 -11 1 -25 -7 -32 -16 -15 -24 4 -53 33 -52 15 0 18 -3 12 -9
-7 -7 -19 -7 -36 1 -44 20 -28 90 22 92 6 0 14 -4 17 -8z m94 -4 c13 -13 17
-88 4 -88 -4 0 -7 12 -6 28 1 15 -5 37 -12 50 -15 23 -6 30 14 10z m100 0 c26
-26 8 -88 -24 -88 -19 0 -44 29 -44 50 0 21 25 50 44 50 6 0 17 -5 24 -12z
m82 -32 c0 -34 4 -46 18 -49 9 -3 -1 -5 -23 -5 -22 0 -32 2 -22 5 12 3 17 15
17 43 0 28 -5 40 -17 43 -14 4 -12 5 5 6 20 1 22 -4 22 -43z m111 29 l22 20
-18 -28 c-16 -25 -16 -29 -1 -46 9 -9 16 -22 16 -27 -1 -5 -9 1 -20 14 l-19
23 -13 -20 c-7 -12 -16 -21 -21 -21 -4 0 0 12 10 26 13 21 14 30 5 45 -17 26
-15 37 2 14 14 -19 15 -19 37 0z"/>
<path d="M1740 2235 c0 -18 5 -25 20 -25 25 0 38 29 19 41 -25 15 -39 10 -39
-16z"/>
<path d="M1347 2224 c-14 -14 -6 -24 19 -24 16 0 24 5 22 13 -5 14 -31 21 -41
11z"/>
<path d="M2347 2223 c-11 -10 -8 -61 4 -69 19 -11 42 22 35 50 -6 25 -25 34
-39 19z"/>
<path d="M2440 2169 c0 -25 33 -22 38 4 2 12 -3 17 -17 17 -15 0 -21 -6 -21
-21z"/>
<path d="M1140 1575 c0 -16 6 -25 15 -25 21 0 31 30 14 41 -23 14 -29 11 -29
-16z"/>
<path d="M1356 1575 c-10 -28 -7 -45 9 -45 12 0 14 7 9 28 -9 35 -10 36 -18
17z"/>
<path d="M1440 1545 c0 -48 2 -54 18 -48 35 13 44 60 16 87 -26 27 -34 18 -34
-39z"/>
<path d="M2144 1337 c-9 -25 0 -62 16 -62 10 0 15 10 15 34 0 36 -21 54 -31
28z"/>
<path d="M3152 1338 c-16 -16 -15 -43 1 -57 16 -13 37 4 37 30 0 25 -24 41
-38 27z"/>
<path d="M1140 1325 c0 -58 8 -66 35 -38 26 26 7 92 -27 93 -5 0 -8 -25 -8
-55z"/>
<path d="M1253 1343 c-22 -8 -14 -23 12 -23 14 0 25 4 25 9 0 11 -21 19 -37
14z"/>
<path d="M1453 1343 c-22 -8 -14 -23 12 -23 14 0 25 4 25 9 0 11 -21 19 -37
14z"/>
<path d="M1753 1343 c-22 -8 -14 -23 12 -23 14 0 25 4 25 9 0 11 -21 19 -37
14z"/>
<path d="M2253 1343 c-22 -8 -14 -23 12 -23 14 0 25 4 25 9 0 11 -21 19 -37
14z"/>
<path d="M2853 1343 c-22 -8 -14 -23 12 -23 14 0 25 4 25 9 0 11 -21 19 -37
14z"/>
<path d="M3044 1299 c-8 -14 11 -33 25 -25 6 4 11 14 11 22 0 16 -26 19 -36 3z"/>
<path d="M3653 1343 c-22 -8 -14 -23 12 -23 14 0 25 4 25 9 0 11 -21 19 -37
14z"/>
<path d="M1153 1153 c-19 -7 -17 -89 2 -97 16 -6 35 21 35 51 0 25 -22 52 -37
46z"/>
<path d="M1153 933 c-19 -7 -17 -89 2 -97 16 -6 35 21 35 51 0 25 -22 52 -37
46z"/>
<path d="M1653 903 c-22 -8 -14 -23 12 -23 14 0 25 4 25 9 0 11 -21 19 -37 14z"/>
<path d="M140 190 c0 -11 7 -20 15 -20 8 0 19 9 25 20 9 18 8 20 -15 20 -18 0
-25 -5 -25 -20z"/>
<path d="M447 244 c-14 -14 -6 -24 19 -24 16 0 24 5 22 13 -5 14 -31 21 -41
11z"/>
<path d="M844 237 c-9 -25 0 -62 15 -62 22 0 38 32 25 52 -14 23 -33 28 -40
10z"/>
<path d="M1147 244 c-14 -14 -6 -24 19 -24 16 0 24 5 22 13 -5 14 -31 21 -41
11z"/>
<path d="M1544 237 c-9 -25 0 -62 15 -62 22 0 38 32 25 52 -14 23 -33 28 -40
10z"/>
</g>
</svg>
