<svg xmlns="http://www.w3.org/2000/svg" width="124.00999999999999" height="35" viewBox="0 0 124.00999999999999 35"><rect class="svg__rect" x="0" y="0" width="66.74" height="35" fill="#005384"/><rect class="svg__rect" x="64.74" y="0" width="59.269999999999996" height="35" fill="#C13B3A"/><path class="svg__text" d="M13.95 18.00L13.95 18.00L13.95 17.52Q13.95 16.28 14.39 15.32Q14.83 14.37 15.64 13.86Q16.44 13.35 17.49 13.35Q18.53 13.35 19.34 13.85Q20.14 14.35 20.58 15.29Q21.02 16.23 21.03 17.48L21.03 17.48L21.03 17.96Q21.03 19.21 20.59 20.16Q20.16 21.10 19.35 21.61Q18.55 22.12 17.50 22.12L17.50 22.12Q16.46 22.12 15.65 21.61Q14.84 21.10 14.40 20.17Q13.95 19.23 13.95 18.00ZM15.43 17.46L15.43 17.96Q15.43 19.36 15.98 20.13Q16.53 20.90 17.50 20.90L17.50 20.90Q18.48 20.90 19.01 20.15Q19.54 19.40 19.54 17.96L19.54 17.96L19.54 17.51Q19.54 16.09 19.01 15.34Q18.47 14.58 17.49 14.58L17.49 14.58Q16.53 14.58 15.98 15.33Q15.44 16.09 15.43 17.46L15.43 17.46ZM26.97 22L25.49 22L25.49 13.47L28.75 13.47Q30.18 13.47 31.02 14.21Q31.87 14.96 31.87 16.18L31.87 16.18Q31.87 17.44 31.04 18.13Q30.22 18.83 28.74 18.83L28.74 18.83L26.97 18.83L26.97 22ZM26.97 14.66L26.97 17.64L28.75 17.64Q29.55 17.64 29.96 17.27Q30.38 16.90 30.38 16.19L30.38 16.19Q30.38 15.50 29.96 15.09Q29.53 14.68 28.80 14.66L28.80 14.66L26.97 14.66ZM41.73 22L36.15 22L36.15 13.47L41.69 13.47L41.69 14.66L37.63 14.66L37.63 17.02L41.14 17.02L41.14 18.19L37.63 18.19L37.63 20.82L41.73 20.82L41.73 22ZM47.40 22L45.92 22L45.92 13.47L47.40 13.47L51.22 19.54L51.22 13.47L52.69 13.47L52.69 22L51.21 22L47.40 15.95L47.40 22Z" fill="#FFFFFF"/><path class="svg__text" d="M81.51 22L77.92 13.60L80.49 13.60L82.77 19.07L85.10 13.60L87.45 13.60L83.85 22L81.51 22ZM93.02 22L90.59 22L94.30 13.60L96.65 13.60L100.36 22L97.89 22L97.23 20.37L93.68 20.37L93.02 22ZM95.46 15.93L94.37 18.61L96.54 18.61L95.46 15.93ZM103.93 21.24L103.93 21.24L104.71 19.49Q105.27 19.86 106.02 20.09Q106.76 20.32 107.48 20.32L107.48 20.32Q108.85 20.32 108.85 19.64L108.85 19.64Q108.85 19.28 108.46 19.11Q108.07 18.93 107.21 18.74L107.21 18.74Q106.26 18.53 105.62 18.30Q104.98 18.06 104.53 17.55Q104.08 17.03 104.08 16.16L104.08 16.16Q104.08 15.39 104.50 14.77Q104.91 14.15 105.75 13.79Q106.58 13.43 107.79 13.43L107.79 13.43Q108.62 13.43 109.42 13.62Q110.23 13.80 110.84 14.17L110.84 14.17L110.11 15.93Q108.91 15.28 107.78 15.28L107.78 15.28Q107.07 15.28 106.75 15.49Q106.43 15.70 106.43 16.04L106.43 16.04Q106.43 16.37 106.81 16.54Q107.19 16.71 108.04 16.89L108.04 16.89Q109.00 17.10 109.63 17.33Q110.26 17.56 110.73 18.07Q111.19 18.58 111.19 19.46L111.19 19.46Q111.19 20.21 110.77 20.83Q110.35 21.44 109.51 21.80Q108.67 22.17 107.47 22.17L107.47 22.17Q106.45 22.17 105.49 21.92Q104.53 21.67 103.93 21.24Z" fill="#FFFFFF" x="77.74"/></svg>
