<svg xmlns="http://www.w3.org/2000/svg" width="220.3" height="35" viewBox="0 0 220.3 35"><rect class="svg__rect" x="0" y="0" width="171.84" height="35" fill="#31C4F3"/><rect class="svg__rect" x="169.84" y="0" width="50.46000000000001" height="35" fill="#389AD5"/><path class="svg__text" d="M15.70 22L14.22 22L14.22 13.47L17.48 13.47Q18.91 13.47 19.75 14.21Q20.59 14.96 20.59 16.18L20.59 16.18Q20.59 17.44 19.77 18.13Q18.95 18.83 17.46 18.83L17.46 18.83L15.70 18.83L15.70 22ZM15.70 14.66L15.70 17.64L17.48 17.64Q18.27 17.64 18.69 17.27Q19.10 16.90 19.10 16.19L19.10 16.19Q19.10 15.50 18.68 15.09Q18.26 14.68 17.52 14.66L17.52 14.66L15.70 14.66ZM25.65 22L24.11 22L27.34 13.47L28.67 13.47L31.89 22L30.35 22L29.65 20.01L26.35 20.01L25.65 22ZM28.00 15.28L26.76 18.82L29.23 18.82L28.00 15.28ZM37.33 22L35.85 22L35.85 13.47L38.85 13.47Q40.33 13.47 41.13 14.13Q41.93 14.79 41.93 16.05L41.93 16.05Q41.93 16.90 41.52 17.48Q41.11 18.06 40.37 18.37L40.37 18.37L42.28 21.92L42.28 22L40.70 22L38.98 18.71L37.33 18.71L37.33 22ZM37.33 14.66L37.33 17.52L38.86 17.52Q39.61 17.52 40.03 17.15Q40.45 16.77 40.45 16.11L40.45 16.11Q40.45 15.43 40.06 15.05Q39.67 14.68 38.90 14.66L38.90 14.66L37.33 14.66ZM47.81 22L46.33 22L46.33 13.47L49.33 13.47Q50.80 13.47 51.61 14.13Q52.41 14.79 52.41 16.05L52.41 16.05Q52.41 16.90 52.00 17.48Q51.58 18.06 50.84 18.37L50.84 18.37L52.76 21.92L52.76 22L51.17 22L49.46 18.71L47.81 18.71L47.81 22ZM47.81 14.66L47.81 17.52L49.33 17.52Q50.08 17.52 50.50 17.15Q50.93 16.77 50.93 16.11L50.93 16.11Q50.93 15.43 50.54 15.05Q50.15 14.68 49.37 14.66L49.37 14.66L47.81 14.66ZM56.53 18.00L56.53 18.00L56.53 17.52Q56.53 16.28 56.98 15.32Q57.42 14.37 58.22 13.86Q59.03 13.35 60.07 13.35Q61.12 13.35 61.92 13.85Q62.73 14.35 63.17 15.29Q63.61 16.23 63.61 17.48L63.61 17.48L63.61 17.96Q63.61 19.21 63.18 20.16Q62.74 21.10 61.94 21.61Q61.13 22.12 60.08 22.12L60.08 22.12Q59.05 22.12 58.24 21.61Q57.42 21.10 56.98 20.17Q56.54 19.23 56.53 18.00ZM58.02 17.46L58.02 17.96Q58.02 19.36 58.56 20.13Q59.11 20.90 60.08 20.90L60.08 20.90Q61.07 20.90 61.60 20.15Q62.13 19.40 62.13 17.96L62.13 17.96L62.13 17.51Q62.13 16.09 61.59 15.34Q61.06 14.58 60.07 14.58L60.07 14.58Q59.11 14.58 58.57 15.33Q58.03 16.09 58.02 17.46L58.02 17.46ZM69.76 14.66L67.12 14.66L67.12 13.47L73.89 13.47L73.89 14.66L71.23 14.66L71.23 22L69.76 22L69.76 14.66ZM83.19 19.42L83.19 19.42L84.67 19.42Q84.67 20.15 85.15 20.55Q85.63 20.95 86.53 20.95L86.53 20.95Q87.30 20.95 87.69 20.63Q88.08 20.32 88.08 19.80L88.08 19.80Q88.08 19.24 87.68 18.94Q87.29 18.63 86.26 18.32Q85.23 18.01 84.62 17.63L84.62 17.63Q83.45 16.90 83.45 15.72L83.45 15.72Q83.45 14.69 84.29 14.02Q85.13 13.35 86.47 13.35L86.47 13.35Q87.37 13.35 88.06 13.68Q88.76 14.01 89.16 14.61Q89.56 15.22 89.56 15.96L89.56 15.96L88.08 15.96Q88.08 15.29 87.66 14.91Q87.24 14.54 86.46 14.54L86.46 14.54Q85.74 14.54 85.34 14.85Q84.93 15.16 84.93 15.71L84.93 15.71Q84.93 16.18 85.37 16.50Q85.80 16.81 86.80 17.10Q87.79 17.40 88.40 17.78Q89.00 18.16 89.28 18.65Q89.56 19.13 89.56 19.79L89.56 19.79Q89.56 20.86 88.75 21.49Q87.93 22.12 86.53 22.12L86.53 22.12Q85.60 22.12 84.83 21.77Q84.05 21.43 83.62 20.83Q83.19 20.22 83.19 19.42ZM99.43 22L93.85 22L93.85 13.47L99.39 13.47L99.39 14.66L95.33 14.66L95.33 17.02L98.84 17.02L98.84 18.19L95.33 18.19L95.33 20.82L99.43 20.82L99.43 22ZM103.36 18.19L103.36 18.19L103.36 17.39Q103.36 16.19 103.78 15.27Q104.21 14.35 105.01 13.85Q105.81 13.35 106.86 13.35L106.86 13.35Q108.27 13.35 109.13 14.12Q109.99 14.89 110.14 16.29L110.14 16.29L108.66 16.29Q108.55 15.37 108.12 14.96Q107.69 14.55 106.86 14.55L106.86 14.55Q105.89 14.55 105.37 15.26Q104.86 15.96 104.84 17.33L104.84 17.33L104.84 18.09Q104.84 19.47 105.34 20.20Q105.83 20.92 106.79 20.92L106.79 20.92Q107.66 20.92 108.10 20.53Q108.54 20.14 108.66 19.22L108.66 19.22L110.14 19.22Q110.01 20.59 109.13 21.35Q108.25 22.12 106.79 22.12L106.79 22.12Q105.77 22.12 104.99 21.63Q104.22 21.15 103.80 20.26Q103.37 19.37 103.36 18.19ZM114.31 19.16L114.31 19.16L114.31 13.47L115.79 13.47L115.79 19.18Q115.79 20.03 116.22 20.48Q116.66 20.93 117.50 20.93L117.50 20.93Q119.21 20.93 119.21 19.13L119.21 19.13L119.21 13.47L120.69 13.47L120.69 19.17Q120.69 20.53 119.82 21.32Q118.95 22.12 117.50 22.12L117.50 22.12Q116.04 22.12 115.17 21.33Q114.31 20.55 114.31 19.16ZM126.74 22L125.26 22L125.26 13.47L128.26 13.47Q129.73 13.47 130.54 14.13Q131.34 14.79 131.34 16.05L131.34 16.05Q131.34 16.90 130.93 17.48Q130.51 18.06 129.78 18.37L129.78 18.37L131.69 21.92L131.69 22L130.10 22L128.39 18.71L126.74 18.71L126.74 22ZM126.74 14.66L126.74 17.52L128.26 17.52Q129.01 17.52 129.44 17.15Q129.86 16.77 129.86 16.11L129.86 16.11Q129.86 15.43 129.47 15.05Q129.08 14.68 128.31 14.66L128.31 14.66L126.74 14.66ZM137.30 22L135.82 22L135.82 13.47L137.30 13.47L137.30 22ZM143.79 14.66L141.15 14.66L141.15 13.47L147.92 13.47L147.92 14.66L145.26 14.66L145.26 22L143.79 22L143.79 14.66ZM153.72 18.86L150.85 13.47L152.50 13.47L154.46 17.51L156.42 13.47L158.06 13.47L155.21 18.86L155.21 22L153.72 22L153.72 18.86Z" fill="#FFFFFF"/><path class="svg__text" d="M183.28 21.34L183.28 21.34L184.14 19.55Q184.64 19.88 185.25 20.07Q185.86 20.25 186.47 20.25L186.47 20.25Q187.07 20.25 187.44 20.01Q187.81 19.78 187.81 19.36L187.81 19.36Q187.81 18.94 187.45 18.72Q187.09 18.51 186.18 18.51L186.18 18.51L183.90 18.51L184.32 13.60L189.67 13.60L189.67 15.44L186.28 15.44L186.18 16.66L186.74 16.66Q188.50 16.66 189.35 17.38Q190.20 18.10 190.20 19.30L190.20 19.30Q190.20 20.08 189.80 20.73Q189.40 21.39 188.57 21.78Q187.75 22.17 186.54 22.17L186.54 22.17Q185.65 22.17 184.78 21.95Q183.91 21.74 183.28 21.34ZM194.28 20.75L194.28 20.75Q194.28 20.15 194.67 19.78Q195.06 19.41 195.65 19.41L195.65 19.41Q196.25 19.41 196.63 19.78Q197.02 20.15 197.02 20.75L197.02 20.75Q197.02 21.34 196.63 21.72Q196.24 22.11 195.65 22.11L195.65 22.11Q195.07 22.11 194.68 21.72Q194.28 21.34 194.28 20.75ZM202.53 16.17L200.77 15.19Q201.26 14.37 202.15 13.90Q203.04 13.43 204.25 13.43L204.25 13.43Q205.21 13.43 205.94 13.74Q206.68 14.05 207.10 14.64Q207.51 15.22 207.51 15.99L207.51 15.99Q207.51 16.67 207.22 17.28Q206.92 17.89 206.08 18.65L206.08 18.65L204.50 20.11L207.74 20.11L207.74 22L201.20 22L201.20 20.51L204.34 17.57Q204.80 17.14 204.95 16.83Q205.11 16.53 205.11 16.22L205.11 16.22Q205.11 15.81 204.83 15.58Q204.56 15.35 204.03 15.35L204.03 15.35Q203.56 15.35 203.17 15.56Q202.78 15.77 202.53 16.17L202.53 16.17Z" fill="#FFFFFF" x="182.84"/></svg>