<svg xmlns="http://www.w3.org/2000/svg" width="294.40999999999997" height="35" viewBox="0 0 294.40999999999997 35"><rect class="svg__rect" x="0" y="0" width="127.25" height="35" fill="#C1D72F"/><rect class="svg__rect" x="125.25" y="0" width="169.15999999999997" height="35" fill="#5D9741"/><path class="svg__text" d="M15.70 22L14.22 22L14.22 13.47L17.48 13.47Q18.91 13.47 19.75 14.21Q20.59 14.96 20.59 16.18L20.59 16.18Q20.59 17.44 19.77 18.13Q18.95 18.83 17.46 18.83L17.46 18.83L15.70 18.83L15.70 22ZM15.70 14.66L15.70 17.64L17.48 17.64Q18.27 17.64 18.69 17.27Q19.10 16.90 19.10 16.19L19.10 16.19Q19.10 15.50 18.68 15.09Q18.26 14.68 17.52 14.66L17.52 14.66L15.70 14.66ZM24.61 18.00L24.61 18.00L24.61 17.52Q24.61 16.28 25.05 15.32Q25.49 14.37 26.30 13.86Q27.10 13.35 28.14 13.35Q29.19 13.35 29.99 13.85Q30.80 14.35 31.24 15.29Q31.68 16.23 31.68 17.48L31.68 17.48L31.68 17.96Q31.68 19.21 31.25 20.16Q30.82 21.10 30.01 21.61Q29.21 22.12 28.16 22.12L28.16 22.12Q27.12 22.12 26.31 21.61Q25.50 21.10 25.05 20.17Q24.61 19.23 24.61 18.00ZM26.09 17.46L26.09 17.96Q26.09 19.36 26.64 20.13Q27.18 20.90 28.16 20.90L28.16 20.90Q29.14 20.90 29.67 20.15Q30.20 19.40 30.20 17.96L30.20 17.96L30.20 17.51Q30.20 16.09 29.67 15.34Q29.13 14.58 28.14 14.58L28.14 14.58Q27.18 14.58 26.64 15.33Q26.10 16.09 26.09 17.46L26.09 17.46ZM37.53 22L35.56 13.47L37.03 13.47L38.36 19.88L39.99 13.47L41.23 13.47L42.84 19.89L44.15 13.47L45.62 13.47L43.65 22L42.24 22L40.61 15.77L38.96 22L37.53 22ZM55.27 22L49.70 22L49.70 13.47L55.23 13.47L55.23 14.66L51.18 14.66L51.18 17.02L54.68 17.02L54.68 18.19L51.18 18.19L51.18 20.82L55.27 20.82L55.27 22ZM60.95 22L59.47 22L59.47 13.47L62.47 13.47Q63.95 13.47 64.75 14.13Q65.55 14.79 65.55 16.05L65.55 16.05Q65.55 16.90 65.14 17.48Q64.72 18.06 63.99 18.37L63.99 18.37L65.90 21.92L65.90 22L64.31 22L62.60 18.71L60.95 18.71L60.95 22ZM60.95 14.66L60.95 17.52L62.48 17.52Q63.23 17.52 63.65 17.15Q64.07 16.77 64.07 16.11L64.07 16.11Q64.07 15.43 63.68 15.05Q63.29 14.68 62.52 14.66L62.52 14.66L60.95 14.66ZM75.52 22L69.95 22L69.95 13.47L75.48 13.47L75.48 14.66L71.43 14.66L71.43 17.02L74.93 17.02L74.93 18.19L71.43 18.19L71.43 20.82L75.52 20.82L75.52 22ZM82.17 22L79.72 22L79.72 13.47L82.24 13.47Q83.37 13.47 84.25 13.97Q85.12 14.48 85.60 15.40Q86.08 16.33 86.08 17.52L86.08 17.52L86.08 17.95Q86.08 19.16 85.60 20.08Q85.12 21.00 84.22 21.50Q83.33 22 82.17 22L82.17 22ZM81.20 14.66L81.20 20.82L82.17 20.82Q83.33 20.82 83.96 20.09Q84.58 19.36 84.59 17.99L84.59 17.99L84.59 17.52Q84.59 16.13 83.99 15.40Q83.39 14.66 82.24 14.66L82.24 14.66L81.20 14.66ZM99.64 22L96.52 22L96.52 13.47L99.45 13.47Q100.89 13.47 101.65 14.05Q102.41 14.63 102.41 15.78L102.41 15.78Q102.41 16.36 102.09 16.83Q101.77 17.30 101.16 17.56L101.16 17.56Q101.86 17.75 102.23 18.26Q102.61 18.78 102.61 19.51L102.61 19.51Q102.61 20.71 101.84 21.36Q101.07 22 99.64 22L99.64 22ZM98.01 18.15L98.01 20.82L99.65 20.82Q100.35 20.82 100.74 20.47Q101.14 20.13 101.14 19.51L101.14 19.51Q101.14 18.18 99.78 18.15L99.78 18.15L98.01 18.15ZM98.01 14.66L98.01 17.06L99.46 17.06Q100.15 17.06 100.54 16.75Q100.93 16.43 100.93 15.86L100.93 15.86Q100.93 15.23 100.57 14.95Q100.21 14.66 99.45 14.66L99.45 14.66L98.01 14.66ZM109.12 18.86L106.26 13.47L107.90 13.47L109.87 17.51L111.83 13.47L113.47 13.47L110.61 18.86L110.61 22L109.12 22L109.12 18.86Z" fill="#FFFFFF"/><path class="svg__text" d="M138.36 20.93L138.36 20.93L139.65 19.40Q140.32 20.27 141.10 20.27L141.10 20.27Q141.10 20.27 141.11 20.27L141.11 20.27Q141.62 20.27 141.89 19.96Q142.16 19.65 142.16 19.05L142.16 19.05L142.16 15.44L139.26 15.44L139.26 13.60L144.52 13.60L144.52 18.91Q144.52 20.54 143.69 21.36Q142.87 22.17 141.28 22.17L141.28 22.17Q140.35 22.17 139.60 21.85Q138.84 21.53 138.36 20.93ZM149.53 18.26L149.53 18.26L149.53 13.60L151.91 13.60L151.91 18.19Q151.91 20.20 153.51 20.20L153.51 20.20Q155.09 20.20 155.09 18.19L155.09 18.19L155.09 13.60L157.43 13.60L157.43 18.26Q157.43 20.13 156.39 21.15Q155.35 22.17 153.48 22.17L153.48 22.17Q151.61 22.17 150.57 21.15Q149.53 20.13 149.53 18.26ZM168.90 22L162.52 22L162.52 13.60L164.90 13.60L164.90 20.11L168.90 20.11L168.90 22ZM175.70 22L173.32 22L173.32 13.60L175.70 13.60L175.70 22ZM187.62 22L180.88 22L180.88 13.60L187.47 13.60L187.47 15.44L183.23 15.44L183.23 16.85L186.96 16.85L186.96 18.63L183.23 18.63L183.23 20.17L187.62 20.17L187.62 22ZM194.76 22L192.42 22L192.42 13.60L194.38 13.60L198.09 18.07L198.09 13.60L200.42 13.60L200.42 22L198.47 22L194.76 17.52L194.76 22ZM214.93 22L212.55 22L212.55 13.60L216.39 13.60Q217.54 13.60 218.38 13.98Q219.21 14.35 219.67 15.06Q220.13 15.76 220.13 16.71L220.13 16.71Q220.13 17.62 219.70 18.30Q219.27 18.98 218.48 19.36L218.48 19.36L220.29 22L217.75 22L216.22 19.77L214.93 19.77L214.93 22ZM214.93 15.47L214.93 17.93L216.25 17.93Q216.98 17.93 217.35 17.61Q217.72 17.29 217.72 16.71L217.72 16.71Q217.72 16.12 217.35 15.79Q216.98 15.47 216.25 15.47L216.25 15.47L214.93 15.47ZM224.49 17.80L224.49 17.80Q224.49 16.55 225.09 15.55Q225.69 14.56 226.76 14.00Q227.82 13.43 229.15 13.43L229.15 13.43Q230.48 13.43 231.54 14.00Q232.61 14.56 233.21 15.55Q233.82 16.55 233.82 17.80L233.82 17.80Q233.82 19.05 233.21 20.04Q232.61 21.04 231.55 21.60Q230.49 22.17 229.15 22.17L229.15 22.17Q227.82 22.17 226.76 21.60Q225.69 21.04 225.09 20.04Q224.49 19.05 224.49 17.80ZM226.88 17.80L226.88 17.80Q226.88 18.51 227.18 19.05Q227.49 19.60 228.00 19.90Q228.52 20.20 229.15 20.20L229.15 20.20Q229.79 20.20 230.31 19.90Q230.82 19.60 231.12 19.05Q231.42 18.51 231.42 17.80L231.42 17.80Q231.42 17.09 231.12 16.54Q230.82 16 230.31 15.70Q229.79 15.40 229.15 15.40L229.15 15.40Q228.51 15.40 228.00 15.70Q227.49 16 227.18 16.54Q226.88 17.09 226.88 17.80ZM240.93 22L238.55 22L238.55 13.60L242.39 13.60Q243.53 13.60 244.37 13.98Q245.21 14.35 245.67 15.06Q246.13 15.76 246.13 16.71L246.13 16.71Q246.13 17.66 245.67 18.35Q245.21 19.05 244.37 19.42Q243.53 19.80 242.39 19.80L242.39 19.80L240.93 19.80L240.93 22ZM240.93 15.47L240.93 17.93L242.25 17.93Q242.98 17.93 243.35 17.61Q243.72 17.29 243.72 16.71L243.72 16.71Q243.72 16.12 243.35 15.80Q242.98 15.47 242.25 15.47L242.25 15.47L240.93 15.47ZM257.62 22L250.88 22L250.88 13.60L257.47 13.60L257.47 15.44L253.23 15.44L253.23 16.85L256.97 16.85L256.97 18.63L253.23 18.63L253.23 20.17L257.62 20.17L257.62 22ZM264.81 22L262.43 22L262.43 13.60L266.27 13.60Q267.41 13.60 268.25 13.98Q269.09 14.35 269.55 15.06Q270.00 15.76 270.00 16.71L270.00 16.71Q270.00 17.62 269.57 18.30Q269.15 18.98 268.36 19.36L268.36 19.36L270.17 22L267.62 22L266.10 19.77L264.81 19.77L264.81 22ZM264.81 15.47L264.81 17.93L266.12 17.93Q266.86 17.93 267.23 17.61Q267.60 17.29 267.60 16.71L267.60 16.71Q267.60 16.12 267.23 15.79Q266.86 15.47 266.12 15.47L266.12 15.47L264.81 15.47ZM276.58 15.48L274.00 15.48L274.00 13.60L281.52 13.60L281.52 15.48L278.96 15.48L278.96 22L276.58 22L276.58 15.48Z" fill="#FFFFFF" x="138.25"/></svg>