<?xml version="1.0" standalone="no"?>
<!DOCTYPE svg PUBLIC "-//W3C//DTD SVG 20010904//EN"
 "http://www.w3.org/TR/2001/REC-SVG-20010904/DTD/svg10.dtd">
<svg version="1.0" xmlns="http://www.w3.org/2000/svg"
 width="653.000000pt" height="396.000000pt" viewBox="0 0 653.000000 396.000000"
 preserveAspectRatio="xMidYMid meet">

<g transform="translate(0.000000,396.000000) scale(0.100000,-0.100000)"
fill="#000000" stroke="none">
<path d="M0 1980 l0 -1980 3265 0 3265 0 0 1980 0 1980 -3265 0 -3265 0 0
-1980z m203 1773 c-9 -3 -13 -28 -13 -73 0 -45 4 -70 13 -73 7 -3 5 -6 -5 -6
-16 -1 -18 9 -18 79 0 70 2 80 18 79 10 0 12 -3 5 -6z m197 -73 c0 -70 -2 -80
-17 -79 -11 0 -13 3 -5 6 8 3 12 28 12 73 0 45 -4 70 -12 73 -8 3 -6 6 5 6 15
1 17 -9 17 -79z m271 9 c0 -34 -3 -64 -6 -67 -3 -3 -5 28 -5 68 0 40 3 71 6
67 3 -3 6 -34 5 -68z m-46 51 c3 -6 -1 -7 -10 -4 -24 9 -45 -15 -45 -51 0 -37
22 -60 47 -51 14 6 15 4 7 -4 -31 -31 -81 25 -68 76 9 35 54 58 69 34z m696
-58 c10 -34 13 -62 8 -62 -5 0 -9 9 -9 20 0 28 -46 28 -55 -1 -4 -11 -9 -18
-12 -16 -9 9 30 128 40 124 6 -2 18 -31 28 -65z m297 56 c7 -7 12 -30 12 -53
0 -60 -30 -83 -64 -49 -9 8 -16 31 -16 49 0 51 39 82 68 53z m197 -21 c18 -4
18 -5 -2 -6 -19 -1 -23 -7 -23 -36 0 -27 5 -38 23 -45 22 -10 22 -10 -3 -7
-22 2 -25 7 -28 45 -2 31 -8 42 -20 43 -15 1 -15 2 1 6 9 2 17 10 17 16 0 9 2
9 8 1 4 -7 16 -14 27 -17z m-1492 -38 c22 -2 22 -2 0 -6 -15 -3 -23 -12 -24
-26 -2 -22 -2 -22 -6 1 -3 14 -12 22 -26 23 -22 2 -22 2 1 6 14 3 22 12 23 26
2 22 2 22 6 0 3 -15 12 -23 26 -24z m395 29 c7 -7 11 -30 11 -52 l-1 -41 -7
37 c-4 20 -13 44 -21 52 -15 19 0 22 18 4z m100 0 c26 -26 8 -88 -24 -88 -19
0 -44 29 -44 50 0 21 25 50 44 50 6 0 17 -5 24 -12z m100 0 c26 -26 8 -88 -24
-88 -19 0 -44 29 -44 50 0 21 25 50 44 50 6 0 17 -5 24 -12z m96 3 c4 -5 -2
-7 -13 -4 -30 8 -35 -16 -6 -29 18 -8 25 -18 23 -32 -3 -22 -34 -34 -49 -19
-6 6 -1 9 12 9 32 -1 35 22 5 34 -39 15 -32 46 11 49 6 1 14 -3 17 -8z m104
-3 c22 -22 13 -38 -19 -38 -24 0 -30 -4 -27 -17 2 -12 13 -18 30 -18 15 1 24
-3 22 -7 -16 -26 -74 7 -74 42 0 21 25 50 44 50 6 0 17 -5 24 -12z m253 -41
c-4 -61 -11 -59 -11 3 0 29 3 50 7 46 4 -4 6 -26 4 -49z m47 41 c7 -7 11 -30
11 -52 l-2 -41 -7 43 c-3 24 -13 48 -21 53 -8 5 -9 9 -3 9 5 0 15 -5 22 -12z
m299 0 c31 -26 4 -98 -32 -84 -8 3 -15 1 -15 -4 0 -6 93 -11 238 -12 l237 -3
-237 -2 c-180 -3 -238 -6 -238 -16 0 -9 -2 -9 -8 0 -6 10 -135 13 -568 16
l-559 2 563 3 562 2 0 53 c0 47 2 53 22 54 12 1 28 -3 35 -9z m183 -32 c0 -34
4 -46 18 -49 9 -3 -1 -5 -23 -5 -22 0 -32 2 -22 5 12 3 17 15 17 43 0 28 -5
40 -17 43 -14 4 -12 5 5 6 20 1 22 -4 22 -43z m118 32 c26 -26 8 -88 -24 -88
-19 0 -44 29 -44 50 0 21 25 50 44 50 6 0 17 -5 24 -12z m53 -41 c-4 -61 -11
-59 -11 3 0 29 3 50 7 46 4 -4 6 -26 4 -49z m47 41 c7 -7 11 -30 11 -52 l-2
-41 -7 43 c-3 24 -13 48 -21 53 -8 5 -9 9 -3 9 5 0 15 -5 22 -12z m-1915 -345
c-13 -2 -33 -2 -45 0 -13 2 -3 4 22 4 25 0 35 -2 23 -4z m100 0 c-13 -2 -33
-2 -45 0 -13 2 -3 4 22 4 25 0 35 -2 23 -4z m100 0 c-13 -2 -33 -2 -45 0 -13
2 -3 4 22 4 25 0 35 -2 23 -4z m100 0 c-13 -2 -33 -2 -45 0 -13 2 -3 4 22 4
25 0 35 -2 23 -4z m100 0 c-13 -2 -33 -2 -45 0 -13 2 -3 4 22 4 25 0 35 -2 23
-4z m100 0 c-13 -2 -33 -2 -45 0 -13 2 -3 4 22 4 25 0 35 -2 23 -4z m100 0
c-13 -2 -33 -2 -45 0 -13 2 -3 4 22 4 25 0 35 -2 23 -4z m100 0 c-13 -2 -33
-2 -45 0 -13 2 -3 4 22 4 25 0 35 -2 23 -4z m100 0 c-13 -2 -33 -2 -45 0 -13
2 -3 4 22 4 25 0 35 -2 23 -4z m100 0 c-13 -2 -33 -2 -45 0 -13 2 -3 4 22 4
25 0 35 -2 23 -4z m100 0 c-13 -2 -33 -2 -45 0 -13 2 -3 4 22 4 25 0 35 -2 23
-4z m100 0 c-13 -2 -33 -2 -45 0 -13 2 -3 4 22 4 25 0 35 -2 23 -4z m100 0
c-13 -2 -33 -2 -45 0 -13 2 -3 4 22 4 25 0 35 -2 23 -4z m100 0 c-13 -2 -33
-2 -45 0 -13 2 -3 4 22 4 25 0 35 -2 23 -4z m100 0 c-13 -2 -33 -2 -45 0 -13
2 -3 4 22 4 25 0 35 -2 23 -4z m100 0 c-13 -2 -33 -2 -45 0 -13 2 -3 4 22 4
25 0 35 -2 23 -4z m100 0 c-13 -2 -33 -2 -45 0 -13 2 -3 4 22 4 25 0 35 -2 23
-4z m100 0 c-13 -2 -33 -2 -45 0 -13 2 -3 4 22 4 25 0 35 -2 23 -4z m100 0
c-13 -2 -33 -2 -45 0 -13 2 -3 4 22 4 25 0 35 -2 23 -4z m100 0 c-13 -2 -33
-2 -45 0 -13 2 -3 4 22 4 25 0 35 -2 23 -4z m100 0 c-13 -2 -33 -2 -45 0 -13
2 -3 4 22 4 25 0 35 -2 23 -4z m100 0 c-13 -2 -33 -2 -45 0 -13 2 -3 4 22 4
25 0 35 -2 23 -4z m100 0 c-13 -2 -33 -2 -45 0 -13 2 -3 4 22 4 25 0 35 -2 23
-4z m100 0 c-13 -2 -33 -2 -45 0 -13 2 -3 4 22 4 25 0 35 -2 23 -4z m100 0
c-13 -2 -33 -2 -45 0 -13 2 -3 4 22 4 25 0 35 -2 23 -4z m100 0 c-13 -2 -33
-2 -45 0 -13 2 -3 4 22 4 25 0 35 -2 23 -4z m100 0 c-13 -2 -33 -2 -45 0 -13
2 -3 4 22 4 25 0 35 -2 23 -4z m100 0 c-13 -2 -33 -2 -45 0 -13 2 -3 4 22 4
25 0 35 -2 23 -4z m100 0 c-13 -2 -33 -2 -45 0 -13 2 -3 4 22 4 25 0 35 -2 23
-4z m100 0 c-13 -2 -33 -2 -45 0 -13 2 -3 4 22 4 25 0 35 -2 23 -4z m100 0
c-13 -2 -33 -2 -45 0 -13 2 -3 4 22 4 25 0 35 -2 23 -4z m100 0 c-13 -2 -33
-2 -45 0 -13 2 -3 4 22 4 25 0 35 -2 23 -4z m100 0 c-13 -2 -33 -2 -45 0 -13
2 -3 4 22 4 25 0 35 -2 23 -4z m100 0 c-13 -2 -33 -2 -45 0 -13 2 -3 4 22 4
25 0 35 -2 23 -4z m100 0 c-13 -2 -33 -2 -45 0 -13 2 -3 4 22 4 25 0 35 -2 23
-4z m100 0 c-13 -2 -33 -2 -45 0 -13 2 -3 4 22 4 25 0 35 -2 23 -4z m100 0
c-13 -2 -33 -2 -45 0 -13 2 -3 4 22 4 25 0 35 -2 23 -4z m100 0 c-13 -2 -33
-2 -45 0 -13 2 -3 4 22 4 25 0 35 -2 23 -4z m100 0 c-13 -2 -33 -2 -45 0 -13
2 -3 4 22 4 25 0 35 -2 23 -4z m100 0 c-13 -2 -33 -2 -45 0 -13 2 -3 4 22 4
25 0 35 -2 23 -4z m100 0 c-13 -2 -33 -2 -45 0 -13 2 -3 4 22 4 25 0 35 -2 23
-4z m100 0 c-13 -2 -33 -2 -45 0 -13 2 -3 4 22 4 25 0 35 -2 23 -4z m100 0
c-13 -2 -33 -2 -45 0 -13 2 -3 4 22 4 25 0 35 -2 23 -4z m100 0 c-13 -2 -33
-2 -45 0 -13 2 -3 4 22 4 25 0 35 -2 23 -4z m100 0 c-13 -2 -33 -2 -45 0 -13
2 -3 4 22 4 25 0 35 -2 23 -4z m100 0 c-13 -2 -33 -2 -45 0 -13 2 -3 4 22 4
25 0 35 -2 23 -4z m100 0 c-13 -2 -33 -2 -45 0 -13 2 -3 4 22 4 25 0 35 -2 23
-4z m100 0 c-13 -2 -33 -2 -45 0 -13 2 -3 4 22 4 25 0 35 -2 23 -4z m100 0
c-13 -2 -33 -2 -45 0 -13 2 -3 4 22 4 25 0 35 -2 23 -4z m100 0 c-13 -2 -33
-2 -45 0 -13 2 -3 4 22 4 25 0 35 -2 23 -4z m100 0 c-13 -2 -33 -2 -45 0 -13
2 -3 4 22 4 25 0 35 -2 23 -4z m100 0 c-13 -2 -33 -2 -45 0 -13 2 -3 4 22 4
25 0 35 -2 23 -4z m100 0 c-13 -2 -33 -2 -45 0 -13 2 -3 4 22 4 25 0 35 -2 23
-4z m100 0 c-13 -2 -33 -2 -45 0 -13 2 -3 4 22 4 25 0 35 -2 23 -4z m100 0
c-13 -2 -33 -2 -45 0 -13 2 -3 4 22 4 25 0 35 -2 23 -4z m100 0 c-13 -2 -33
-2 -45 0 -13 2 -3 4 22 4 25 0 35 -2 23 -4z m100 0 c-13 -2 -33 -2 -45 0 -13
2 -3 4 22 4 25 0 35 -2 23 -4z m-5706 -180 c-2 -27 -3 -5 -3 47 0 52 1 74 3
48 2 -27 2 -69 0 -95z m206 130 c-9 -3 -13 -28 -13 -73 0 -45 4 -70 13 -73 7
-3 5 -6 -5 -6 -16 -1 -18 9 -18 79 0 70 2 80 18 79 10 0 12 -3 5 -6z m197 -73
c0 -70 -2 -80 -17 -79 -11 0 -13 3 -5 6 8 3 12 28 12 73 0 45 -4 70 -12 73 -8
3 -6 6 5 6 15 1 17 -9 17 -79z m530 12 l0 -69 -31 -1 c-23 0 -33 5 -41 24 -16
34 5 78 32 71 16 -4 20 0 20 19 0 13 5 24 10 24 6 0 10 -29 10 -68z m1967 -69
c-2 -27 -3 -5 -3 47 0 52 1 74 3 48 2 -27 2 -69 0 -95z m406 130 c-9 -3 -13
-28 -13 -73 0 -45 4 -70 13 -73 7 -3 5 -6 -5 -6 -16 -1 -18 9 -18 79 0 70 2
80 18 79 10 0 12 -3 5 -6z m297 -73 c0 -70 -2 -80 -17 -79 -11 0 -13 3 -5 6 8
3 12 28 12 73 0 45 -4 70 -12 73 -8 3 -6 6 5 6 15 1 17 -9 17 -79z m890 20 c0
-53 3 -62 23 -70 22 -10 22 -10 -3 -7 -23 2 -25 6 -28 62 -2 33 -9 63 -15 67
-8 5 -6 8 6 8 14 0 17 -9 17 -60z m504 -1 c11 11 24 21 29 21 6 0 2 -9 -8 -19
-16 -19 -16 -21 5 -50 12 -17 17 -31 12 -31 -5 0 -17 12 -27 26 -17 27 -30 24
-38 -11 -3 -11 -5 14 -4 55 0 59 1 66 6 31 l6 -43 19 21z m803 -76 c-2 -27 -3
-5 -3 47 0 52 1 74 3 48 2 -27 2 -69 0 -95z m-5497 72 c0 -41 4 -56 18 -64 13
-8 9 -10 -23 -10 -22 1 -32 3 -22 6 13 3 17 15 17 54 0 40 -3 49 -17 49 -15 0
-16 2 -3 10 26 17 30 11 30 -45z m308 48 c-20 -3 -28 -10 -28 -24 0 -14 7 -19
28 -20 l27 -2 -27 -4 c-24 -4 -28 -9 -28 -39 0 -19 -4 -34 -10 -34 -6 0 -10
28 -10 65 l0 65 38 -1 c30 -2 32 -3 10 -6z m513 -61 c10 -34 13 -62 8 -62 -5
0 -9 9 -9 20 0 28 -46 28 -55 -1 -4 -11 -9 -18 -12 -16 -9 9 30 128 40 124 6
-2 18 -31 28 -65z m93 60 c3 -5 -5 -8 -17 -8 -32 1 -30 -36 3 -44 28 -7 38
-34 20 -55 -15 -18 -46 -20 -56 -3 -4 7 -3 8 5 4 17 -11 51 3 51 20 0 8 -13
20 -29 25 -16 6 -32 17 -35 24 -10 27 43 60 58 37z m79 -44 l22 -53 6 55 6 55
1 -67 c1 -38 -2 -68 -7 -68 -4 0 -18 24 -29 53 l-21 52 0 -52 c-1 -29 -5 -53
-11 -53 -6 0 -10 28 -10 65 0 39 4 65 11 65 5 0 20 -24 32 -52z m2107 -3 c0
-41 4 -56 18 -64 13 -8 9 -10 -23 -10 -22 1 -32 3 -22 6 13 3 17 15 17 54 0
40 -3 49 -17 49 -15 0 -16 2 -3 10 26 17 30 11 30 -45z m100 0 c0 -41 4 -56
18 -64 13 -8 9 -10 -23 -10 -22 1 -32 3 -22 6 24 6 25 103 1 103 -8 0 -12 5
-9 10 3 6 13 10 21 10 10 0 14 -14 14 -55z m305 46 c-17 -3 -31 -14 -33 -24
-3 -13 4 -17 30 -19 l33 -1 -33 -4 c-29 -4 -33 -8 -30 -31 2 -21 10 -28 33
-33 29 -6 29 -7 -7 -8 l-38 -1 0 65 0 65 38 -1 c36 -1 36 -2 7 -8z m905 -112
l35 -6 -42 -2 -43 -1 2 68 1 67 6 -60 c6 -59 6 -60 41 -66z m-695 88 c18 -4
18 -5 -2 -6 -19 -1 -23 -7 -23 -36 0 -27 5 -38 23 -45 22 -10 22 -10 -3 -7
-22 2 -25 7 -28 45 -2 31 -8 42 -20 43 -15 1 -15 2 1 6 9 2 17 10 17 16 0 9 2
9 8 1 4 -7 16 -14 27 -17z m-3315 -41 c0 -34 4 -46 18 -49 9 -3 -1 -5 -23 -5
-22 0 -32 2 -22 5 12 3 17 15 17 43 0 28 -5 40 -17 43 -14 4 -12 5 5 6 20 1
22 -4 22 -43z m71 -9 c-4 -61 -11 -59 -11 3 0 29 3 50 7 46 4 -4 6 -26 4 -49z
m47 41 c7 -7 11 -30 11 -52 l-2 -41 -7 43 c-3 24 -13 48 -21 53 -8 5 -9 9 -3
9 5 0 15 -5 22 -12z m3061 -5 c9 -16 11 -16 32 2 l23 20 -18 -28 c-16 -26 -16
-30 -2 -46 9 -10 16 -22 16 -27 -1 -5 -9 1 -20 14 l-19 23 -13 -20 c-20 -32
-29 -25 -10 8 16 28 15 31 -2 50 -11 12 -14 21 -8 21 6 0 15 -8 21 -17z m239
5 c22 -22 13 -38 -19 -38 -24 0 -30 -4 -27 -17 3 -13 12 -17 31 -16 15 1 25
-2 22 -8 -17 -27 -75 5 -75 41 0 21 25 50 44 50 6 0 17 -5 24 -12z m95 2 c-15
-6 -25 -22 -31 -52 l-10 -43 -1 50 c-1 50 -1 50 32 52 27 1 29 0 10 -7z m58
-43 c-4 -61 -11 -59 -11 3 0 29 3 50 7 46 4 -4 6 -26 4 -49z m47 41 c15 -15
16 -88 1 -88 -8 0 -10 12 -6 35 4 24 1 40 -9 50 -9 8 -12 15 -7 15 5 0 14 -5
21 -12z m100 0 c7 -7 12 -28 12 -47 0 -33 -3 -36 -29 -38 -37 -3 -59 20 -41
42 7 8 24 15 37 15 22 0 24 2 12 16 -7 8 -21 13 -31 11 -10 -3 -16 -1 -12 4 8
13 38 11 52 -3z m382 -32 c0 -34 4 -46 18 -49 9 -3 -1 -5 -23 -5 -22 0 -32 2
-22 5 12 3 17 15 17 43 0 28 -5 40 -17 43 -14 4 -12 5 5 6 20 1 22 -4 22 -43z
m71 -9 c-4 -61 -11 -59 -11 3 0 29 3 50 7 46 4 -4 6 -26 4 -49z m47 41 c14
-14 16 -88 2 -88 -5 0 -9 18 -8 41 1 26 -4 44 -13 50 -8 5 -9 9 -3 9 5 0 15
-5 22 -12z m202 3 c0 -5 -8 -7 -19 -4 -30 8 -35 -16 -6 -29 18 -8 25 -18 23
-32 -3 -22 -34 -34 -49 -19 -6 6 -1 9 12 9 31 -1 34 19 4 32 -26 12 -33 37
-12 45 21 9 47 8 47 -2z m-5123 -308 c-2 -27 -3 -5 -3 47 0 52 1 74 3 48 2
-27 2 -69 0 -95z m206 130 c-9 -3 -13 -28 -13 -73 0 -45 4 -70 13 -73 7 -3 5
-6 -5 -6 -16 -1 -18 9 -18 79 0 70 2 80 18 79 10 0 12 -3 5 -6z m197 -73 c0
-70 -2 -80 -17 -79 -11 0 -13 3 -5 6 8 3 12 28 12 73 0 45 -4 70 -12 73 -8 3
-6 6 5 6 15 1 17 -9 17 -79z m1030 12 l0 -69 -31 -1 c-23 0 -33 5 -41 24 -16
34 5 78 32 71 16 -4 20 0 20 19 0 13 5 24 10 24 6 0 10 -29 10 -68z m1467 -69
c-2 -27 -3 -5 -3 47 0 52 1 74 3 48 2 -27 2 -69 0 -95z m406 130 c-9 -3 -13
-28 -13 -73 0 -45 4 -70 13 -73 7 -3 5 -6 -5 -6 -16 -1 -18 9 -18 79 0 70 2
80 18 79 10 0 12 -3 5 -6z m297 -73 c0 -70 -2 -80 -17 -79 -11 0 -13 3 -5 6 8
3 12 28 12 73 0 45 -4 70 -12 73 -8 3 -6 6 5 6 15 1 17 -9 17 -79z m1186 37
c21 8 44 -16 44 -47 0 -33 -17 -50 -48 -47 -21 1 -22 6 -21 72 1 38 4 58 6 43
3 -19 9 -25 19 -21z m1011 -94 c-2 -27 -3 -5 -3 47 0 52 1 74 3 48 2 -27 2
-69 0 -95z m-5486 117 c27 -15 24 -34 -11 -74 l-31 -35 33 -4 c29 -3 28 -4 -9
-5 -24 -1 -43 0 -43 3 0 2 14 20 31 39 34 40 35 71 2 70 -12 0 -20 3 -17 8 7
11 21 10 45 -2z m259 -15 c0 -20 5 -25 24 -25 19 0 26 6 29 28 2 15 4 -4 4
-43 0 -38 -2 -53 -4 -32 -4 32 -8 37 -29 37 -21 0 -24 -5 -24 -35 0 -19 -4
-35 -10 -35 -6 0 -10 28 -10 65 0 37 4 65 10 65 6 0 10 -11 10 -25z m153 18
c-21 -4 -23 -11 -25 -66 l-1 -62 -6 59 c-5 47 -10 61 -26 67 -13 5 -4 7 30 7
28 0 40 -3 28 -5z m100 0 c-21 -4 -23 -11 -25 -66 l-1 -62 -6 59 c-5 47 -10
61 -26 67 -13 5 -4 7 30 7 28 0 40 -3 28 -5z m95 -2 c8 -4 12 -19 10 -32 -2
-18 -10 -25 -30 -27 -22 -3 -28 -9 -31 -35 -2 -18 -5 -2 -5 36 -2 63 -1 67 21
67 12 0 28 -4 35 -9z m152 -16 c0 -20 5 -25 24 -25 19 0 26 6 29 28 2 15 4 -4
4 -43 0 -38 -2 -53 -4 -32 -4 32 -8 37 -29 37 -21 0 -24 -5 -24 -35 0 -19 -4
-35 -10 -35 -6 0 -10 28 -10 65 0 37 4 65 10 65 6 0 10 -11 10 -25z m2330 -30
c0 -41 4 -56 18 -64 13 -8 9 -10 -23 -10 -22 1 -32 3 -22 6 24 6 25 103 1 103
-8 0 -12 5 -9 10 3 6 13 10 21 10 10 0 14 -14 14 -55z m118 43 c18 -18 15 -33
-13 -66 -31 -37 -31 -40 3 -45 19 -3 14 -4 -15 -6 -24 0 -43 1 -43 4 0 2 14
20 31 39 35 40 35 72 1 69 -14 -2 -21 1 -17 7 8 14 38 13 53 -2z m298 4 c15
-10 15 -105 1 -114 -7 -4 -22 -8 -34 -8 -22 0 -23 4 -23 65 0 61 1 65 23 65
12 0 27 -4 33 -8z m710 -4 c5 -8 2 -9 -11 -5 -27 11 -45 -11 -45 -53 0 -37 19
-58 41 -44 13 8 11 42 -3 47 -8 3 -5 6 5 6 26 1 20 -62 -6 -67 -47 -9 -76 70
-40 110 18 20 48 24 59 6z m-3308 -30 c22 -22 13 -38 -19 -38 -24 0 -30 -4
-27 -17 2 -12 13 -18 30 -18 15 1 24 -3 22 -7 -16 -26 -74 7 -74 42 0 21 25
50 44 50 6 0 17 -5 24 -12z m100 0 c7 -7 12 -28 12 -47 0 -33 -3 -36 -29 -38
-37 -3 -59 20 -41 42 7 8 24 15 37 15 22 0 24 2 12 16 -7 8 -21 13 -31 11 -10
-3 -16 -1 -12 4 8 13 38 11 52 -3z m200 0 c22 -22 13 -38 -19 -38 -24 0 -30
-4 -27 -17 2 -12 13 -18 30 -18 15 1 24 -3 22 -7 -16 -26 -74 7 -74 42 0 21
25 50 44 50 6 0 17 -5 24 -12z m95 2 c-15 -6 -25 -22 -31 -52 l-10 -43 -1 50
c-1 50 -1 50 32 52 27 1 29 0 10 -7z m2305 -2 c7 -7 12 -28 12 -47 0 -33 -3
-36 -29 -38 -37 -3 -59 20 -41 42 7 8 24 15 37 15 22 0 24 2 12 16 -7 8 -21
13 -31 11 -10 -3 -16 -1 -12 4 8 13 38 11 52 -3z m99 0 c15 -12 18 -88 3 -88
-5 0 -10 21 -10 46 0 38 -3 45 -17 42 -13 -2 -20 -16 -24 -48 l-6 -45 -1 50
c-2 46 0 51 20 52 12 1 28 -3 35 -9z m100 0 c15 -12 18 -88 3 -88 -5 0 -10 21
-10 46 0 38 -3 45 -17 42 -13 -2 -20 -16 -24 -48 l-6 -45 -1 50 c-2 46 0 51
20 52 12 1 28 -3 35 -9z m101 0 c22 -22 13 -38 -19 -38 -24 0 -30 -4 -27 -17
3 -13 12 -17 31 -16 15 1 25 -2 22 -8 -17 -27 -75 5 -75 41 0 21 25 50 44 50
6 0 17 -5 24 -12z m95 2 c-15 -6 -25 -22 -31 -52 l-10 -43 -1 50 c-1 50 -1 50
32 52 27 1 29 0 10 -7z m300 0 c-15 -6 -25 -22 -31 -52 l-10 -43 -1 50 c-1 50
-1 50 32 52 27 1 29 0 10 -7z m105 -2 c7 -7 12 -28 12 -47 0 -33 -3 -36 -29
-38 -37 -3 -59 20 -41 42 7 8 24 15 37 15 22 0 24 2 12 16 -7 8 -21 13 -31 11
-10 -3 -16 -1 -12 4 8 13 38 11 52 -3z m-4721 -305 c-2 -27 -3 -5 -3 47 0 52
1 74 3 48 2 -27 2 -69 0 -95z m206 130 c-9 -3 -13 -28 -13 -73 0 -45 4 -70 13
-73 7 -3 5 -6 -5 -6 -16 -1 -18 9 -18 79 0 70 2 80 18 79 10 0 12 -3 5 -6z
m197 -73 c0 -70 -2 -80 -17 -79 -11 0 -13 3 -5 6 8 3 12 28 12 73 0 45 -4 70
-12 73 -8 3 -6 6 5 6 15 1 17 -9 17 -79z m530 12 l0 -69 -31 -1 c-23 0 -33 5
-41 24 -16 34 5 78 32 71 16 -4 20 0 20 19 0 13 5 24 10 24 6 0 10 -29 10 -68z
m356 25 c21 8 44 -16 44 -47 0 -33 -17 -50 -48 -47 -21 1 -22 6 -21 72 1 38 4
58 6 43 3 -19 9 -25 19 -21z m1611 -94 c-2 -27 -3 -5 -3 47 0 52 1 74 3 48 2
-27 2 -69 0 -95z m406 130 c-9 -3 -13 -28 -13 -73 0 -45 4 -70 13 -73 7 -3 5
-6 -5 -6 -16 -1 -18 9 -18 79 0 70 2 80 18 79 10 0 12 -3 5 -6z m297 -73 c0
-70 -2 -80 -17 -79 -11 0 -13 3 -5 6 8 3 12 28 12 73 0 45 -4 70 -12 73 -8 3
-6 6 5 6 15 1 17 -9 17 -79z m386 37 c21 8 44 -16 44 -47 0 -33 -17 -50 -48
-47 -21 1 -22 6 -21 72 1 38 4 58 6 43 3 -19 9 -25 19 -21z m808 -18 c11 11
24 21 29 21 6 0 2 -9 -8 -19 -16 -19 -16 -21 5 -50 12 -17 17 -31 12 -31 -5 0
-17 12 -27 26 -17 27 -30 24 -38 -11 -3 -11 -5 14 -4 55 0 59 1 66 6 31 l6
-43 19 21z m1003 -76 c-2 -27 -3 -5 -3 47 0 52 1 74 3 48 2 -27 2 -69 0 -95z
m-5477 112 c10 -12 10 -18 1 -29 -9 -11 -9 -19 0 -34 10 -16 10 -23 0 -36 -15
-18 -56 -21 -66 -6 -4 7 2 9 17 5 16 -4 29 -1 38 11 13 14 11 19 -9 35 -19 15
-20 19 -6 19 10 0 15 6 13 18 -2 10 -12 17 -25 16 -12 0 -20 3 -17 8 8 13 41
9 54 -7z m288 8 c-20 -3 -28 -10 -28 -24 0 -14 7 -19 28 -20 l27 -2 -27 -4
c-24 -4 -28 -9 -28 -39 0 -19 -4 -34 -10 -34 -6 0 -10 28 -10 65 l0 65 38 -1
c30 -2 32 -3 10 -6z m506 -1 c3 -5 -5 -8 -17 -8 -32 1 -30 -36 3 -44 28 -7 38
-34 20 -55 -15 -18 -46 -20 -56 -3 -4 7 -3 8 5 4 17 -11 51 3 51 20 0 8 -13
20 -29 25 -16 6 -32 17 -35 24 -10 27 43 60 58 37z m400 -8 c9 -8 16 -31 16
-49 0 -40 -22 -65 -56 -65 -23 0 -24 3 -24 65 0 62 1 65 24 65 14 0 32 -7 40
-16z m1886 -39 c0 -41 4 -56 18 -64 13 -8 9 -10 -23 -10 -22 1 -32 3 -22 6 13
3 17 15 17 54 0 40 -3 49 -17 49 -15 0 -16 2 -3 10 26 17 30 11 30 -45z m120
40 c10 -12 10 -18 1 -29 -9 -11 -9 -19 0 -34 10 -16 10 -23 0 -36 -15 -18 -56
-21 -66 -6 -4 7 2 9 17 5 16 -4 29 -1 38 11 13 14 11 19 -9 35 -19 15 -20 19
-6 19 10 0 15 6 13 18 -2 10 -12 17 -26 16 -12 0 -22 3 -22 8 0 14 47 9 60 -7z
m294 7 c3 -5 -5 -8 -17 -8 -35 1 -33 -30 2 -42 41 -15 44 -58 5 -68 -14 -4
-30 -2 -36 4 -8 8 -5 9 9 6 22 -6 48 19 38 36 -3 5 -14 10 -24 10 -17 0 -41
18 -41 31 0 25 52 50 64 31z m696 -113 l35 -6 -42 -2 -43 -1 2 68 1 67 6 -60
c6 -59 6 -60 41 -66z m-195 88 c18 -4 18 -5 -2 -6 -19 -1 -23 -7 -23 -36 0
-27 5 -38 23 -45 22 -10 22 -10 -3 -7 -22 2 -25 7 -28 45 -2 31 -8 42 -20 43
-15 1 -15 2 1 6 9 2 17 10 17 16 0 9 2 9 8 1 4 -7 16 -14 27 -17z m-3615 -41
c0 -34 4 -46 18 -49 9 -3 -1 -5 -23 -5 -22 0 -32 2 -22 5 12 3 17 15 17 43 0
28 -5 40 -17 43 -14 4 -12 5 5 6 20 1 22 -4 22 -43z m71 -9 c-4 -61 -11 -59
-11 3 0 29 3 50 7 46 4 -4 6 -26 4 -49z m47 41 c7 -7 11 -30 11 -52 l-2 -41
-7 43 c-3 24 -13 48 -21 53 -8 5 -9 9 -3 9 5 0 15 -5 22 -12z m363 -72 c14
-15 31 7 39 51 8 38 8 38 9 -12 l1 -51 -32 1 c-33 0 -33 1 -34 50 -1 41 0 43
3 10 2 -22 9 -44 14 -49z m437 72 c26 -26 8 -88 -24 -88 -19 0 -44 29 -44 50
0 21 25 50 44 50 6 0 17 -5 24 -12z m78 -43 l2 -50 -7 45 c-3 25 -10 45 -16
45 -5 0 -13 -20 -16 -45 l-6 -45 -1 51 c-2 47 0 51 21 50 19 -1 22 -7 23 -51z
m32 -6 l-3 -44 -5 52 c-3 29 -1 48 3 44 5 -5 7 -28 5 -52z m90 49 c7 -7 12
-28 12 -47 0 -33 -3 -36 -29 -38 -37 -3 -59 20 -41 42 7 8 24 15 37 15 22 0
24 2 12 16 -7 8 -21 13 -31 11 -10 -3 -16 -1 -12 4 8 13 38 11 52 -3z m82 -32
c0 -34 4 -46 18 -49 9 -3 -1 -5 -23 -5 -22 0 -32 2 -22 5 12 3 17 15 17 43 0
28 -5 40 -17 43 -14 4 -12 5 5 6 20 1 22 -4 22 -43z m71 -9 c-4 -61 -11 -59
-11 3 0 29 3 50 7 46 4 -4 6 -26 4 -49z m47 41 c7 -7 11 -30 11 -52 l-2 -41
-7 43 c-3 24 -13 48 -21 53 -8 5 -9 9 -3 9 5 0 15 -5 22 -12z m96 3 c4 -5 -2
-7 -13 -4 -30 8 -35 -16 -6 -29 18 -8 25 -18 23 -32 -3 -22 -34 -34 -49 -19
-6 6 -1 9 12 9 32 -1 35 22 5 34 -39 15 -32 46 11 49 6 1 14 -3 17 -8z m1776
-76 c10 0 16 13 18 43 4 58 22 53 22 -7 0 -49 0 -49 -32 -48 -32 2 -33 3 -34
52 l-2 50 7 -45 c4 -31 11 -45 21 -45z m227 73 c15 -12 18 -88 3 -88 -5 0 -10
21 -10 46 0 38 -3 45 -17 42 -13 -2 -20 -16 -24 -48 l-6 -45 -1 50 c-2 46 0
51 20 52 12 1 28 -3 35 -9z m101 0 c22 -22 13 -38 -19 -38 -24 0 -30 -4 -27
-17 3 -13 12 -17 31 -16 15 1 25 -2 22 -8 -17 -27 -75 5 -75 41 0 21 25 50 44
50 6 0 17 -5 24 -12z m400 0 c26 -26 8 -88 -24 -88 -19 0 -44 29 -44 50 0 21
25 50 44 50 6 0 17 -5 24 -12z m100 0 c26 -26 8 -88 -24 -88 -19 0 -44 29 -44
50 0 21 25 50 44 50 6 0 17 -5 24 -12z m172 -73 c10 0 16 13 18 43 4 58 22 53
22 -7 0 -49 0 -49 -32 -48 -32 2 -33 3 -34 52 l-2 50 7 -45 c4 -31 11 -45 21
-45z m127 73 c31 -25 4 -98 -31 -85 -10 4 -16 -2 -19 -21 -2 -15 -5 5 -6 43
-1 66 0 71 21 72 12 1 28 -3 35 -9z m-3614 -45 c-7 -2 -19 -2 -25 0 -7 3 -2 5
12 5 14 0 19 -2 13 -5z m-1406 -260 c-2 -27 -3 -5 -3 47 0 52 1 74 3 48 2 -27
2 -69 0 -95z m206 130 c-9 -3 -13 -28 -13 -73 0 -45 4 -70 13 -73 7 -3 5 -6
-5 -6 -16 -1 -18 9 -18 79 0 70 2 80 18 79 10 0 12 -3 5 -6z m197 -73 c0 -70
-2 -80 -17 -79 -11 0 -13 3 -5 6 8 3 12 28 12 73 0 45 -4 70 -12 73 -8 3 -6 6
5 6 15 1 17 -9 17 -79z m530 12 l0 -69 -31 -1 c-23 0 -33 5 -41 24 -16 34 5
78 32 71 16 -4 20 0 20 19 0 13 5 24 10 24 6 0 10 -29 10 -68z m356 25 c21 8
44 -16 44 -47 0 -33 -17 -50 -48 -47 -21 1 -22 6 -21 72 1 38 4 58 6 43 3 -19
9 -25 19 -21z m485 -28 c0 -34 -3 -64 -6 -67 -3 -3 -5 28 -5 68 0 40 3 71 6
67 3 -3 6 -34 5 -68z m319 11 c0 -54 3 -62 23 -70 13 -5 16 -9 7 -9 -28 -1
-40 22 -40 75 0 33 -5 54 -12 57 -8 3 -6 6 5 6 14 1 17 -8 17 -59z m807 -77
c-2 -27 -3 -5 -3 47 0 52 1 74 3 48 2 -27 2 -69 0 -95z m406 130 c-9 -3 -13
-28 -13 -73 0 -45 4 -70 13 -73 7 -3 5 -6 -5 -6 -16 -1 -18 9 -18 79 0 70 2
80 18 79 10 0 12 -3 5 -6z m297 -73 c0 -70 -2 -80 -17 -79 -11 0 -13 3 -5 6 8
3 12 28 12 73 0 45 -4 70 -12 73 -8 3 -6 6 5 6 15 1 17 -9 17 -79z m1594 19
c11 11 24 21 29 21 6 0 2 -9 -8 -19 -16 -19 -16 -21 5 -50 12 -17 17 -31 12
-31 -5 0 -17 12 -27 26 -17 27 -30 24 -38 -11 -3 -11 -5 14 -4 55 0 59 1 66 6
31 l6 -43 19 21z m603 -76 c-2 -27 -3 -5 -3 47 0 52 1 74 3 48 2 -27 2 -69 0
-95z m-5475 78 c1 -26 2 -56 0 -65 -4 -20 -22 -21 -22 -1 0 9 -9 15 -25 15
-14 0 -25 3 -25 7 0 13 51 93 59 93 5 0 11 -22 13 -49z m286 42 c-20 -3 -28
-10 -28 -24 0 -14 7 -19 28 -20 l27 -2 -27 -4 c-24 -4 -28 -9 -28 -39 0 -19
-4 -34 -10 -34 -6 0 -10 28 -10 65 l0 65 38 -1 c30 -2 32 -3 10 -6z m452 -39
c0 -27 4 -43 10 -39 6 3 10 -3 10 -14 0 -41 -19 -29 -25 16 -4 27 -9 56 -12
66 -2 9 0 17 6 17 6 0 11 -20 11 -46z m75 -11 c-9 -71 -21 -88 -30 -39 -4 20
-11 33 -16 30 -5 -3 -9 4 -9 15 0 32 16 25 27 -11 l9 -33 8 48 c10 67 19 59
11 -10z m388 50 c-21 -4 -23 -11 -25 -66 l-1 -62 -6 59 c-5 47 -10 61 -26 67
-13 5 -4 7 30 7 28 0 40 -3 28 -5z m1877 -48 c0 -41 4 -56 18 -64 13 -8 9 -10
-23 -10 -22 1 -32 3 -22 6 13 3 17 15 17 54 0 40 -3 49 -17 49 -15 0 -16 2 -3
10 26 17 30 11 30 -45z m122 6 c1 -26 2 -56 0 -65 -4 -20 -22 -21 -22 -1 0 9
-9 15 -25 15 -14 0 -25 2 -25 5 0 13 32 66 37 62 2 -3 -3 -17 -12 -31 -17 -25
-17 -26 5 -26 21 0 22 4 17 39 -3 22 -2 42 1 45 14 14 20 2 24 -43z m299 33
c10 -12 10 -20 1 -35 -10 -16 -9 -24 4 -44 9 -14 14 -28 11 -31 -3 -3 -13 8
-22 25 -20 40 -45 41 -45 1 0 -16 -4 -30 -10 -30 -6 0 -10 28 -10 65 0 65 0
65 29 65 16 0 34 -7 42 -16z m797 9 c-14 -4 -18 -15 -18 -58 0 -43 4 -54 18
-58 9 -3 -1 -5 -23 -6 -32 0 -36 2 -22 10 12 7 17 23 17 54 0 31 -5 47 -17 54
-14 8 -10 10 22 10 22 -1 32 -3 23 -6z m107 -28 c0 -25 -4 -31 -27 -33 -22 -3
-28 -9 -31 -35 -2 -18 -5 -1 -5 36 l-2 68 33 -3 c28 -3 32 -6 32 -33z m180
-86 c29 -6 29 -7 -7 -8 l-38 -1 2 68 1 67 6 -60 c6 -57 8 -60 36 -66z m-4205
47 c0 -34 4 -46 18 -49 9 -3 -1 -5 -23 -5 -22 0 -32 2 -22 5 12 3 17 15 17 43
0 28 -5 40 -17 43 -14 4 -12 5 5 6 20 1 22 -4 22 -43z m71 -9 c-4 -61 -11 -59
-11 3 0 29 3 50 7 46 4 -4 6 -26 4 -49z m47 41 c7 -7 11 -30 11 -52 l-2 -41
-7 43 c-3 24 -13 48 -21 53 -8 5 -9 9 -3 9 5 0 15 -5 22 -12z m400 0 c22 -22
13 -38 -19 -38 -24 0 -30 -4 -27 -17 2 -12 13 -18 30 -18 15 1 24 -3 22 -7
-16 -26 -74 7 -74 42 0 21 25 50 44 50 6 0 17 -5 24 -12z m400 0 c22 -22 13
-38 -19 -38 -24 0 -30 -4 -27 -17 2 -12 13 -18 30 -18 15 1 24 -3 22 -7 -16
-26 -74 7 -74 42 0 21 25 50 44 50 6 0 17 -5 24 -12z m106 4 c3 -5 -4 -8 -16
-8 -11 1 -25 -7 -32 -16 -15 -24 4 -53 33 -52 15 0 18 -3 12 -9 -7 -7 -19 -7
-36 1 -44 20 -28 90 22 92 6 0 14 -4 17 -8z m94 -4 c7 -7 11 -30 11 -52 l-1
-41 -7 37 c-4 20 -13 44 -21 52 -15 19 0 22 18 4z m53 -41 c-4 -61 -11 -59
-11 3 0 29 3 50 7 46 4 -4 6 -26 4 -49z m47 41 c7 -7 11 -30 11 -52 l-2 -41
-7 43 c-3 24 -13 48 -21 53 -8 5 -9 9 -3 9 5 0 15 -5 22 -12z m100 0 c26 -26
8 -88 -24 -88 -19 0 -44 29 -44 50 0 21 25 50 44 50 6 0 17 -5 24 -12z m200 0
c26 -26 8 -88 -24 -88 -19 0 -44 29 -44 50 0 21 25 50 44 50 6 0 17 -5 24 -12z
m112 -40 c0 -27 -5 -58 -10 -69 -11 -19 -44 -26 -54 -11 -3 5 5 8 17 8 12 -1
23 6 25 16 2 12 -2 15 -17 11 -28 -7 -49 37 -33 71 8 19 18 24 41 24 30 -1 31
-2 31 -50z m50 10 l13 -43 15 45 c8 25 17 40 19 34 6 -18 -41 -127 -57 -132
-12 -4 -11 0 2 15 17 18 17 22 -2 71 -11 29 -16 52 -12 52 5 0 15 -19 22 -42z
m1538 30 c22 -22 13 -38 -19 -38 -24 0 -30 -4 -27 -17 3 -13 12 -17 31 -16 15
1 25 -2 22 -8 -17 -27 -75 5 -75 41 0 21 25 50 44 50 6 0 17 -5 24 -12z m57
-28 c10 -45 21 -44 35 3 7 23 15 37 17 31 5 -14 -21 -87 -33 -91 -6 -2 -17 19
-26 47 -9 27 -12 48 -8 45 5 -3 11 -19 15 -35z m143 28 c22 -22 13 -38 -19
-38 -24 0 -30 -4 -27 -17 2 -12 13 -18 30 -18 15 1 24 -3 22 -7 -16 -26 -74 7
-74 42 0 21 25 50 44 50 6 0 17 -5 24 -12z m95 2 c-15 -6 -25 -22 -31 -52
l-10 -43 -1 50 c-1 50 -1 50 32 52 27 1 29 0 10 -7z m107 1 c0 -5 -8 -7 -19
-4 -30 8 -35 -16 -6 -29 18 -8 25 -18 23 -32 -3 -22 -34 -34 -49 -19 -6 6 -1
9 12 9 31 -1 34 19 4 32 -26 12 -33 37 -12 45 21 9 47 8 47 -2z m98 -3 c22
-22 13 -38 -19 -38 -24 0 -30 -4 -27 -17 3 -13 12 -17 31 -16 15 1 25 -2 22
-8 -17 -27 -75 5 -75 41 0 21 25 50 44 50 6 0 17 -5 24 -12z m600 0 c26 -26 8
-88 -24 -88 -19 0 -44 29 -44 50 0 21 25 50 44 50 6 0 17 -5 24 -12z m100 0
c26 -26 8 -88 -24 -88 -19 0 -44 29 -44 50 0 21 25 50 44 50 6 0 17 -5 24 -12z
m172 -73 c10 0 16 13 18 43 4 58 22 53 22 -6 0 -47 0 -48 -32 -47 -33 0 -33 1
-34 50 l-2 50 7 -45 c4 -31 11 -45 21 -45z m127 73 c31 -25 4 -98 -31 -85 -10
4 -16 -2 -19 -21 -2 -15 -5 5 -6 43 -1 66 0 71 21 72 12 1 28 -3 35 -9z
m-5420 -305 c-2 -27 -3 -5 -3 47 0 52 1 74 3 48 2 -27 2 -69 0 -95z m206 130
c-9 -3 -13 -28 -13 -73 0 -45 4 -70 13 -73 7 -3 5 -6 -5 -6 -16 -1 -18 9 -18
79 0 70 2 80 18 79 10 0 12 -3 5 -6z m197 -73 c0 -70 -2 -80 -17 -79 -11 0
-13 3 -5 6 8 3 12 28 12 73 0 45 -4 70 -12 73 -8 3 -6 6 5 6 15 1 17 -9 17
-79z m530 12 l0 -69 -31 -1 c-23 0 -33 5 -41 24 -16 34 5 78 32 71 16 -4 20 0
20 19 0 13 5 24 10 24 6 0 10 -29 10 -68z m300 0 l0 -69 -31 -1 c-23 0 -33 5
-41 24 -16 34 5 78 32 71 16 -4 20 0 20 19 0 13 5 24 10 24 6 0 10 -29 10 -68z
m860 8 c0 -54 3 -62 23 -70 13 -5 16 -9 7 -9 -28 -1 -40 22 -40 75 0 33 -5 54
-12 57 -8 3 -6 6 5 6 14 1 17 -8 17 -59z m807 -77 c-2 -27 -3 -5 -3 47 0 52 1
74 3 48 2 -27 2 -69 0 -95z m406 130 c-9 -3 -13 -28 -13 -73 0 -45 4 -70 13
-73 7 -3 5 -6 -5 -6 -16 -1 -18 9 -18 79 0 70 2 80 18 79 10 0 12 -3 5 -6z
m297 -73 c0 -70 -2 -80 -17 -79 -11 0 -13 3 -5 6 8 3 12 28 12 73 0 45 -4 70
-12 73 -8 3 -6 6 5 6 15 1 17 -9 17 -79z m590 20 c0 -53 3 -62 23 -70 22 -10
22 -10 -3 -7 -23 2 -25 6 -28 62 -2 33 -9 63 -15 67 -8 5 -6 8 6 8 14 0 17 -9
17 -60z m1607 -77 c-2 -27 -3 -5 -3 47 0 52 1 74 3 48 2 -27 2 -69 0 -95z
m-5499 120 c-31 -5 -39 -33 -9 -33 48 0 53 -74 5 -86 -15 -4 -30 -2 -37 5 -9
10 -6 11 15 6 20 -5 29 -2 37 13 13 25 -9 58 -33 49 -13 -5 -16 0 -16 23 0 27
3 30 33 29 30 -2 30 -2 5 -6z m310 0 c-20 -3 -28 -10 -28 -24 0 -14 7 -19 28
-20 l27 -2 -27 -4 c-24 -4 -28 -9 -28 -39 0 -19 -4 -34 -10 -34 -6 0 -10 28
-10 65 l0 65 38 -1 c30 -2 32 -3 10 -6z m513 -61 c10 -34 13 -62 8 -62 -5 0
-9 9 -9 20 0 28 -46 28 -55 -1 -4 -11 -9 -18 -12 -16 -9 9 30 128 40 124 6 -2
18 -31 28 -65z m597 59 c8 -4 12 -19 10 -32 -2 -18 -10 -25 -30 -27 -22 -3
-28 -9 -31 -35 -2 -18 -5 -2 -5 36 -2 63 -1 67 21 67 12 0 28 -4 35 -9z m1682
-46 c0 -41 4 -56 18 -64 13 -8 9 -10 -23 -10 -22 1 -32 3 -22 6 24 6 25 103 1
103 -8 0 -12 5 -9 10 3 6 13 10 21 10 10 0 14 -14 14 -55z m98 48 c-31 -5 -39
-33 -9 -33 48 0 53 -74 5 -86 -15 -4 -30 -2 -37 6 -9 10 -8 11 8 6 28 -8 47 7
43 35 -2 18 -9 24 -25 23 -19 0 -23 5 -23 28 0 25 3 28 33 27 30 -2 30 -2 5
-6z m328 -5 c5 -8 2 -9 -11 -5 -27 11 -45 -11 -45 -53 0 -37 19 -58 41 -44 13
8 11 42 -3 47 -8 3 -5 6 5 6 26 1 20 -62 -6 -67 -26 -5 -57 26 -57 57 0 52 55
94 76 59z m789 -21 c18 -4 18 -5 -2 -6 -19 -1 -23 -7 -23 -36 0 -27 5 -38 23
-45 22 -10 22 -10 -3 -7 -22 2 -25 7 -28 45 -2 31 -8 42 -20 43 -15 1 -15 2 1
6 9 2 17 10 17 16 0 9 2 9 8 1 4 -7 16 -14 27 -17z m-3915 -41 c0 -34 4 -46
18 -49 9 -3 -1 -5 -23 -5 -22 0 -32 2 -22 5 12 3 17 15 17 43 0 28 -5 40 -17
43 -14 4 -12 5 5 6 20 1 22 -4 22 -43z m71 -9 c-4 -61 -11 -59 -11 3 0 29 3
50 7 46 4 -4 6 -26 4 -49z m47 41 c7 -7 11 -30 11 -52 l-2 -41 -7 43 c-3 24
-13 48 -21 53 -8 5 -9 9 -3 9 5 0 15 -5 22 -12z m478 -43 l2 -50 -7 45 c-3 25
-10 45 -16 45 -5 0 -13 -20 -16 -45 l-6 -45 -1 51 c-2 47 0 51 21 50 19 -1 22
-7 23 -51z m32 -6 l-3 -44 -5 52 c-3 29 -1 48 3 44 5 -5 7 -28 5 -52z m72 17
c0 -34 4 -46 18 -49 9 -3 -1 -5 -23 -5 -22 0 -32 2 -22 5 12 3 17 15 17 43 0
28 -5 40 -17 43 -14 4 -12 5 5 6 20 1 22 -4 22 -43z m71 -9 c-4 -61 -11 -59
-11 3 0 29 3 50 7 46 4 -4 6 -26 4 -49z m47 41 c7 -7 11 -30 11 -52 l-2 -41
-7 43 c-3 24 -13 48 -21 53 -8 5 -9 9 -3 9 5 0 15 -5 22 -12z m300 0 c7 -7 12
-28 12 -47 0 -33 -3 -36 -29 -38 -37 -3 -59 20 -41 42 7 8 24 15 37 15 22 0
24 2 12 16 -7 8 -21 13 -31 11 -10 -3 -16 -1 -12 4 8 13 38 11 52 -3z m53 -41
c-4 -61 -11 -59 -11 3 0 29 3 50 7 46 4 -4 6 -26 4 -49z m47 41 c7 -7 11 -30
11 -52 l-2 -41 -7 43 c-3 24 -13 48 -21 53 -8 5 -9 9 -3 9 5 0 15 -5 22 -12z
m100 0 c22 -22 13 -38 -19 -38 -24 0 -30 -4 -27 -17 2 -12 13 -18 30 -18 15 1
24 -3 22 -7 -16 -26 -74 7 -74 42 0 21 25 50 44 50 6 0 17 -5 24 -12z m1900 0
c22 -22 13 -38 -19 -38 -24 0 -30 -4 -27 -17 3 -13 12 -17 31 -16 15 1 25 -2
22 -8 -17 -27 -75 5 -75 41 0 21 25 50 44 50 6 0 17 -5 24 -12z m100 0 c26
-26 8 -88 -24 -88 -19 0 -44 29 -44 50 0 21 25 50 44 50 6 0 17 -5 24 -12z
m300 0 c26 -26 8 -88 -24 -88 -19 0 -44 29 -44 50 0 21 25 50 44 50 6 0 17 -5
24 -12z m106 4 c3 -5 -4 -8 -16 -8 -11 1 -25 -7 -32 -16 -14 -24 4 -53 32 -52
12 0 19 -3 16 -8 -8 -12 -38 -10 -52 4 -7 7 -12 24 -12 38 0 14 5 31 12 38 14
14 44 16 52 4z m94 -4 c7 -7 12 -28 12 -47 0 -33 -3 -36 -29 -38 -37 -3 -59
20 -41 42 7 8 24 15 37 15 22 0 24 2 12 16 -7 8 -21 13 -31 11 -10 -3 -16 -1
-12 4 8 13 38 11 52 -3z m182 -32 c0 -34 4 -46 18 -49 9 -3 -1 -5 -23 -5 -22
0 -32 2 -22 5 12 3 17 15 17 43 0 28 -5 40 -17 43 -14 4 -12 5 5 6 20 1 22 -4
22 -43z m118 32 c26 -26 8 -88 -24 -88 -19 0 -44 29 -44 50 0 21 25 50 44 50
6 0 17 -5 24 -12z m99 0 c15 -12 18 -88 3 -88 -5 0 -10 21 -10 46 0 38 -3 45
-17 42 -13 -2 -20 -16 -24 -48 l-6 -45 -1 50 c-2 46 0 51 20 52 12 1 28 -3 35
-9z m-814 -45 c-7 -2 -19 -2 -25 0 -7 3 -2 5 12 5 14 0 19 -2 13 -5z m-4106
-260 c-2 -27 -3 -5 -3 47 0 52 1 74 3 48 2 -27 2 -69 0 -95z m206 130 c-9 -3
-13 -28 -13 -73 0 -45 4 -70 13 -73 7 -3 5 -6 -5 -6 -16 -1 -18 9 -18 79 0 70
2 80 18 79 10 0 12 -3 5 -6z m197 -73 c0 -70 -2 -80 -17 -79 -11 0 -13 3 -5 6
8 3 12 28 12 73 0 45 -4 70 -12 73 -8 3 -6 6 5 6 15 1 17 -9 17 -79z m530 12
l0 -69 -31 -1 c-23 0 -33 5 -41 24 -16 34 5 78 32 71 16 -4 20 0 20 19 0 13 5
24 10 24 6 0 10 -29 10 -68z m1967 -69 c-2 -27 -3 -5 -3 47 0 52 1 74 3 48 2
-27 2 -69 0 -95z m406 130 c-9 -3 -13 -28 -13 -73 0 -45 4 -70 13 -73 7 -3 5
-6 -5 -6 -16 -1 -18 9 -18 79 0 70 2 80 18 79 10 0 12 -3 5 -6z m297 -73 c0
-70 -2 -80 -17 -79 -11 0 -13 3 -5 6 8 3 12 28 12 73 0 45 -4 70 -12 73 -8 3
-6 6 5 6 15 1 17 -9 17 -79z m894 19 c11 11 24 21 29 21 6 0 2 -9 -8 -19 -16
-19 -16 -21 5 -50 12 -17 17 -31 12 -31 -5 0 -17 12 -27 26 -17 27 -30 24 -38
-11 -3 -11 -5 14 -4 55 0 59 1 66 6 31 l6 -43 19 21z m1303 -76 c-2 -27 -3 -5
-3 47 0 52 1 74 3 48 2 -27 2 -69 0 -95z m-5499 115 c-16 -5 -28 -16 -28 -24
0 -8 6 -11 15 -8 36 14 62 -50 30 -76 -24 -20 -54 -3 -61 36 -8 43 16 84 49
83 20 0 19 -2 -5 -11z m310 5 c-20 -3 -28 -10 -28 -24 0 -14 7 -19 28 -20 l27
-2 -27 -4 c-24 -4 -28 -9 -28 -39 0 -19 -4 -34 -10 -34 -6 0 -10 28 -10 65 l0
65 38 -1 c30 -2 32 -3 10 -6z m506 -9 c21 -20 21 -78 0 -98 -8 -9 -26 -16 -40
-16 -23 0 -24 3 -24 65 0 62 1 65 24 65 14 0 32 -7 40 -16z m2286 -39 c0 -41
4 -56 18 -64 13 -8 9 -10 -23 -10 -22 1 -32 3 -22 6 24 6 25 103 1 103 -8 0
-12 5 -9 10 3 6 13 10 21 10 10 0 14 -14 14 -55z m120 44 c0 -5 -4 -8 -9 -5
-14 9 -41 -4 -41 -20 0 -8 6 -11 15 -8 36 14 62 -50 30 -76 -42 -35 -84 44
-51 95 16 25 56 35 56 14z m294 -5 c9 -8 16 -31 16 -49 0 -40 -22 -65 -56 -65
-23 0 -24 3 -24 65 0 62 1 65 24 65 14 0 32 -7 40 -16z m79 -36 l22 -53 6 55
6 55 1 -67 c1 -38 -2 -68 -7 -68 -5 0 -18 21 -29 48 l-20 47 -1 -47 c-1 -27
-5 -48 -11 -48 -6 0 -10 28 -10 65 0 39 4 65 11 65 5 0 20 -24 32 -52z m121
44 c3 -5 -5 -8 -17 -8 -35 1 -33 -30 2 -42 24 -8 31 -17 31 -36 0 -30 -37 -45
-67 -27 -15 10 -14 10 8 5 16 -3 30 0 38 10 15 18 6 36 -18 36 -17 0 -41 18
-41 31 0 25 52 50 64 31z m196 -113 l35 -6 -42 -2 -43 -1 2 68 1 67 6 -60 c6
-59 6 -60 41 -66z m-2595 88 c18 -4 18 -5 -2 -6 -19 -1 -23 -7 -23 -36 0 -27
5 -38 23 -45 22 -10 22 -10 -3 -7 -22 2 -25 7 -28 45 -2 31 -8 42 -20 43 -15
1 -15 2 1 6 9 2 17 10 17 16 0 9 2 9 8 1 4 -7 16 -14 27 -17z m-915 -41 c0
-34 4 -46 18 -49 9 -3 -1 -5 -23 -5 -22 0 -32 2 -22 5 12 3 17 15 17 43 0 28
-5 40 -17 43 -14 4 -12 5 5 6 20 1 22 -4 22 -43z m71 -9 c-4 -61 -11 -59 -11
3 0 29 3 50 7 46 4 -4 6 -26 4 -49z m47 41 c7 -7 11 -30 11 -52 l-2 -41 -7 43
c-3 24 -13 48 -21 53 -8 5 -9 9 -3 9 5 0 15 -5 22 -12z m382 -32 c0 -34 4 -46
18 -49 9 -3 -1 -5 -23 -5 -22 0 -32 2 -22 5 12 3 17 15 17 43 0 28 -5 40 -17
43 -14 4 -12 5 5 6 20 1 22 -4 22 -43z m113 34 c-15 -6 -25 -22 -31 -52 l-10
-43 -1 50 c-1 50 -1 50 32 52 27 1 29 0 10 -7z m105 -2 c22 -22 13 -38 -19
-38 -24 0 -30 -4 -27 -17 2 -12 13 -18 30 -18 15 1 24 -3 22 -7 -16 -26 -74 7
-74 42 0 21 25 50 44 50 6 0 17 -5 24 -12z m106 4 c3 -5 -4 -8 -16 -8 -11 1
-25 -7 -32 -16 -15 -24 4 -53 33 -52 15 0 18 -3 12 -9 -7 -7 -19 -7 -36 1 -44
20 -28 90 22 92 6 0 14 -4 17 -8z m194 -4 c26 -26 8 -88 -24 -88 -19 0 -44 29
-44 50 0 21 25 50 44 50 6 0 17 -5 24 -12z m95 2 c-15 -6 -25 -22 -31 -52
l-10 -43 -1 50 c-1 50 -1 50 32 52 27 1 29 0 10 -7z m67 -32 l13 -43 15 45 c8
25 17 40 19 34 6 -18 -41 -127 -57 -132 -12 -4 -11 0 2 15 17 18 17 22 -2 71
-11 29 -16 52 -12 52 5 0 15 -19 22 -42z m2438 30 c26 -26 8 -88 -24 -88 -19
0 -44 29 -44 50 0 21 25 50 44 50 6 0 17 -5 24 -12z m100 0 c26 -26 8 -88 -24
-88 -19 0 -44 29 -44 50 0 21 25 50 44 50 6 0 17 -5 24 -12z m172 -73 c10 0
16 13 18 43 4 58 22 53 22 -7 0 -49 0 -49 -32 -48 -32 2 -33 3 -34 52 l-2 50
7 -45 c4 -31 11 -45 21 -45z m127 73 c31 -25 4 -98 -31 -85 -10 4 -16 -2 -19
-21 -2 -15 -5 5 -6 43 -1 66 0 71 21 72 12 1 28 -3 35 -9z m-4720 -305 c-2
-27 -3 -5 -3 47 0 52 1 74 3 48 2 -27 2 -69 0 -95z m206 130 c-9 -3 -13 -28
-13 -73 0 -45 4 -70 13 -73 7 -3 5 -6 -5 -6 -16 -1 -18 9 -18 79 0 70 2 80 18
79 10 0 12 -3 5 -6z m197 -73 c0 -70 -2 -80 -17 -79 -11 0 -13 3 -5 6 8 3 12
28 12 73 0 45 -4 70 -12 73 -8 3 -6 6 5 6 15 1 17 -9 17 -79z m271 9 c0 -34
-3 -64 -6 -67 -3 -3 -5 28 -5 68 0 40 3 71 6 67 3 -3 6 -34 5 -68z m747 64
c-10 -2 -18 -11 -18 -19 0 -8 8 -15 18 -15 16 -1 16 -2 0 -6 -14 -3 -18 -15
-18 -49 0 -24 -4 -44 -10 -44 -5 0 -10 20 -10 45 0 25 -4 45 -10 45 -5 0 0 11
12 25 12 14 29 24 37 24 13 -1 12 -2 -1 -6z m1479 -130 c-2 -27 -3 -5 -3 47 0
52 1 74 3 48 2 -27 2 -69 0 -95z m406 130 c-9 -3 -13 -28 -13 -73 0 -45 4 -70
13 -73 7 -3 5 -6 -5 -6 -16 -1 -18 9 -18 79 0 70 2 80 18 79 10 0 12 -3 5 -6z
m297 -73 c0 -70 -2 -80 -17 -79 -11 0 -13 3 -5 6 8 3 12 28 12 73 0 45 -4 70
-12 73 -8 3 -6 6 5 6 15 1 17 -9 17 -79z m2197 -57 c-2 -27 -3 -5 -3 47 0 52
1 74 3 48 2 -27 2 -69 0 -95z m-5470 115 c-2 -7 -13 -37 -23 -65 -10 -29 -22
-53 -26 -53 -4 0 1 23 12 50 26 66 26 68 -12 73 -28 3 -26 4 11 5 31 2 42 -2
38 -10z m233 -34 c0 -27 4 -43 10 -39 6 3 10 -3 10 -14 0 -41 -19 -29 -25 16
-4 27 -9 56 -12 66 -2 9 0 17 6 17 6 0 11 -20 11 -46z m75 -11 c-9 -71 -21
-88 -30 -39 -4 20 -11 33 -16 30 -5 -3 -9 4 -9 15 0 32 16 25 27 -11 l9 -33 8
48 c10 67 19 59 11 -10z m583 50 c-14 -4 -18 -15 -18 -58 0 -43 4 -54 18 -58
9 -3 -1 -5 -23 -6 -32 0 -36 2 -22 10 12 7 17 23 17 54 0 31 -5 47 -17 54 -14
8 -10 10 22 10 22 -1 32 -3 23 -6z m2182 -48 c0 -41 4 -56 18 -64 13 -8 9 -10
-23 -10 -22 1 -32 3 -22 6 24 6 25 103 1 103 -8 0 -12 5 -9 10 3 6 13 10 21
10 10 0 14 -14 14 -55z m127 43 c-2 -7 -13 -37 -23 -65 -10 -29 -22 -53 -26
-53 -4 0 1 24 12 53 11 28 20 55 20 59 0 4 -15 9 -32 11 -28 3 -26 4 11 5 31
2 42 -2 38 -10z m296 5 c-21 -4 -23 -11 -25 -66 l-1 -62 -6 59 c-5 47 -10 61
-26 67 -13 5 -4 7 30 7 28 0 40 -3 28 -5z m598 -9 c10 -12 10 -20 1 -35 -10
-16 -9 -24 4 -44 9 -14 14 -28 11 -31 -3 -3 -13 8 -22 25 -20 40 -45 41 -45 1
0 -16 -4 -30 -10 -30 -6 0 -10 28 -10 65 0 65 0 65 29 65 16 0 34 -7 42 -16z
m-2506 -17 c18 -4 18 -5 -2 -6 -19 -1 -23 -7 -23 -36 0 -27 5 -38 23 -45 22
-10 22 -10 -3 -7 -22 2 -25 7 -28 45 -2 31 -8 42 -20 43 -15 1 -15 2 1 6 9 2
17 10 17 16 0 9 2 9 8 1 4 -7 16 -14 27 -17z m2800 0 c18 -4 18 -5 -2 -6 -19
-1 -23 -7 -23 -36 0 -27 5 -38 23 -45 22 -10 22 -10 -3 -7 -22 2 -25 7 -28 45
-2 31 -8 42 -20 43 -15 1 -15 2 1 6 9 2 17 10 17 16 0 9 2 9 8 1 4 -7 16 -14
27 -17z m-3997 -9 c7 -7 11 -30 11 -52 l-1 -41 -7 37 c-4 20 -13 44 -21 52
-15 19 0 22 18 4z m100 0 c26 -26 8 -88 -24 -88 -19 0 -44 29 -44 50 0 21 25
50 44 50 6 0 17 -5 24 -12z m82 -32 c0 -34 4 -46 18 -49 9 -3 -1 -5 -23 -5
-22 0 -32 2 -22 5 12 3 17 15 17 43 0 28 -5 40 -17 43 -14 4 -12 5 5 6 20 1
22 -4 22 -43z m114 35 c4 -5 -2 -7 -13 -4 -30 8 -35 -16 -6 -29 18 -8 25 -18
23 -32 -3 -22 -34 -34 -49 -19 -6 6 -1 9 12 9 32 -1 35 22 5 34 -39 15 -32 46
11 49 6 1 14 -3 17 -8z m257 -44 c-4 -61 -11 -59 -11 3 0 29 3 50 7 46 4 -4 6
-26 4 -49z m47 41 c7 -7 11 -30 11 -52 l-2 -41 -7 43 c-3 24 -13 48 -21 53 -8
5 -9 9 -3 9 5 0 15 -5 22 -12z m200 0 c26 -26 8 -88 -24 -88 -19 0 -44 29 -44
50 0 21 25 50 44 50 6 0 17 -5 24 -12z m95 2 c-15 -6 -25 -22 -31 -52 l-10
-43 -1 50 c-1 50 -1 50 32 52 27 1 29 0 10 -7z m83 -45 l2 -50 -7 45 c-3 25
-10 45 -16 45 -5 0 -13 -20 -16 -45 l-6 -45 -1 51 c-2 47 0 51 21 50 19 -1 22
-7 23 -51z m32 -6 l-3 -44 -5 52 c-3 29 -1 48 3 44 5 -5 7 -28 5 -52z m90 49
c7 -7 12 -28 12 -47 0 -33 -3 -36 -29 -38 -37 -3 -59 20 -41 42 7 8 24 15 37
15 22 0 24 2 12 16 -7 8 -21 13 -31 11 -10 -3 -16 -1 -12 4 8 13 38 11 52 -3z
m182 -32 c0 -34 4 -46 18 -49 9 -3 -1 -5 -23 -5 -22 0 -32 2 -22 5 12 3 17 15
17 43 0 28 -5 40 -17 43 -14 4 -12 5 5 6 20 1 22 -4 22 -43z m118 32 c26 -26
8 -88 -24 -88 -19 0 -44 29 -44 50 0 21 25 50 44 50 6 0 17 -5 24 -12z m53
-41 c-4 -61 -11 -59 -11 3 0 29 3 50 7 46 4 -4 6 -26 4 -49z m47 41 c7 -7 11
-30 11 -52 l-2 -41 -7 43 c-3 24 -13 48 -21 53 -8 5 -9 9 -3 9 5 0 15 -5 22
-12z m1695 2 c-15 -6 -25 -22 -31 -52 l-10 -43 -1 50 c-1 50 -1 50 32 52 27 1
29 0 10 -7z m105 -2 c7 -7 12 -28 12 -47 0 -33 -3 -36 -29 -38 -37 -3 -59 20
-41 42 7 8 24 15 37 15 22 0 24 2 12 16 -7 8 -21 13 -31 11 -10 -3 -16 -1 -12
4 8 13 38 11 52 -3z m106 4 c3 -5 -4 -8 -16 -8 -11 1 -25 -7 -32 -16 -14 -24
4 -53 32 -52 12 0 19 -3 16 -8 -8 -12 -38 -10 -52 4 -7 7 -12 24 -12 38 0 14
5 31 12 38 14 14 44 16 52 4z m94 -4 c22 -22 13 -38 -19 -38 -24 0 -30 -4 -27
-17 3 -13 12 -17 31 -16 15 1 25 -2 22 -8 -17 -27 -75 5 -75 41 0 21 25 50 44
50 6 0 17 -5 24 -12z m300 0 c26 -26 8 -88 -24 -88 -19 0 -44 29 -44 50 0 21
25 50 44 50 6 0 17 -5 24 -12z m72 -73 c10 0 16 13 18 43 4 58 22 53 22 -7 0
-49 0 -49 -32 -48 -32 2 -33 3 -34 52 l-2 50 7 -45 c4 -31 11 -45 21 -45z
m228 73 c22 -22 13 -38 -19 -38 -24 0 -30 -4 -27 -17 3 -13 12 -17 31 -16 15
1 25 -2 22 -8 -17 -27 -75 5 -75 41 0 21 25 50 44 50 6 0 17 -5 24 -12z
m-4821 -305 c-2 -27 -3 -5 -3 47 0 52 1 74 3 48 2 -27 2 -69 0 -95z m206 130
c-9 -3 -13 -28 -13 -73 0 -45 4 -70 13 -73 7 -3 5 -6 -5 -6 -16 -1 -18 9 -18
79 0 70 2 80 18 79 10 0 12 -3 5 -6z m197 -73 c0 -70 -2 -80 -17 -79 -11 0
-13 3 -5 6 8 3 12 28 12 73 0 45 -4 70 -12 73 -8 3 -6 6 5 6 15 1 17 -9 17
-79z m2497 -57 c-2 -27 -3 -5 -3 47 0 52 1 74 3 48 2 -27 2 -69 0 -95z m406
130 c-9 -3 -13 -28 -13 -73 0 -45 4 -70 13 -73 7 -3 5 -6 -5 -6 -16 -1 -18 9
-18 79 0 70 2 80 18 79 10 0 12 -3 5 -6z m297 -73 c0 -70 -2 -80 -17 -79 -11
0 -13 3 -5 6 8 3 12 28 12 73 0 45 -4 70 -12 73 -8 3 -6 6 5 6 15 1 17 -9 17
-79z m790 20 c0 -54 3 -62 23 -70 13 -5 16 -9 7 -9 -28 -1 -40 22 -40 75 0 33
-5 54 -12 57 -8 3 -6 6 5 6 14 1 17 -8 17 -59z m100 0 c0 -53 3 -62 23 -70 22
-10 22 -10 -3 -7 -23 2 -25 6 -28 62 -2 33 -9 63 -15 67 -8 5 -6 8 6 8 14 0
17 -9 17 -60z m1307 -77 c-2 -27 -3 -5 -3 47 0 52 1 74 3 48 2 -27 2 -69 0
-95z m-5477 112 c10 -12 10 -19 2 -27 -8 -8 -7 -16 1 -29 24 -39 -34 -79 -63
-44 -11 13 -11 21 -3 35 7 10 9 28 6 40 -9 36 33 54 57 25z m298 6 c8 -4 12
-19 10 -32 -2 -18 -10 -25 -30 -27 -22 -3 -28 -9 -31 -35 -2 -18 -5 -2 -5 36
-2 63 -1 67 21 67 12 0 28 -4 35 -9z m496 1 c3 -5 -5 -8 -17 -8 -32 1 -30 -36
3 -44 28 -7 38 -34 20 -55 -15 -18 -46 -20 -56 -3 -4 7 -3 8 5 4 17 -11 51 3
51 20 0 8 -13 20 -29 25 -16 6 -32 17 -35 24 -10 27 43 60 58 37z m2286 -47
c0 -41 4 -56 18 -64 13 -8 9 -10 -23 -10 -22 1 -32 3 -22 6 24 6 25 103 1 103
-8 0 -12 5 -9 10 3 6 13 10 21 10 10 0 14 -14 14 -55z m120 40 c10 -12 10 -19
2 -27 -8 -8 -7 -16 1 -29 24 -39 -34 -79 -63 -44 -11 13 -11 21 -2 35 6 11 9
26 6 35 -15 39 29 62 56 30z m288 8 c-20 -3 -28 -10 -28 -24 0 -14 7 -19 28
-20 l27 -2 -27 -4 c-24 -4 -28 -9 -28 -39 0 -19 -4 -34 -10 -34 -6 0 -10 28
-10 65 l0 65 38 -1 c30 -2 32 -3 10 -6z m906 -9 c9 -8 16 -31 16 -49 0 -40
-22 -65 -56 -65 -23 0 -24 3 -24 65 0 62 1 65 24 65 14 0 32 -7 40 -16z
m-3799 -17 c18 -4 18 -5 -2 -6 -19 -1 -23 -7 -23 -36 0 -27 5 -38 23 -45 22
-10 22 -10 -3 -7 -22 2 -25 7 -28 45 -2 31 -8 42 -20 43 -15 1 -15 2 1 6 9 2
17 10 17 16 0 9 2 9 8 1 4 -7 16 -14 27 -17z m4000 0 c18 -4 18 -5 -2 -6 -19
-1 -23 -7 -23 -36 0 -27 5 -38 23 -45 22 -10 22 -10 -3 -7 -22 2 -25 7 -28 45
-2 31 -8 42 -20 43 -15 1 -15 2 1 6 9 2 17 10 17 16 0 9 2 9 8 1 4 -7 16 -14
27 -17z m300 0 c18 -4 18 -5 -2 -6 -19 -1 -23 -7 -23 -36 0 -27 5 -38 23 -45
22 -10 22 -10 -3 -7 -22 2 -25 7 -28 45 -2 31 -8 42 -20 43 -15 1 -15 2 1 6 9
2 17 10 17 16 0 9 2 9 8 1 4 -7 16 -14 27 -17z m-4497 -9 c26 -26 8 -88 -24
-88 -19 0 -44 29 -44 50 0 21 25 50 44 50 6 0 17 -5 24 -12z m95 2 c-15 -6
-25 -22 -31 -52 l-10 -43 -1 50 c-1 50 -1 50 32 52 27 1 29 0 10 -7z m411 2
c3 -5 -4 -8 -16 -8 -11 1 -25 -7 -32 -16 -15 -24 4 -53 33 -52 15 0 18 -3 12
-9 -7 -7 -19 -7 -36 1 -44 20 -28 90 22 92 6 0 14 -4 17 -8z m94 -4 c7 -7 12
-28 12 -47 0 -33 -3 -36 -29 -38 -37 -3 -59 20 -41 42 7 8 24 15 37 15 22 0
24 2 12 16 -7 8 -21 13 -31 11 -10 -3 -16 -1 -12 4 8 13 38 11 52 -3z m53 -41
c-4 -61 -11 -59 -11 3 0 29 3 50 7 46 4 -4 6 -26 4 -49z m47 41 c7 -7 11 -30
11 -52 l-2 -41 -7 43 c-3 24 -13 48 -21 53 -8 5 -9 9 -3 9 5 0 15 -5 22 -12z
m2482 -32 c0 -34 4 -46 18 -49 9 -3 -1 -5 -23 -5 -22 0 -32 2 -22 5 12 3 17
15 17 43 0 28 -5 40 -17 43 -14 4 -12 5 5 6 20 1 22 -4 22 -43z m113 34 c-15
-6 -25 -22 -31 -52 l-10 -43 -1 50 c-1 50 -1 50 32 52 27 1 29 0 10 -7z m105
-2 c22 -22 13 -38 -19 -38 -24 0 -30 -4 -27 -17 3 -13 12 -17 31 -16 15 1 25
-2 22 -8 -17 -27 -75 5 -75 41 0 21 25 50 44 50 6 0 17 -5 24 -12z m46 -30 c7
-32 8 -33 17 -9 5 13 12 22 14 19 6 -6 -18 -68 -26 -68 -4 0 -10 16 -13 36 -4
19 -10 43 -13 51 -4 10 -2 14 4 10 6 -4 14 -21 17 -39z m66 -19 c-9 -31 -14
-39 -21 -28 -11 18 -12 32 0 25 5 -3 12 11 16 32 4 20 9 32 12 25 2 -6 -1 -31
-7 -54z m88 49 c7 -7 12 -28 12 -47 0 -33 -3 -36 -29 -38 -37 -3 -59 20 -41
42 7 8 24 15 37 15 22 0 24 2 12 16 -7 8 -21 13 -31 11 -10 -3 -16 -1 -12 4 8
13 38 11 52 -3z m500 0 c22 -22 13 -38 -19 -38 -24 0 -30 -4 -27 -17 3 -13 12
-17 31 -16 15 1 25 -2 22 -8 -17 -27 -75 5 -75 41 0 21 25 50 44 50 6 0 17 -5
24 -12z m200 0 c22 -22 13 -38 -19 -38 -24 0 -30 -4 -27 -17 3 -13 12 -17 31
-16 15 1 25 -2 22 -8 -17 -27 -75 5 -75 41 0 21 25 50 44 50 6 0 17 -5 24 -12z
m106 4 c3 -5 -4 -8 -16 -8 -11 1 -25 -7 -32 -16 -14 -24 4 -53 32 -52 12 0 19
-3 16 -8 -8 -12 -38 -10 -52 4 -7 7 -12 24 -12 38 0 14 5 31 12 38 14 14 44
16 52 4z m-5127 -309 c-2 -27 -3 -5 -3 47 0 52 1 74 3 48 2 -27 2 -69 0 -95z
m206 130 c-9 -3 -13 -28 -13 -73 0 -45 4 -70 13 -73 7 -3 5 -6 -5 -6 -16 -1
-18 9 -18 79 0 70 2 80 18 79 10 0 12 -3 5 -6z m197 -73 c0 -70 -2 -80 -17
-79 -11 0 -13 3 -5 6 8 3 12 28 12 73 0 45 -4 70 -12 73 -8 3 -6 6 5 6 15 1
17 -9 17 -79z m2497 -57 c-2 -27 -3 -5 -3 47 0 52 1 74 3 48 2 -27 2 -69 0
-95z m406 130 c-9 -3 -13 -28 -13 -73 0 -45 4 -70 13 -73 7 -3 5 -6 -5 -6 -16
-1 -18 9 -18 79 0 70 2 80 18 79 10 0 12 -3 5 -6z m297 -73 c0 -70 -2 -80 -17
-79 -11 0 -13 3 -5 6 8 3 12 28 12 73 0 45 -4 70 -12 73 -8 3 -6 6 5 6 15 1
17 -9 17 -79z m390 20 c0 -53 3 -62 23 -70 22 -10 22 -10 -3 -7 -23 2 -25 6
-28 62 -2 33 -9 63 -15 67 -8 5 -6 8 6 8 14 0 17 -9 17 -60z m496 17 c21 8 44
-16 44 -47 0 -33 -17 -50 -48 -47 -21 1 -22 6 -21 72 1 38 4 58 6 43 3 -19 9
-25 19 -21z m204 -17 c0 -53 3 -62 23 -70 22 -10 22 -10 -3 -7 -23 2 -25 6
-28 62 -2 33 -9 63 -15 67 -8 5 -6 8 6 8 14 0 17 -9 17 -60z m1107 -77 c-2
-27 -3 -5 -3 47 0 52 1 74 3 48 2 -27 2 -69 0 -95z m-5477 108 c15 -29 12 -77
-6 -95 -18 -18 -40 -21 -49 -6 -4 6 1 7 11 3 11 -4 22 1 30 12 20 26 17 33 -9
28 -34 -7 -53 20 -39 52 14 30 47 33 62 6z m303 12 c-21 -4 -23 -11 -25 -66
l-1 -62 -6 59 c-5 47 -10 61 -26 67 -13 5 -4 7 30 7 28 0 40 -3 28 -5z m102
-3 c3 -6 -1 -7 -10 -4 -24 9 -45 -15 -45 -51 0 -37 22 -60 47 -51 14 6 15 4 7
-4 -31 -31 -81 25 -68 76 9 35 54 58 69 34z m93 1 c8 -4 12 -19 10 -32 -2 -18
-10 -25 -30 -27 -22 -3 -28 -9 -31 -35 -2 -18 -5 -2 -5 36 -2 63 -1 67 21 67
12 0 28 -4 35 -9z m196 1 c3 -5 -5 -8 -17 -8 -32 1 -30 -36 3 -44 28 -7 38
-34 20 -55 -15 -18 -46 -20 -56 -3 -4 7 -3 8 5 4 17 -11 51 3 51 20 0 8 -13
20 -29 25 -16 6 -32 17 -35 24 -10 27 43 60 58 37z m2386 -47 c0 -41 4 -56 18
-64 13 -8 9 -10 -23 -10 -22 1 -32 3 -22 6 24 6 25 103 1 103 -8 0 -12 5 -9
10 3 6 13 10 21 10 10 0 14 -14 14 -55z m118 43 c17 -17 15 -84 -4 -102 -18
-18 -40 -21 -49 -6 -3 5 0 7 8 4 14 -5 47 20 47 36 0 4 -9 6 -20 3 -39 -10
-66 37 -38 65 7 7 19 12 28 12 9 0 21 -5 28 -12z m258 -45 l17 -58 15 58 c8
31 18 57 22 57 12 0 -24 -123 -37 -127 -8 -3 -43 94 -43 120 0 22 12 0 26 -50z
m1438 49 c3 -5 -5 -8 -17 -8 -35 1 -33 -30 2 -42 24 -8 31 -17 31 -36 0 -30
-37 -45 -67 -27 -15 10 -14 10 8 5 16 -3 30 0 38 10 15 18 6 36 -18 36 -17 0
-41 18 -41 31 0 25 52 50 64 31z m-299 -25 c18 -4 18 -5 -2 -6 -19 -1 -23 -7
-23 -36 0 -27 5 -38 23 -45 22 -10 22 -10 -3 -7 -22 2 -25 7 -28 45 -2 31 -8
42 -20 43 -15 1 -15 2 1 6 9 2 17 10 17 16 0 9 2 9 8 1 4 -7 16 -14 27 -17z
m-3791 -5 c3 -5 -4 -8 -16 -8 -11 1 -25 -7 -32 -16 -15 -24 4 -53 33 -52 15 0
18 -3 12 -9 -7 -7 -19 -7 -36 1 -44 20 -28 90 22 92 6 0 14 -4 17 -8z m94 -4
c7 -7 12 -28 12 -47 0 -33 -3 -36 -29 -38 -37 -3 -59 20 -41 42 7 8 24 15 37
15 22 0 24 2 12 16 -7 8 -21 13 -31 11 -10 -3 -16 -1 -12 4 8 13 38 11 52 -3z
m53 -41 c-4 -61 -11 -59 -11 3 0 29 3 50 7 46 4 -4 6 -26 4 -49z m47 41 c7 -7
11 -30 11 -52 l-2 -41 -7 43 c-3 24 -13 48 -21 53 -8 5 -9 9 -3 9 5 0 15 -5
22 -12z m2572 -73 c10 0 16 13 18 43 4 58 22 53 22 -7 0 -49 0 -49 -32 -48
-32 2 -33 3 -34 52 l-2 50 7 -45 c4 -31 11 -45 21 -45z m227 73 c15 -12 18
-88 3 -88 -5 0 -10 21 -10 46 0 38 -3 45 -17 42 -13 -2 -20 -16 -24 -48 l-6
-45 -1 50 c-2 46 0 51 20 52 12 1 28 -3 35 -9z m101 0 c22 -22 13 -38 -19 -38
-24 0 -30 -4 -27 -17 3 -13 12 -17 31 -16 15 1 25 -2 22 -8 -17 -27 -75 5 -75
41 0 21 25 50 44 50 6 0 17 -5 24 -12z m95 2 c-15 -6 -25 -22 -31 -52 l-10
-43 -1 50 c-1 50 -1 50 32 52 27 1 29 0 10 -7z m105 -2 c7 -7 12 -28 12 -47 0
-33 -3 -36 -29 -38 -37 -3 -59 20 -41 42 7 8 24 15 37 15 22 0 24 2 12 16 -7
8 -21 13 -31 11 -10 -3 -16 -1 -12 4 8 13 38 11 52 -3z m182 -32 c0 -34 4 -46
18 -49 9 -3 -1 -5 -23 -5 -22 0 -32 2 -22 5 12 3 17 15 17 43 0 28 -5 40 -17
43 -14 4 -12 5 5 6 20 1 22 -4 22 -43z m200 0 c0 -34 4 -46 18 -49 9 -3 -1 -5
-23 -5 -22 0 -32 2 -22 5 12 3 17 15 17 43 0 28 -5 40 -17 43 -14 4 -12 5 5 6
20 1 22 -4 22 -43z m170 35 c0 -5 5 -22 11 -38 l11 -28 19 40 c17 35 19 36 13
10 -9 -47 -42 -115 -55 -115 -8 0 -6 6 4 18 15 17 15 22 -3 70 -11 29 -15 52
-10 52 6 0 10 -4 10 -9z m354 1 c3 -5 -4 -8 -16 -8 -11 1 -25 -7 -32 -16 -14
-24 4 -53 32 -52 12 0 19 -3 16 -8 -8 -12 -38 -10 -52 4 -7 7 -12 24 -12 38 0
14 5 31 12 38 14 14 44 16 52 4z m94 -4 c7 -7 12 -28 12 -47 0 -33 -3 -36 -29
-38 -37 -3 -59 20 -41 42 7 8 24 15 37 15 22 0 24 2 12 16 -7 8 -21 13 -31 11
-10 -3 -16 -1 -12 4 8 13 38 11 52 -3z m99 0 c15 -12 18 -88 3 -88 -5 0 -10
21 -10 46 0 38 -3 45 -17 42 -13 -2 -20 -16 -24 -48 l-6 -45 -1 50 c-2 46 0
51 20 52 12 1 28 -3 35 -9z m-5520 -305 c-2 -27 -3 -5 -3 47 0 52 1 74 3 48 2
-27 2 -69 0 -95z m206 130 c-18 -7 -18 -139 0 -146 7 -3 5 -6 -5 -6 -16 -1
-18 9 -18 79 0 70 2 80 18 79 10 0 12 -3 5 -6z m297 -73 c0 -70 -2 -80 -17
-79 -11 0 -13 3 -5 6 17 7 17 139 0 146 -8 3 -6 6 5 6 15 1 17 -9 17 -79z
m2397 -57 c-2 -27 -3 -5 -3 47 0 52 1 74 3 48 2 -27 2 -69 0 -95z m406 130
c-9 -3 -13 -28 -13 -73 0 -45 4 -70 13 -73 7 -3 5 -6 -5 -6 -16 -1 -18 9 -18
79 0 70 2 80 18 79 10 0 12 -3 5 -6z m297 -73 c0 -70 -2 -80 -17 -79 -11 0
-13 3 -5 6 8 3 12 28 12 73 0 45 -4 70 -12 73 -8 3 -6 6 5 6 15 1 17 -9 17
-79z m1218 73 c-10 -2 -18 -11 -18 -19 0 -8 8 -15 18 -15 16 -1 16 -2 0 -6
-14 -3 -18 -15 -18 -49 0 -24 -4 -44 -10 -44 -5 0 -10 20 -10 45 0 25 -4 45
-10 45 -5 0 0 11 12 25 12 14 29 24 37 24 13 -1 12 -2 -1 -6z m979 -130 c-2
-27 -3 -5 -3 47 0 52 1 74 3 48 2 -27 2 -69 0 -95z m-5497 72 c0 -41 4 -56 18
-64 13 -8 9 -10 -23 -10 -22 1 -32 3 -22 6 13 3 17 15 17 54 0 40 -3 49 -17
49 -15 0 -16 2 -3 10 26 17 30 11 30 -45z m120 36 c14 -27 13 -74 -3 -95 -31
-43 -80 18 -61 76 12 41 47 51 64 19z m250 -35 c0 -92 46 -85 53 7 l3 52 2
-56 c1 -39 -3 -60 -13 -69 -19 -16 -52 -4 -59 23 -9 35 -7 97 4 97 6 0 10 -24
10 -54z m144 38 c21 -20 21 -78 0 -98 -8 -9 -26 -16 -40 -16 -23 0 -24 3 -24
65 0 62 1 65 24 65 14 0 32 -7 40 -16z m104 7 c8 -4 12 -19 10 -32 -2 -18 -10
-25 -30 -27 -22 -3 -28 -9 -31 -35 -2 -18 -5 -2 -5 36 -2 63 -1 67 21 67 12 0
28 -4 35 -9z m196 1 c3 -5 -5 -8 -17 -8 -32 1 -30 -36 3 -44 28 -7 38 -34 20
-55 -15 -18 -46 -20 -56 -3 -4 7 -3 8 5 4 17 -11 51 3 51 20 0 8 -13 20 -29
25 -16 6 -32 17 -35 24 -10 27 43 60 58 37z m2297 -2 c26 -14 24 -32 -6 -68
-31 -37 -31 -40 3 -45 19 -3 14 -4 -15 -6 -24 0 -43 1 -43 4 0 2 14 20 31 39
34 40 35 71 2 70 -12 0 -20 3 -17 8 7 11 21 10 45 -2z m107 -2 c16 -16 15 -80
-1 -102 -19 -26 -54 -13 -62 24 -14 63 27 114 63 78z m310 -10 c-8 -13 -24
-40 -37 -60 l-22 -37 38 -4 38 -4 -42 -1 c-24 -1 -43 3 -43 8 0 6 11 28 25 50
32 50 31 58 -2 63 -19 3 -14 4 16 6 43 1 43 1 29 -21z m495 15 c-21 -4 -23
-11 -25 -66 l-1 -62 -6 59 c-5 47 -10 61 -26 67 -13 5 -4 7 30 7 28 0 40 -3
28 -5z m-3099 -31 c3 -5 -4 -8 -16 -8 -11 1 -25 -7 -32 -16 -15 -24 4 -53 33
-52 15 0 18 -3 12 -9 -7 -7 -19 -7 -36 1 -44 20 -28 90 22 92 6 0 14 -4 17 -8z
m94 -4 c7 -7 12 -28 12 -47 0 -33 -3 -36 -29 -38 -37 -3 -59 20 -41 42 7 8 24
15 37 15 22 0 24 2 12 16 -7 8 -21 13 -31 11 -10 -3 -16 -1 -12 4 8 13 38 11
52 -3z m53 -41 c-4 -61 -11 -59 -11 3 0 29 3 50 7 46 4 -4 6 -26 4 -49z m47
41 c7 -7 11 -30 11 -52 l-2 -41 -7 43 c-3 24 -13 48 -21 53 -8 5 -9 9 -3 9 5
0 15 -5 22 -12z m2500 0 c26 -26 8 -88 -24 -88 -19 0 -44 29 -44 50 0 21 25
50 44 50 6 0 17 -5 24 -12z m53 -41 c-4 -61 -11 -59 -11 3 0 29 3 50 7 46 4
-4 6 -26 4 -49z m47 41 c7 -7 11 -30 11 -52 l-2 -41 -7 43 c-3 24 -13 48 -21
53 -8 5 -9 9 -3 9 5 0 15 -5 22 -12z m100 0 c22 -22 13 -38 -19 -38 -24 0 -30
-4 -27 -17 2 -12 13 -18 30 -18 15 1 24 -3 22 -7 -16 -26 -74 7 -74 42 0 21
25 50 44 50 6 0 17 -5 24 -12z m295 2 c-15 -6 -25 -22 -31 -52 l-10 -43 -1 50
c-1 50 -1 50 32 52 27 1 29 0 10 -7z m105 -2 c7 -7 12 -28 12 -47 0 -33 -3
-36 -29 -38 -37 -3 -59 20 -41 42 7 8 24 15 37 15 22 0 24 2 12 16 -7 8 -21
13 -31 11 -10 -3 -16 -1 -12 4 8 13 38 11 52 -3z m53 -41 c-4 -61 -11 -59 -11
3 0 29 3 50 7 46 4 -4 6 -26 4 -49z m47 41 c7 -7 11 -30 11 -52 l-2 -41 -7 43
c-3 24 -13 48 -21 53 -8 5 -9 9 -3 9 5 0 15 -5 22 -12z m96 3 c4 -5 -2 -7 -13
-4 -30 8 -35 -16 -6 -29 18 -8 25 -18 23 -32 -3 -22 -34 -34 -49 -19 -6 6 -1
9 12 9 32 -1 35 22 5 34 -39 15 -32 46 11 49 6 1 14 -3 17 -8z m204 -3 c22
-22 13 -38 -19 -38 -24 0 -30 -4 -27 -17 2 -12 13 -18 30 -18 15 1 24 -3 22
-7 -16 -26 -74 7 -74 42 0 21 25 50 44 50 6 0 17 -5 24 -12z m95 2 c-15 -6
-25 -22 -31 -52 l-10 -43 -1 50 c-1 50 -1 50 32 52 27 1 29 0 10 -7z m-4990
-251 c22 -2 22 -2 0 -6 -15 -3 -23 -12 -24 -26 -2 -22 -2 -22 -6 1 -3 14 -12
22 -26 23 -22 2 -22 2 1 6 14 3 22 12 23 26 2 22 2 22 6 0 3 -15 12 -23 26
-24z m5800 0 c22 -2 22 -2 0 -6 -15 -3 -23 -12 -24 -26 -2 -22 -2 -22 -6 1 -3
14 -12 22 -26 23 -22 2 -22 2 1 6 14 3 22 12 23 26 2 22 2 22 6 0 3 -15 12
-23 26 -24z m-5720 -16 c-7 -2 -19 -2 -25 0 -7 3 -2 5 12 5 14 0 19 -2 13 -5z
m100 0 c-7 -2 -19 -2 -25 0 -7 3 -2 5 12 5 14 0 19 -2 13 -5z m100 0 c-7 -2
-19 -2 -25 0 -7 3 -2 5 12 5 14 0 19 -2 13 -5z m100 0 c-7 -2 -19 -2 -25 0 -7
3 -2 5 12 5 14 0 19 -2 13 -5z m100 0 c-7 -2 -19 -2 -25 0 -7 3 -2 5 12 5 14
0 19 -2 13 -5z m100 0 c-7 -2 -19 -2 -25 0 -7 3 -2 5 12 5 14 0 19 -2 13 -5z
m100 0 c-7 -2 -19 -2 -25 0 -7 3 -2 5 12 5 14 0 19 -2 13 -5z m100 0 c-7 -2
-19 -2 -25 0 -7 3 -2 5 12 5 14 0 19 -2 13 -5z m100 0 c-7 -2 -19 -2 -25 0 -7
3 -2 5 12 5 14 0 19 -2 13 -5z m100 0 c-7 -2 -19 -2 -25 0 -7 3 -2 5 12 5 14
0 19 -2 13 -5z m100 0 c-7 -2 -19 -2 -25 0 -7 3 -2 5 12 5 14 0 19 -2 13 -5z
m100 0 c-7 -2 -19 -2 -25 0 -7 3 -2 5 12 5 14 0 19 -2 13 -5z m100 0 c-7 -2
-19 -2 -25 0 -7 3 -2 5 12 5 14 0 19 -2 13 -5z m100 0 c-7 -2 -19 -2 -25 0 -7
3 -2 5 12 5 14 0 19 -2 13 -5z m100 0 c-7 -2 -19 -2 -25 0 -7 3 -2 5 12 5 14
0 19 -2 13 -5z m100 0 c-7 -2 -19 -2 -25 0 -7 3 -2 5 12 5 14 0 19 -2 13 -5z
m100 0 c-7 -2 -19 -2 -25 0 -7 3 -2 5 12 5 14 0 19 -2 13 -5z m100 0 c-7 -2
-19 -2 -25 0 -7 3 -2 5 12 5 14 0 19 -2 13 -5z m100 0 c-7 -2 -19 -2 -25 0 -7
3 -2 5 12 5 14 0 19 -2 13 -5z m100 0 c-7 -2 -19 -2 -25 0 -7 3 -2 5 12 5 14
0 19 -2 13 -5z m100 0 c-7 -2 -19 -2 -25 0 -7 3 -2 5 12 5 14 0 19 -2 13 -5z
m100 0 c-7 -2 -19 -2 -25 0 -7 3 -2 5 12 5 14 0 19 -2 13 -5z m100 0 c-7 -2
-19 -2 -25 0 -7 3 -2 5 12 5 14 0 19 -2 13 -5z m100 0 c-7 -2 -19 -2 -25 0 -7
3 -2 5 12 5 14 0 19 -2 13 -5z m100 0 c-7 -2 -19 -2 -25 0 -7 3 -2 5 12 5 14
0 19 -2 13 -5z m100 0 c-7 -2 -19 -2 -25 0 -7 3 -2 5 12 5 14 0 19 -2 13 -5z
m100 0 c-7 -2 -19 -2 -25 0 -7 3 -2 5 12 5 14 0 19 -2 13 -5z m100 0 c-7 -2
-19 -2 -25 0 -7 3 -2 5 12 5 14 0 19 -2 13 -5z m100 0 c-7 -2 -19 -2 -25 0 -7
3 -2 5 12 5 14 0 19 -2 13 -5z m100 0 c-7 -2 -19 -2 -25 0 -7 3 -2 5 12 5 14
0 19 -2 13 -5z m100 0 c-7 -2 -19 -2 -25 0 -7 3 -2 5 12 5 14 0 19 -2 13 -5z
m100 0 c-7 -2 -19 -2 -25 0 -7 3 -2 5 12 5 14 0 19 -2 13 -5z m100 0 c-7 -2
-19 -2 -25 0 -7 3 -2 5 12 5 14 0 19 -2 13 -5z m100 0 c-7 -2 -19 -2 -25 0 -7
3 -2 5 12 5 14 0 19 -2 13 -5z m100 0 c-7 -2 -19 -2 -25 0 -7 3 -2 5 12 5 14
0 19 -2 13 -5z m100 0 c-7 -2 -19 -2 -25 0 -7 3 -2 5 12 5 14 0 19 -2 13 -5z
m100 0 c-7 -2 -19 -2 -25 0 -7 3 -2 5 12 5 14 0 19 -2 13 -5z m100 0 c-7 -2
-19 -2 -25 0 -7 3 -2 5 12 5 14 0 19 -2 13 -5z m100 0 c-7 -2 -19 -2 -25 0 -7
3 -2 5 12 5 14 0 19 -2 13 -5z m100 0 c-7 -2 -19 -2 -25 0 -7 3 -2 5 12 5 14
0 19 -2 13 -5z m100 0 c-7 -2 -19 -2 -25 0 -7 3 -2 5 12 5 14 0 19 -2 13 -5z
m100 0 c-7 -2 -19 -2 -25 0 -7 3 -2 5 12 5 14 0 19 -2 13 -5z m100 0 c-7 -2
-19 -2 -25 0 -7 3 -2 5 12 5 14 0 19 -2 13 -5z m100 0 c-7 -2 -19 -2 -25 0 -7
3 -2 5 12 5 14 0 19 -2 13 -5z m100 0 c-7 -2 -19 -2 -25 0 -7 3 -2 5 12 5 14
0 19 -2 13 -5z m100 0 c-7 -2 -19 -2 -25 0 -7 3 -2 5 12 5 14 0 19 -2 13 -5z
m100 0 c-7 -2 -19 -2 -25 0 -7 3 -2 5 12 5 14 0 19 -2 13 -5z m100 0 c-7 -2
-19 -2 -25 0 -7 3 -2 5 12 5 14 0 19 -2 13 -5z m100 0 c-7 -2 -19 -2 -25 0 -7
3 -2 5 12 5 14 0 19 -2 13 -5z m100 0 c-7 -2 -19 -2 -25 0 -7 3 -2 5 12 5 14
0 19 -2 13 -5z m100 0 c-7 -2 -19 -2 -25 0 -7 3 -2 5 12 5 14 0 19 -2 13 -5z
m100 0 c-7 -2 -19 -2 -25 0 -7 3 -2 5 12 5 14 0 19 -2 13 -5z m100 0 c-7 -2
-19 -2 -25 0 -7 3 -2 5 12 5 14 0 19 -2 13 -5z m100 0 c-7 -2 -19 -2 -25 0 -7
3 -2 5 12 5 14 0 19 -2 13 -5z m100 0 c-7 -2 -19 -2 -25 0 -7 3 -2 5 12 5 14
0 19 -2 13 -5z m100 0 c-7 -2 -19 -2 -25 0 -7 3 -2 5 12 5 14 0 19 -2 13 -5z
m100 0 c-7 -2 -19 -2 -25 0 -7 3 -2 5 12 5 14 0 19 -2 13 -5z m-5706 -260 c-2
-27 -3 -5 -3 47 0 52 1 74 3 48 2 -27 2 -69 0 -95z m206 130 c-9 -3 -13 -28
-13 -73 0 -45 4 -70 13 -73 7 -3 5 -6 -5 -6 -16 -1 -18 9 -18 79 0 70 2 80 18
79 10 0 12 -3 5 -6z m197 -73 c0 -70 -2 -80 -17 -79 -11 0 -13 3 -5 6 8 3 12
28 12 73 0 45 -4 70 -12 73 -8 3 -6 6 5 6 15 1 17 -9 17 -79z m2003 73 c-9 -3
-13 -28 -13 -73 0 -45 4 -70 13 -73 7 -3 5 -6 -5 -6 -16 -1 -18 9 -18 79 0 70
2 80 18 79 10 0 12 -3 5 -6z m197 -73 c0 -70 -2 -80 -17 -79 -11 0 -13 3 -5 6
8 3 12 28 12 73 0 45 -4 70 -12 73 -8 3 -6 6 5 6 15 1 17 -9 17 -79z m790 20
c0 -54 3 -62 23 -70 13 -5 16 -9 7 -9 -28 -1 -40 22 -40 75 0 33 -5 54 -12 57
-8 3 -6 6 5 6 14 1 17 -8 17 -59z m100 0 c0 -54 3 -62 23 -70 13 -5 16 -9 7
-9 -28 -1 -40 22 -40 75 0 33 -5 54 -12 57 -8 3 -6 6 5 6 14 1 17 -8 17 -59z
m913 53 c-9 -3 -13 -28 -13 -73 0 -45 4 -70 13 -73 7 -3 5 -6 -5 -6 -16 -1
-18 9 -18 79 0 70 2 80 18 79 10 0 12 -3 5 -6z m197 -73 c0 -70 -2 -80 -17
-79 -11 0 -13 3 -5 6 8 3 12 28 12 73 0 45 -4 70 -12 73 -8 3 -6 6 5 6 15 1
17 -9 17 -79z m1197 -57 c-2 -27 -3 -5 -3 47 0 52 1 74 3 48 2 -27 2 -69 0
-95z m-5504 75 l22 -53 6 55 6 55 1 -67 c1 -38 -2 -68 -7 -68 -4 0 -18 24 -29
53 l-21 52 0 -52 c-1 -29 -5 -53 -11 -53 -6 0 -10 28 -10 65 0 39 4 65 11 65
5 0 20 -24 32 -52z m300 0 l22 -53 6 55 6 55 1 -67 c1 -38 -2 -68 -7 -68 -4 0
-18 24 -29 53 l-21 52 0 -52 c-1 -29 -5 -53 -11 -53 -6 0 -10 28 -10 65 0 39
4 65 11 65 5 0 20 -24 32 -52z m430 45 c-21 -4 -23 -11 -25 -66 l-1 -62 -6 59
c-5 47 -10 61 -26 67 -13 5 -4 7 30 7 28 0 40 -3 28 -5z m1456 -20 l13 -28 14
28 c8 15 19 27 25 27 6 0 1 -14 -11 -30 l-22 -30 22 -35 c12 -19 17 -35 12
-35 -5 0 -14 11 -20 25 -15 32 -26 32 -41 -1 -6 -15 -14 -24 -17 -22 -2 3 3
19 13 36 17 30 17 32 0 62 -10 16 -14 30 -9 30 5 0 14 -12 21 -27z m291 -27
c0 -92 46 -85 53 7 l3 52 2 -56 c1 -39 -3 -60 -13 -69 -19 -16 -52 -4 -59 23
-9 35 -7 97 4 97 6 0 10 -24 10 -54z m1733 47 c-25 -3 -33 -9 -33 -24 0 -14 8
-19 33 -21 l32 -1 -32 -4 c-29 -4 -33 -8 -33 -33 0 -25 4 -29 33 -33 31 -4 31
-4 -5 -5 l-38 -2 0 65 0 65 38 -2 c36 -1 36 -1 5 -5z m300 0 c-25 -3 -33 -9
-33 -24 0 -14 8 -19 33 -21 l32 -1 -32 -4 c-29 -4 -33 -8 -33 -33 0 -25 4 -29
33 -33 31 -4 31 -4 -5 -5 l-38 -2 0 65 0 65 38 -2 c36 -1 36 -1 5 -5z m-3288
-26 c18 -4 18 -5 -2 -6 -19 -1 -23 -7 -23 -36 0 -27 5 -38 23 -45 22 -10 22
-10 -3 -7 -22 2 -25 7 -28 45 -2 31 -8 42 -20 43 -15 1 -15 2 1 6 9 2 17 10
17 16 0 9 2 9 8 1 4 -7 16 -14 27 -17z m1700 0 c18 -4 18 -5 -2 -6 -19 -1 -23
-7 -23 -36 0 -27 5 -38 23 -45 22 -10 22 -10 -3 -7 -22 2 -25 7 -28 45 -2 31
-8 42 -20 43 -15 1 -15 2 1 6 9 2 17 10 17 16 0 9 2 9 8 1 4 -7 16 -14 27 -17z
m1900 0 c18 -4 18 -5 -2 -6 -19 -1 -23 -7 -23 -36 0 -27 5 -38 23 -45 22 -10
22 -10 -3 -7 -22 2 -25 7 -28 45 -2 31 -8 42 -20 43 -15 1 -15 2 1 6 9 2 17
10 17 16 0 9 2 9 8 1 4 -7 16 -14 27 -17z m-4397 -9 c22 -22 13 -38 -19 -38
-24 0 -30 -4 -27 -17 2 -12 13 -18 30 -18 15 1 24 -3 22 -7 -16 -26 -74 7 -74
42 0 21 25 50 44 50 6 0 17 -5 24 -12z m42 -23 c0 -13 5 -27 10 -30 12 -8 13
-35 1 -35 -4 0 -13 22 -18 50 -6 27 -6 47 -1 44 4 -3 8 -16 8 -29z m75 3 c-13
-64 -16 -72 -26 -57 -11 18 -11 32 0 25 5 -3 12 10 15 29 4 19 9 35 12 35 3 0
3 -15 -1 -32z m283 20 c7 -7 12 -28 12 -47 0 -33 -3 -36 -29 -38 -37 -3 -59
20 -41 42 7 8 24 15 37 15 22 0 24 2 12 16 -7 8 -21 13 -31 11 -10 -3 -16 -1
-12 4 8 13 38 11 52 -3z m95 2 c-15 -6 -25 -22 -31 -52 l-10 -43 -1 50 c-1 50
-1 50 32 52 27 1 29 0 10 -7z m117 -42 c0 -27 -5 -58 -10 -69 -11 -19 -44 -26
-54 -11 -3 5 5 8 17 8 12 -1 23 6 25 16 2 12 -2 15 -17 11 -28 -7 -49 37 -33
71 8 19 18 24 41 24 30 -1 31 -2 31 -50z m88 40 c22 -22 13 -38 -19 -38 -24 0
-30 -4 -27 -17 2 -12 13 -18 30 -18 15 1 24 -3 22 -7 -16 -26 -74 7 -74 42 0
21 25 50 44 50 6 0 17 -5 24 -12z m1453 -41 c-4 -61 -11 -59 -11 3 0 29 3 50
7 46 4 -4 6 -26 4 -49z m47 41 c7 -7 11 -30 11 -52 l-2 -41 -7 43 c-3 24 -13
48 -21 53 -8 5 -9 9 -3 9 5 0 15 -5 22 -12z m82 -32 c0 -34 4 -46 18 -49 9 -3
-1 -5 -23 -5 -22 0 -32 2 -22 5 12 3 17 15 17 43 0 28 -5 40 -17 43 -14 4 -12
5 5 6 20 1 22 -4 22 -43z m114 35 c4 -5 -2 -7 -13 -4 -30 8 -35 -16 -6 -29 18
-8 25 -18 23 -32 -3 -22 -34 -34 -49 -19 -6 6 -1 9 12 9 32 -1 35 22 5 34 -39
15 -32 46 11 49 6 1 14 -3 17 -8z m204 -3 c7 -7 12 -28 12 -47 0 -33 -3 -36
-29 -38 -37 -3 -59 20 -41 42 7 8 24 15 37 15 22 0 24 2 12 16 -7 8 -21 13
-31 11 -10 -3 -16 -1 -12 4 8 13 38 11 52 -3z m1593 -2 l22 19 -18 -28 c-16
-25 -16 -29 -1 -46 9 -9 16 -22 16 -27 -1 -5 -9 1 -20 14 l-19 23 -13 -20 c-7
-12 -16 -21 -21 -21 -4 0 0 12 10 26 13 21 14 30 5 45 -17 27 -14 38 3 15 14
-19 15 -19 36 0z m89 -30 c0 -34 4 -46 18 -49 9 -3 -1 -5 -23 -5 -22 0 -32 2
-22 5 12 3 17 15 17 43 0 28 -5 40 -17 43 -14 4 -12 5 5 6 20 1 22 -4 22 -43z
m-4208 -8 c-7 -7 -12 -8 -12 -2 0 14 12 26 19 19 2 -3 -1 -11 -7 -17z m-769
-209 c22 -2 22 -2 0 -6 -15 -3 -23 -12 -24 -26 -2 -22 -2 -22 -6 1 -3 14 -12
22 -26 23 -22 2 -22 2 1 6 14 3 22 12 23 26 2 22 2 22 6 0 3 -15 12 -23 26
-24z m5800 0 c22 -2 22 -2 0 -6 -15 -3 -23 -12 -24 -26 -2 -22 -2 -22 -6 1 -3
14 -12 22 -26 23 -22 2 -22 2 1 6 14 3 22 12 23 26 2 22 2 22 6 0 3 -15 12
-23 26 -24z m-5720 -16 c-7 -2 -19 -2 -25 0 -7 3 -2 5 12 5 14 0 19 -2 13 -5z
m100 0 c-7 -2 -19 -2 -25 0 -7 3 -2 5 12 5 14 0 19 -2 13 -5z m100 0 c-7 -2
-19 -2 -25 0 -7 3 -2 5 12 5 14 0 19 -2 13 -5z m100 0 c-7 -2 -19 -2 -25 0 -7
3 -2 5 12 5 14 0 19 -2 13 -5z m100 0 c-7 -2 -19 -2 -25 0 -7 3 -2 5 12 5 14
0 19 -2 13 -5z m100 0 c-7 -2 -19 -2 -25 0 -7 3 -2 5 12 5 14 0 19 -2 13 -5z
m100 0 c-7 -2 -19 -2 -25 0 -7 3 -2 5 12 5 14 0 19 -2 13 -5z m100 0 c-7 -2
-19 -2 -25 0 -7 3 -2 5 12 5 14 0 19 -2 13 -5z m100 0 c-7 -2 -19 -2 -25 0 -7
3 -2 5 12 5 14 0 19 -2 13 -5z m100 0 c-7 -2 -19 -2 -25 0 -7 3 -2 5 12 5 14
0 19 -2 13 -5z m100 0 c-7 -2 -19 -2 -25 0 -7 3 -2 5 12 5 14 0 19 -2 13 -5z
m100 0 c-7 -2 -19 -2 -25 0 -7 3 -2 5 12 5 14 0 19 -2 13 -5z m100 0 c-7 -2
-19 -2 -25 0 -7 3 -2 5 12 5 14 0 19 -2 13 -5z m100 0 c-7 -2 -19 -2 -25 0 -7
3 -2 5 12 5 14 0 19 -2 13 -5z m100 0 c-7 -2 -19 -2 -25 0 -7 3 -2 5 12 5 14
0 19 -2 13 -5z m100 0 c-7 -2 -19 -2 -25 0 -7 3 -2 5 12 5 14 0 19 -2 13 -5z
m100 0 c-7 -2 -19 -2 -25 0 -7 3 -2 5 12 5 14 0 19 -2 13 -5z m100 0 c-7 -2
-19 -2 -25 0 -7 3 -2 5 12 5 14 0 19 -2 13 -5z m100 0 c-7 -2 -19 -2 -25 0 -7
3 -2 5 12 5 14 0 19 -2 13 -5z m100 0 c-7 -2 -19 -2 -25 0 -7 3 -2 5 12 5 14
0 19 -2 13 -5z m100 0 c-7 -2 -19 -2 -25 0 -7 3 -2 5 12 5 14 0 19 -2 13 -5z
m100 0 c-7 -2 -19 -2 -25 0 -7 3 -2 5 12 5 14 0 19 -2 13 -5z m100 0 c-7 -2
-19 -2 -25 0 -7 3 -2 5 12 5 14 0 19 -2 13 -5z m100 0 c-7 -2 -19 -2 -25 0 -7
3 -2 5 12 5 14 0 19 -2 13 -5z m100 0 c-7 -2 -19 -2 -25 0 -7 3 -2 5 12 5 14
0 19 -2 13 -5z m100 0 c-7 -2 -19 -2 -25 0 -7 3 -2 5 12 5 14 0 19 -2 13 -5z
m100 0 c-7 -2 -19 -2 -25 0 -7 3 -2 5 12 5 14 0 19 -2 13 -5z m100 0 c-7 -2
-19 -2 -25 0 -7 3 -2 5 12 5 14 0 19 -2 13 -5z m100 0 c-7 -2 -19 -2 -25 0 -7
3 -2 5 12 5 14 0 19 -2 13 -5z m100 0 c-7 -2 -19 -2 -25 0 -7 3 -2 5 12 5 14
0 19 -2 13 -5z m100 0 c-7 -2 -19 -2 -25 0 -7 3 -2 5 12 5 14 0 19 -2 13 -5z
m100 0 c-7 -2 -19 -2 -25 0 -7 3 -2 5 12 5 14 0 19 -2 13 -5z m100 0 c-7 -2
-19 -2 -25 0 -7 3 -2 5 12 5 14 0 19 -2 13 -5z m100 0 c-7 -2 -19 -2 -25 0 -7
3 -2 5 12 5 14 0 19 -2 13 -5z m100 0 c-7 -2 -19 -2 -25 0 -7 3 -2 5 12 5 14
0 19 -2 13 -5z m100 0 c-7 -2 -19 -2 -25 0 -7 3 -2 5 12 5 14 0 19 -2 13 -5z
m100 0 c-7 -2 -19 -2 -25 0 -7 3 -2 5 12 5 14 0 19 -2 13 -5z m100 0 c-7 -2
-19 -2 -25 0 -7 3 -2 5 12 5 14 0 19 -2 13 -5z m100 0 c-7 -2 -19 -2 -25 0 -7
3 -2 5 12 5 14 0 19 -2 13 -5z m100 0 c-7 -2 -19 -2 -25 0 -7 3 -2 5 12 5 14
0 19 -2 13 -5z m100 0 c-7 -2 -19 -2 -25 0 -7 3 -2 5 12 5 14 0 19 -2 13 -5z
m100 0 c-7 -2 -19 -2 -25 0 -7 3 -2 5 12 5 14 0 19 -2 13 -5z m100 0 c-7 -2
-19 -2 -25 0 -7 3 -2 5 12 5 14 0 19 -2 13 -5z m100 0 c-7 -2 -19 -2 -25 0 -7
3 -2 5 12 5 14 0 19 -2 13 -5z m100 0 c-7 -2 -19 -2 -25 0 -7 3 -2 5 12 5 14
0 19 -2 13 -5z m100 0 c-7 -2 -19 -2 -25 0 -7 3 -2 5 12 5 14 0 19 -2 13 -5z
m100 0 c-7 -2 -19 -2 -25 0 -7 3 -2 5 12 5 14 0 19 -2 13 -5z m100 0 c-7 -2
-19 -2 -25 0 -7 3 -2 5 12 5 14 0 19 -2 13 -5z m100 0 c-7 -2 -19 -2 -25 0 -7
3 -2 5 12 5 14 0 19 -2 13 -5z m100 0 c-7 -2 -19 -2 -25 0 -7 3 -2 5 12 5 14
0 19 -2 13 -5z m100 0 c-7 -2 -19 -2 -25 0 -7 3 -2 5 12 5 14 0 19 -2 13 -5z
m100 0 c-7 -2 -19 -2 -25 0 -7 3 -2 5 12 5 14 0 19 -2 13 -5z m100 0 c-7 -2
-19 -2 -25 0 -7 3 -2 5 12 5 14 0 19 -2 13 -5z m100 0 c-7 -2 -19 -2 -25 0 -7
3 -2 5 12 5 14 0 19 -2 13 -5z m100 0 c-7 -2 -19 -2 -25 0 -7 3 -2 5 12 5 14
0 19 -2 13 -5z m100 0 c-7 -2 -19 -2 -25 0 -7 3 -2 5 12 5 14 0 19 -2 13 -5z
m100 0 c-7 -2 -19 -2 -25 0 -7 3 -2 5 12 5 14 0 19 -2 13 -5z m-5603 -423 c0
-70 -2 -80 -17 -79 -11 0 -13 3 -5 6 8 3 12 28 12 73 0 45 -4 70 -12 73 -8 3
-6 6 5 6 15 1 17 -9 17 -79z m390 20 c0 -54 3 -62 23 -70 13 -5 16 -9 7 -9
-28 -1 -40 22 -40 75 0 33 -5 54 -12 57 -8 3 -6 6 5 6 14 1 17 -8 17 -59z
m-176 42 c3 -5 -5 -8 -17 -8 -32 1 -30 -36 3 -44 28 -7 38 -34 20 -55 -15 -18
-46 -20 -56 -3 -4 7 -3 8 5 4 17 -11 51 3 51 20 0 8 -13 20 -29 25 -16 6 -32
17 -35 24 -10 27 43 60 58 37z m1004 -4 c7 -7 12 -30 12 -53 0 -60 -30 -83
-64 -49 -9 8 -16 31 -16 49 0 51 39 82 68 53z m-503 -21 c18 -4 18 -5 -2 -6
-19 -1 -23 -7 -23 -36 0 -27 5 -38 23 -45 22 -10 22 -10 -3 -7 -22 2 -25 7
-28 45 -2 31 -8 42 -20 43 -15 1 -15 2 1 6 9 2 17 10 17 16 0 9 2 9 8 1 4 -7
16 -14 27 -17z m700 0 c18 -4 18 -5 -2 -6 -19 -1 -23 -7 -23 -36 0 -27 5 -38
23 -45 22 -10 22 -10 -3 -7 -22 2 -25 7 -28 45 -2 31 -8 42 -20 43 -15 1 -15
2 1 6 9 2 17 10 17 16 0 9 2 9 8 1 4 -7 16 -14 27 -17z m-1492 -38 c22 -2 22
-2 0 -6 -15 -3 -23 -12 -24 -26 -2 -22 -2 -22 -6 1 -3 14 -12 22 -26 23 -22 2
-22 2 1 6 14 3 22 12 23 26 2 22 2 22 6 0 3 -15 12 -23 26 -24z m395 29 c22
-22 13 -38 -19 -38 -24 0 -30 -4 -27 -17 2 -12 13 -18 30 -18 15 1 24 -3 22
-7 -16 -26 -74 7 -74 42 0 21 25 50 44 50 6 0 17 -5 24 -12z m200 0 c22 -22
13 -38 -19 -38 -24 0 -30 -4 -27 -17 2 -12 13 -18 30 -18 15 1 24 -3 22 -7
-16 -26 -74 7 -74 42 0 21 25 50 44 50 6 0 17 -5 24 -12z m106 4 c3 -5 -4 -8
-16 -8 -11 1 -25 -7 -32 -16 -15 -24 4 -53 33 -52 15 0 18 -3 12 -9 -7 -7 -19
-7 -36 1 -44 20 -28 90 22 92 6 0 14 -4 17 -8z m294 -4 c7 -7 12 -28 12 -47 0
-33 -3 -36 -29 -38 -37 -3 -59 20 -41 42 7 8 24 15 37 15 22 0 24 2 12 16 -7
8 -21 13 -31 11 -10 -3 -16 -1 -12 4 8 13 38 11 52 -3z m53 -41 c-4 -61 -11
-59 -11 3 0 29 3 50 7 46 4 -4 6 -26 4 -49z m47 41 c7 -7 11 -30 11 -52 l-2
-41 -7 43 c-3 24 -13 48 -21 53 -8 5 -9 9 -3 9 5 0 15 -5 22 -12z m299 0 c31
-25 4 -98 -31 -85 -10 4 -16 -2 -19 -21 -2 -15 -5 5 -6 43 -1 66 0 71 21 72
12 1 28 -3 35 -9z m183 -32 c0 -34 4 -46 18 -49 9 -3 -1 -5 -23 -5 -22 0 -32
2 -22 5 12 3 17 15 17 43 0 28 -5 40 -17 43 -14 4 -12 5 5 6 20 1 22 -4 22
-43z m118 32 c26 -26 8 -88 -24 -88 -19 0 -44 29 -44 50 0 21 25 50 44 50 6 0
17 -5 24 -12z m53 -41 c-4 -61 -11 -59 -11 3 0 29 3 50 7 46 4 -4 6 -26 4 -49z
m47 41 c7 -7 11 -30 11 -52 l-2 -41 -7 43 c-3 24 -13 48 -21 53 -8 5 -9 9 -3
9 5 0 15 -5 22 -12z m182 -8 c0 -5 -4 -10 -10 -10 -5 0 -10 5 -10 10 0 6 5 10
10 10 6 0 10 -4 10 -10z m0 -70 c0 -5 -4 -10 -10 -10 -5 0 -10 5 -10 10 0 6 5
10 10 10 6 0 10 -4 10 -10z"/>
<path d="M1286 3718 c-15 -45 -15 -48 4 -48 21 0 24 12 10 45 -7 18 -8 18 -14
3z"/>
<path d="M1577 3733 c-11 -10 -8 -91 3 -98 18 -11 40 16 40 49 0 41 -24 68
-43 49z"/>
<path d="M774 3697 c-9 -25 0 -62 15 -62 22 0 38 32 25 52 -14 23 -33 28 -40
10z"/>
<path d="M874 3697 c-9 -25 0 -62 15 -62 22 0 38 32 25 52 -14 23 -33 28 -40
10z"/>
<path d="M1077 3704 c-14 -14 -6 -24 19 -24 16 0 24 5 22 13 -5 14 -31 21 -41
11z"/>
<path d="M1677 3704 c-10 -10 -8 -46 2 -63 14 -23 43 6 39 38 -3 25 -27 39
-41 25z"/>
<path d="M1974 3697 c-9 -25 0 -62 15 -62 22 0 38 32 25 52 -14 23 -33 28 -40
10z"/>
<path d="M974 3257 c-9 -25 0 -62 16 -62 10 0 15 10 15 34 0 36 -21 54 -31 28z"/>
<path d="M1186 3278 c-15 -45 -15 -48 4 -48 21 0 24 12 10 45 -7 18 -8 18 -14
3z"/>
<path d="M4177 3264 c-14 -14 -6 -24 19 -24 16 0 24 5 22 13 -5 14 -31 21 -41
11z"/>
<path d="M4473 3215 c-3 -9 -3 -18 0 -22 10 -10 37 6 37 22 0 20 -29 20 -37 0z"/>
<path d="M1474 3037 c-9 -25 0 -62 16 -62 10 0 15 10 15 34 0 36 -21 54 -31
28z"/>
<path d="M4882 3038 c-16 -16 -15 -43 1 -57 16 -13 37 4 37 30 0 25 -24 41
-38 27z"/>
<path d="M970 3055 c0 -22 4 -26 23 -23 14 2 22 10 22 23 0 13 -8 21 -22 23
-19 3 -23 -1 -23 -23z"/>
<path d="M3870 3060 c0 -13 7 -20 18 -20 26 0 34 11 21 27 -17 20 -39 16 -39
-7z"/>
<path d="M3870 3001 c0 -31 13 -39 38 -22 21 13 10 46 -16 49 -19 3 -22 -1
-22 -27z"/>
<path d="M1277 3044 c-14 -14 -6 -24 19 -24 16 0 24 5 22 13 -5 14 -31 21 -41
11z"/>
<path d="M1370 2990 c0 -11 7 -20 15 -20 8 0 19 9 25 20 9 18 8 20 -15 20 -18
0 -25 -5 -25 -20z"/>
<path d="M1577 3044 c-14 -14 -6 -24 19 -24 16 0 24 5 22 13 -5 14 -31 21 -41
11z"/>
<path d="M3973 2995 c-3 -9 -3 -18 0 -22 10 -10 37 6 37 22 0 20 -29 20 -37 0z"/>
<path d="M4277 3044 c-14 -14 -6 -24 19 -24 16 0 24 5 22 13 -5 14 -31 21 -41
11z"/>
<path d="M4773 2995 c-3 -9 -3 -18 0 -22 10 -10 37 6 37 22 0 20 -29 20 -37 0z"/>
<path d="M974 2817 c-9 -25 0 -62 16 -62 10 0 15 10 15 34 0 36 -21 54 -31 28z"/>
<path d="M1375 2810 c-8 -26 3 -60 20 -60 8 0 17 9 20 20 8 26 -3 60 -20 60
-8 0 -17 -9 -20 -20z"/>
<path d="M4082 2818 c-16 -16 -15 -43 1 -57 16 -13 37 4 37 30 0 25 -24 41
-38 27z"/>
<path d="M1570 2805 c0 -57 8 -66 34 -39 28 28 11 94 -25 94 -5 0 -9 -25 -9
-55z"/>
<path d="M1674 2817 c-9 -25 0 -62 15 -62 22 0 38 32 25 52 -14 23 -33 28 -40
10z"/>
<path d="M1870 2769 c0 -14 5 -19 17 -17 26 5 29 38 4 38 -15 0 -21 -6 -21
-21z"/>
<path d="M4277 2824 c-14 -14 -6 -24 19 -24 16 0 24 5 22 13 -5 14 -31 21 -41
11z"/>
<path d="M4674 2817 c-9 -25 0 -62 15 -62 22 0 38 32 25 52 -14 23 -33 28 -40
10z"/>
<path d="M4774 2817 c-9 -25 0 -62 15 -62 22 0 38 32 25 52 -14 23 -33 28 -40
10z"/>
<path d="M5077 2823 c-12 -11 -8 -50 7 -62 19 -16 40 12 32 44 -6 24 -25 33
-39 18z"/>
<path d="M974 2597 c-9 -25 0 -62 16 -62 10 0 15 10 15 34 0 36 -21 54 -31 28z"/>
<path d="M1375 2590 c-8 -26 3 -60 20 -60 17 0 28 34 20 60 -3 11 -12 20 -20
20 -8 0 -17 -9 -20 -20z"/>
<path d="M375 2590 c-15 -29 -15 -30 5 -30 16 0 20 7 20 30 0 17 -2 30 -5 30
-2 0 -11 -13 -20 -30z"/>
<path d="M3870 2616 c0 -20 5 -26 21 -26 15 0 20 5 17 22 -5 34 -38 37 -38 4z"/>
<path d="M4770 2615 c0 -18 5 -25 20 -25 25 0 38 29 19 41 -25 15 -39 10 -39
-16z"/>
<path d="M1277 2604 c-14 -14 -6 -24 19 -24 16 0 24 5 22 13 -5 14 -31 21 -41
11z"/>
<path d="M1677 2604 c-14 -14 -6 -24 19 -24 16 0 24 5 22 13 -5 14 -31 21 -41
11z"/>
<path d="M2074 2597 c-9 -25 0 -62 15 -62 22 0 38 32 25 52 -14 23 -33 28 -40
10z"/>
<path d="M2274 2597 c-9 -25 0 -62 15 -62 22 0 38 32 25 52 -14 23 -33 28 -40
10z"/>
<path d="M2374 2597 c-9 -25 0 -62 16 -62 10 0 15 10 15 34 0 36 -21 54 -31
28z"/>
<path d="M3977 2604 c-14 -14 -6 -24 19 -24 16 0 24 5 22 13 -5 14 -31 21 -41
11z"/>
<path d="M4177 2604 c-14 -14 -6 -24 19 -24 16 0 24 5 22 13 -5 14 -31 21 -41
11z"/>
<path d="M4477 2604 c-14 -14 -6 -24 19 -24 16 0 24 5 22 13 -5 14 -31 21 -41
11z"/>
<path d="M5074 2597 c-9 -25 0 -62 15 -62 22 0 38 32 25 52 -14 23 -33 28 -40
10z"/>
<path d="M5174 2597 c-9 -25 0 -62 15 -62 22 0 38 32 25 52 -14 23 -33 28 -40
10z"/>
<path d="M5477 2603 c-12 -11 -8 -50 7 -62 19 -16 40 12 32 44 -6 24 -25 33
-39 18z"/>
<path d="M974 2377 c-9 -25 0 -62 16 -62 10 0 15 10 15 34 0 36 -21 54 -31 28z"/>
<path d="M1274 2377 c-9 -25 0 -62 16 -62 10 0 15 10 15 34 0 36 -21 54 -31
28z"/>
<path d="M1186 2398 c-15 -45 -15 -48 4 -48 21 0 24 12 10 45 -7 18 -8 18 -14
3z"/>
<path d="M1770 2395 c0 -22 4 -26 23 -23 14 2 22 10 22 23 0 13 -8 21 -22 23
-19 3 -23 -1 -23 -23z"/>
<path d="M1870 2329 c0 -14 5 -19 17 -17 26 5 29 38 4 38 -15 0 -21 -6 -21
-21z"/>
<path d="M2077 2384 c-14 -14 -6 -24 19 -24 16 0 24 5 22 13 -5 14 -31 21 -41
11z"/>
<path d="M3977 2384 c-14 -14 -6 -24 19 -24 16 0 24 5 22 13 -5 14 -31 21 -41
11z"/>
<path d="M4074 2377 c-9 -25 0 -62 15 -62 22 0 38 32 25 52 -14 23 -33 28 -40
10z"/>
<path d="M4374 2377 c-9 -25 0 -62 15 -62 22 0 38 32 25 52 -14 23 -33 28 -40
10z"/>
<path d="M4573 2335 c-3 -9 -3 -18 0 -22 10 -10 37 6 37 22 0 20 -29 20 -37 0z"/>
<path d="M4874 2377 c-9 -25 0 -62 15 -62 22 0 38 32 25 52 -14 23 -33 28 -40
10z"/>
<path d="M974 2157 c-9 -25 0 -62 16 -62 10 0 15 10 15 34 0 36 -21 54 -31 28z"/>
<path d="M377 2153 c-11 -10 -8 -51 4 -59 18 -10 42 21 34 45 -6 21 -25 28
-38 14z"/>
<path d="M1170 2145 c0 -57 8 -66 34 -39 28 28 11 94 -25 94 -5 0 -9 -25 -9
-55z"/>
<path d="M3577 2153 c-11 -10 -8 -51 4 -59 18 -10 42 21 34 45 -6 21 -25 28
-38 14z"/>
<path d="M3870 2145 c0 -57 8 -66 34 -39 28 28 11 94 -25 94 -5 0 -9 -25 -9
-55z"/>
<path d="M1477 2164 c-14 -14 -6 -24 19 -24 16 0 24 5 22 13 -5 14 -31 21 -41
11z"/>
<path d="M1774 2157 c-9 -25 0 -62 15 -62 22 0 38 32 25 52 -14 23 -33 28 -40
10z"/>
<path d="M4374 2157 c-9 -25 0 -62 15 -62 22 0 38 32 25 52 -14 23 -33 28 -40
10z"/>
<path d="M4474 2157 c-9 -25 0 -62 15 -62 22 0 38 32 25 52 -14 23 -33 28 -40
10z"/>
<path d="M4777 2163 c-12 -11 -8 -50 7 -62 19 -16 40 12 32 44 -6 24 -25 33
-39 18z"/>
<path d="M4470 1956 c0 -20 5 -26 21 -26 15 0 20 5 17 22 -5 34 -38 37 -38 4z"/>
<path d="M874 1937 c-9 -25 0 -62 15 -62 22 0 38 32 25 52 -14 23 -33 28 -40
10z"/>
<path d="M1574 1937 c-9 -25 0 -62 15 -62 22 0 38 32 25 52 -14 23 -33 28 -40
10z"/>
<path d="M1870 1889 c0 -14 5 -19 17 -17 26 5 29 38 4 38 -15 0 -21 -6 -21
-21z"/>
<path d="M2174 1937 c-9 -25 0 -62 15 -62 22 0 38 32 25 52 -14 23 -33 28 -40
10z"/>
<path d="M4073 1895 c-3 -9 -3 -18 0 -22 10 -10 37 6 37 22 0 20 -29 20 -37 0z"/>
<path d="M4277 1944 c-14 -14 -6 -24 19 -24 16 0 24 5 22 13 -5 14 -31 21 -41
11z"/>
<path d="M4574 1937 c-9 -25 0 -62 15 -62 22 0 38 32 25 52 -14 23 -33 28 -40
10z"/>
<path d="M4877 1944 c-14 -14 -6 -24 19 -24 16 0 24 5 22 13 -5 14 -31 21 -41
11z"/>
<path d="M375 1750 c-8 -14 3 -30 21 -30 8 0 14 9 14 20 0 21 -24 28 -35 10z"/>
<path d="M377 1703 c-11 -10 -8 -41 4 -49 16 -9 41 20 33 39 -6 17 -25 22 -37
10z"/>
<path d="M670 1735 c0 -22 4 -26 23 -23 14 2 22 10 22 23 0 13 -8 21 -22 23
-19 3 -23 -1 -23 -23z"/>
<path d="M3575 1751 c-8 -15 3 -31 21 -31 9 0 14 7 12 17 -4 20 -24 28 -33 14z"/>
<path d="M3577 1703 c-11 -10 -8 -41 4 -49 16 -9 41 20 33 39 -6 17 -25 22
-37 10z"/>
<path d="M4770 1705 c0 -57 8 -66 34 -39 28 28 11 94 -25 94 -5 0 -9 -25 -9
-55z"/>
<path d="M774 1717 c-9 -25 0 -62 15 -62 22 0 38 32 25 52 -14 23 -33 28 -40
10z"/>
<path d="M1370 1670 c0 -11 7 -20 15 -20 8 0 19 9 25 20 9 18 8 20 -15 20 -18
0 -25 -5 -25 -20z"/>
<path d="M4177 1724 c-14 -14 -6 -24 19 -24 16 0 24 5 22 13 -5 14 -31 21 -41
11z"/>
<path d="M4373 1675 c-3 -9 -3 -18 0 -22 10 -10 37 6 37 22 0 20 -29 20 -37 0z"/>
<path d="M4877 1724 c-14 -14 -6 -24 19 -24 16 0 24 5 22 13 -5 14 -31 21 -41
11z"/>
<path d="M5077 1724 c-14 -14 -6 -24 19 -24 16 0 24 5 22 13 -5 14 -31 21 -41
11z"/>
<path d="M4582 1498 c-16 -16 -15 -43 1 -57 16 -13 37 4 37 30 0 25 -24 41
-38 27z"/>
<path d="M377 1533 c-4 -3 -7 -17 -7 -30 0 -27 34 -33 44 -7 10 25 -20 55 -37
37z"/>
<path d="M870 1515 c0 -22 4 -26 23 -23 14 2 22 10 22 23 0 13 -8 21 -22 23
-19 3 -23 -1 -23 -23z"/>
<path d="M3574 1526 c-9 -22 2 -46 21 -46 12 0 15 8 13 27 -3 30 -25 42 -34
19z"/>
<path d="M1270 1450 c0 -11 7 -20 15 -20 8 0 19 9 25 20 9 18 8 20 -15 20 -18
0 -25 -5 -25 -20z"/>
<path d="M4277 1504 c-14 -14 -6 -24 19 -24 16 0 24 5 22 13 -5 14 -31 21 -41
11z"/>
<path d="M4473 1455 c-3 -9 -3 -18 0 -22 10 -10 37 6 37 22 0 20 -29 20 -37 0z"/>
<path d="M5473 1455 c-3 -9 -3 -18 0 -22 10 -10 37 6 37 22 0 20 -29 20 -37 0z"/>
<path d="M474 1306 c-3 -8 -4 -31 -2 -52 4 -46 28 -53 42 -12 16 44 -24 107
-40 64z m26 -36 c0 -5 -5 -10 -11 -10 -5 0 -7 5 -4 10 3 6 8 10 11 10 2 0 4
-4 4 -10z"/>
<path d="M870 1265 c0 -57 8 -66 34 -39 28 28 11 94 -25 94 -5 0 -9 -25 -9
-55z"/>
<path d="M970 1295 c0 -22 4 -26 23 -23 14 2 22 10 22 23 0 13 -8 21 -22 23
-19 3 -23 -1 -23 -23z"/>
<path d="M3574 1306 c-3 -8 -4 -31 -2 -52 4 -46 28 -53 42 -12 16 44 -24 107
-40 64z m26 -36 c0 -5 -5 -10 -11 -10 -5 0 -7 5 -4 10 3 6 8 10 11 10 2 0 4
-4 4 -10z"/>
<path d="M1370 1230 c0 -11 7 -20 15 -20 8 0 19 9 25 20 9 18 8 20 -15 20 -18
0 -25 -5 -25 -20z"/>
<path d="M3974 1277 c-9 -25 0 -62 15 -62 22 0 38 32 25 52 -14 23 -33 28 -40
10z"/>
<path d="M4177 1284 c-14 -14 -6 -24 19 -24 16 0 24 5 22 13 -5 14 -31 21 -41
11z"/>
<path d="M4570 1229 c0 -14 5 -19 17 -17 26 5 29 38 4 38 -15 0 -21 -6 -21
-21z"/>
<path d="M4977 1284 c-14 -14 -6 -24 19 -24 16 0 24 5 22 13 -5 14 -31 21 -41
11z"/>
<path d="M777 844 c-14 -14 -6 -24 19 -24 16 0 24 5 22 13 -5 14 -31 21 -41
11z"/>
<path d="M1170 790 c0 -11 7 -20 15 -20 8 0 19 9 25 20 9 18 8 20 -15 20 -18
0 -25 -5 -25 -20z"/>
<path d="M1374 837 c-9 -25 0 -62 16 -62 10 0 15 10 15 34 0 36 -21 54 -31 28z"/>
<path d="M1477 844 c-14 -14 -6 -24 19 -24 16 0 24 5 22 13 -5 14 -31 21 -41
11z"/>
<path d="M3370 790 c0 -11 7 -20 15 -20 8 0 19 9 25 20 9 18 8 20 -15 20 -18
0 -25 -5 -25 -20z"/>
<path d="M1377 213 c-11 -10 -8 -91 3 -98 18 -11 40 16 40 49 0 41 -24 68 -43
49z"/>
<path d="M477 184 c-14 -14 -6 -24 19 -24 16 0 24 5 22 13 -5 14 -31 21 -41
11z"/>
<path d="M677 184 c-14 -14 -6 -24 19 -24 16 0 24 5 22 13 -5 14 -31 21 -41
11z"/>
<path d="M1070 130 c0 -11 7 -20 15 -20 8 0 19 9 25 20 9 18 8 20 -15 20 -18
0 -25 -5 -25 -20z"/>
<path d="M1477 184 c-10 -10 -8 -46 2 -63 14 -23 43 6 39 38 -3 25 -27 39 -41
25z"/>
<path d="M1774 177 c-9 -25 0 -62 15 -62 22 0 38 32 25 52 -14 23 -33 28 -40
10z"/>
</g>
</svg>
